<svg width="20" height="20" viewBox="0 0 20 20" fill="none" xmlns="http://www.w3.org/2000/svg">
<path d="M15 10C12.2425 10 10 12.2425 10 15C10 17.7575 12.2425 20 15 20C17.7575 20 20 17.7575 20 15C20 12.2425 17.7575 10 15 10ZM17.5 17.2025V17.0833C17.5 16.3933 16.94 15.8333 16.25 15.8333H13.75C13.06 15.8333 12.5 16.3933 12.5 17.0833V17.2025C11.9817 16.615 11.6667 15.8433 11.6667 15C11.6667 13.1617 13.1617 11.6667 15 11.6667C16.8383 11.6667 18.3333 13.1617 18.3333 15C18.3333 15.8433 18.0183 16.6142 17.5 17.2025ZM16.25 13.75C16.25 14.44 15.69 15 15 15C14.31 15 13.75 14.44 13.75 13.75C13.75 13.06 14.31 12.5 15 12.5C15.69 12.5 16.25 13.06 16.25 13.75ZM15.8333 1.66667H15V0.833333C15 0.373333 14.6267 0 14.1667 0C13.7067 0 13.3333 0.373333 13.3333 0.833333V1.66667H6.66667V0.833333C6.66667 0.373333 6.29333 0 5.83333 0C5.37333 0 5 0.373333 5 0.833333V1.66667H4.16667C1.86917 1.66667 0 3.53583 0 5.83333V15.8333C0 18.1308 1.86917 20 4.16667 20H8.33333C8.79333 20 9.16667 19.6267 9.16667 19.1667C9.16667 18.7067 8.79333 18.3333 8.33333 18.3333H4.16667C2.78833 18.3333 1.66667 17.2117 1.66667 15.8333V8.33333H18.3333C18.3333 8.79333 18.7067 9.16667 19.1667 9.16667C19.6267 9.16667 20 8.79333 20 8.33333V5.83333C20 3.53583 18.1308 1.66667 15.8333 1.66667ZM1.66667 6.66667V5.83333C1.66667 4.455 2.78833 3.33333 4.16667 3.33333H15.8333C17.2117 3.33333 18.3333 4.455 18.3333 5.83333V6.66667H1.66667Z" fill="black"/>
</svg>
