<svg width="20" height="20" viewBox="0 0 20 20" fill="none" xmlns="http://www.w3.org/2000/svg">
<g clip-path="url(#clip0_54_6371)">
<path d="M9.99999 14.3083C9.45245 14.3093 8.91009 14.2024 8.4039 13.9936C7.89772 13.7848 7.43765 13.4783 7.04999 13.0917L0.241658 6.28333C0.0847386 6.12641 -0.00341797 5.91358 -0.00341797 5.69166C-0.00341797 5.46974 0.0847386 5.25692 0.241658 5.1C0.398578 4.94308 0.611407 4.85492 0.833325 4.85492C1.05524 4.85492 1.26807 4.94308 1.42499 5.1L8.23333 11.9083C8.70208 12.3765 9.33749 12.6395 9.99999 12.6395C10.6625 12.6395 11.2979 12.3765 11.7667 11.9083L18.575 5.1C18.7319 4.94308 18.9447 4.85492 19.1667 4.85492C19.3886 4.85492 19.6014 4.94308 19.7583 5.1C19.9152 5.25692 20.0034 5.46974 20.0034 5.69166C20.0034 5.91358 19.9152 6.12641 19.7583 6.28333L12.95 13.0917C12.5623 13.4783 12.1023 13.7848 11.5961 13.9936C11.0899 14.2024 10.5475 14.3093 9.99999 14.3083Z" fill="black"/>
</g>
<defs>
<clipPath id="clip0_54_6371">
<rect width="20" height="20" fill="white"/>
</clipPath>
</defs>
</svg>
