<svg width="20" height="20" viewBox="0 0 20 20" fill="none" xmlns="http://www.w3.org/2000/svg">
<g clip-path="url(#clip0_37_826)">
<path d="M15.8333 0H4.16667C1.86917 0 0 1.86917 0 4.16667V15.8333C0 18.1308 1.86917 20 4.16667 20H15.8333C18.1308 20 20 18.1308 20 15.8333V4.16667C20 1.86917 18.1308 0 15.8333 0ZM18.3333 15.8333C18.3333 17.2117 17.2117 18.3333 15.8333 18.3333H4.16667C2.78833 18.3333 1.66667 17.2117 1.66667 15.8333V4.16667C1.66667 2.78833 2.78833 1.66667 4.16667 1.66667H15.8333C17.2117 1.66667 18.3333 2.78833 18.3333 4.16667V15.8333ZM11.5658 5.31583L5.97667 10.905C5.3475 11.5342 5 12.3717 5 13.2617V14.5833C5 15.0442 5.37333 15.4167 5.83333 15.4167H7.155C8.045 15.4167 8.8825 15.07 9.51167 14.44L15.1008 8.85083C16.0758 7.87583 16.0758 6.29083 15.1008 5.31583C14.1558 4.37167 12.51 4.37167 11.5658 5.31583ZM8.33333 13.2617C8.0225 13.5717 7.59333 13.75 7.155 13.75H6.66667V13.2617C6.66667 12.8167 6.84 12.3983 7.155 12.0833L10.6967 8.54167L11.875 9.72L8.33333 13.2617ZM13.9225 7.6725L13.0533 8.54167L11.875 7.36333L12.7442 6.49417C13.0583 6.17833 13.6075 6.17833 13.9225 6.49417C14.2475 6.81917 14.2475 7.3475 13.9225 7.6725Z" fill="black"/>
</g>
<defs>
<clipPath id="clip0_37_826">
<rect width="20" height="20" fill="white"/>
</clipPath>
</defs>
</svg>
