<svg width="20" height="20" viewBox="0 0 20 20" fill="none" xmlns="http://www.w3.org/2000/svg">
<g clip-path="url(#clip0_37_794)">
<path d="M9.965 20.0068L9.3841 19.5088C8.58328 18.8383 1.59082 12.7993 1.59082 8.38199C1.59082 3.75707 5.34008 0.0078125 9.965 0.0078125C14.5899 0.0078125 18.3392 3.75707 18.3392 8.38199C18.3392 12.7994 11.3467 18.8383 10.5492 19.5122L9.965 20.0068ZM9.965 1.81855C6.34184 1.82266 3.4057 4.75879 3.4016 8.38195C3.4016 11.157 7.70363 15.5902 9.965 17.6192C12.2264 15.5893 16.5284 11.1537 16.5284 8.38195C16.5243 4.75879 13.5882 1.8227 9.965 1.81855Z" fill="black"/>
<path d="M9.96496 11.7014C8.13168 11.7014 6.64551 10.2152 6.64551 8.38195C6.64551 6.54867 8.13168 5.0625 9.96496 5.0625C11.7982 5.0625 13.2844 6.54867 13.2844 8.38195C13.2844 10.2152 11.7983 11.7014 9.96496 11.7014ZM9.96496 6.72219C9.04832 6.72219 8.30523 7.46527 8.30523 8.38191C8.30523 9.29855 9.04832 10.0416 9.96496 10.0416C10.8816 10.0416 11.6247 9.29855 11.6247 8.38191C11.6247 7.46527 10.8816 6.72219 9.96496 6.72219Z" fill="black"/>
</g>
<defs>
<clipPath id="clip0_37_794">
<rect width="20" height="20" fill="white"/>
</clipPath>
</defs>
</svg>
