<svg width="24" height="24" viewBox="0 0 24 24" fill="none" xmlns="http://www.w3.org/2000/svg">
<path d="M14.8571 15.9999V18.2856C14.8571 18.5887 14.7367 18.8794 14.5224 19.0937C14.3081 19.308 14.0174 19.4284 13.7143 19.4284H5.71428C5.41118 19.4284 5.12049 19.308 4.90616 19.0937C4.69183 18.8794 4.57143 18.5887 4.57143 18.2856V5.71415C4.57143 5.41104 4.69183 5.12035 4.90616 4.90602C5.12049 4.6917 5.41118 4.57129 5.71428 4.57129H13.7143C14.0174 4.57129 14.3081 4.6917 14.5224 4.90602C14.7367 5.12035 14.8571 5.41104 14.8571 5.71415V7.99986M11.4286 11.9999H19.4286M19.4286 11.9999L17.1429 9.71415M19.4286 11.9999L17.1429 14.2856" stroke="black" stroke-width="1.43" stroke-linecap="round" stroke-linejoin="round"/>
</svg>
