<svg width="20" height="20" viewBox="0 0 20 20" fill="none" xmlns="http://www.w3.org/2000/svg">
<g clip-path="url(#clip0_55_8531)">
<path d="M15.8334 7.02V5.83333C15.8334 4.28624 15.2188 2.80251 14.1249 1.70854C13.0309 0.614582 11.5472 0 10.0001 0C8.45299 0 6.96925 0.614582 5.87529 1.70854C4.78133 2.80251 4.16675 4.28624 4.16675 5.83333V7.02C3.42455 7.34392 2.79283 7.8771 2.34883 8.55434C1.90484 9.23158 1.66781 10.0235 1.66675 10.8333V15.8333C1.66807 16.938 2.10748 17.997 2.8886 18.7782C3.66971 19.5593 4.72875 19.9987 5.83341 20H14.1667C15.2714 19.9987 16.3305 19.5593 17.1116 18.7782C17.8927 17.997 18.3321 16.938 18.3334 15.8333V10.8333C18.3324 10.0235 18.0953 9.23158 17.6513 8.55434C17.2073 7.8771 16.5756 7.34392 15.8334 7.02ZM5.83341 5.83333C5.83341 4.72826 6.2724 3.66846 7.0538 2.88706C7.83521 2.10565 8.89501 1.66667 10.0001 1.66667C11.1052 1.66667 12.165 2.10565 12.9464 2.88706C13.7278 3.66846 14.1667 4.72826 14.1667 5.83333V6.66667H5.83341V5.83333ZM16.6667 15.8333C16.6667 16.4964 16.4034 17.1323 15.9345 17.6011C15.4657 18.0699 14.8298 18.3333 14.1667 18.3333H5.83341C5.17037 18.3333 4.53449 18.0699 4.06565 17.6011C3.59681 17.1323 3.33341 16.4964 3.33341 15.8333V10.8333C3.33341 10.1703 3.59681 9.53441 4.06565 9.06557C4.53449 8.59672 5.17037 8.33333 5.83341 8.33333H14.1667C14.8298 8.33333 15.4657 8.59672 15.9345 9.06557C16.4034 9.53441 16.6667 10.1703 16.6667 10.8333V15.8333Z" fill="black"/>
<path d="M10.0001 11.6667C9.77907 11.6667 9.56711 11.7545 9.41083 11.9108C9.25455 12.067 9.16675 12.279 9.16675 12.5V14.1667C9.16675 14.3877 9.25455 14.5997 9.41083 14.7559C9.56711 14.9122 9.77907 15 10.0001 15C10.2211 15 10.4331 14.9122 10.5893 14.7559C10.7456 14.5997 10.8334 14.3877 10.8334 14.1667V12.5C10.8334 12.279 10.7456 12.067 10.5893 11.9108C10.4331 11.7545 10.2211 11.6667 10.0001 11.6667Z" fill="black"/>
</g>
<defs>
<clipPath id="clip0_55_8531">
<rect width="20" height="20" fill="white"/>
</clipPath>
</defs>
</svg>
