<svg width="32" height="32" viewBox="0 0 32 32" fill="none" xmlns="http://www.w3.org/2000/svg">
<g clip-path="url(#clip0_53_6233)">
<path d="M23.9653 9.52803C23.524 9.44003 23.1627 9.16403 22.976 8.76936C20.9093 4.40803 16.1187 1.96936 11.3307 2.85203C6.968 3.65203 3.548 7.13469 2.81867 11.52C2.60267 12.8147 2.61867 14.1107 2.86267 15.3734C2.94267 15.7854 2.76533 16.244 2.40133 16.5747C0.874667 17.9627 0 19.94 0 22.0014C0 26.044 3.28933 29.3347 7.33333 29.3347H22C27.5147 29.3347 32 24.8494 32 19.3347C32 14.5814 28.6213 10.456 23.9653 9.52803ZM22 26.6667H7.33333C4.76 26.6667 2.66667 24.5734 2.66667 22C2.66667 20.6894 3.224 19.4294 4.19467 18.5467C5.24267 17.5934 5.73467 16.1827 5.47867 14.8627C5.29467 13.9134 5.284 12.936 5.44667 11.9547C5.984 8.72536 8.6 6.06003 11.808 5.47203C12.3213 5.37869 12.832 5.33336 13.336 5.33336C16.4187 5.33336 19.2093 7.05203 20.5653 9.91203C21.116 11.0747 22.1653 11.888 23.4427 12.1427C26.856 12.824 29.332 15.848 29.332 19.3347C29.332 23.3774 26.0413 26.668 21.9987 26.668L22 26.6667ZM20.1613 16.3907C20.6827 16.912 20.6827 17.7547 20.1613 18.276C19.9013 18.536 19.56 18.6667 19.2187 18.6667C18.8773 18.6667 18.536 18.536 18.276 18.276L16 16V22.6667C16 23.404 15.4027 24 14.6667 24C13.9307 24 13.3333 23.404 13.3333 22.6667V16L11.0573 18.276C10.536 18.7974 9.69333 18.7974 9.172 18.276C8.65067 17.7547 8.65067 16.912 9.172 16.3907L12.7813 12.7814C13.296 12.2667 13.972 12.008 14.648 12.004L14.6667 12L14.6853 12.004C15.3627 12.008 16.0373 12.2667 16.552 12.7814L20.1613 16.3907Z" fill="black"/>
</g>
<defs>
<clipPath id="clip0_53_6233">
<rect width="32" height="32" fill="white"/>
</clipPath>
</defs>
</svg>
