<svg width="20" height="20" viewBox="0 0 20 20" fill="none" xmlns="http://www.w3.org/2000/svg">
<g clip-path="url(#clip0_16035_862)">
<path fill-rule="evenodd" clip-rule="evenodd" d="M15.1977 15.1987C15.4418 14.9546 15.8375 14.9546 16.0816 15.1987L19.1915 18.3085C19.4356 18.5526 19.4356 18.9484 19.1915 19.1924C18.9474 19.4365 18.5517 19.4365 18.3076 19.1924L15.1977 16.0825C14.9536 15.8385 14.9536 15.4428 15.1977 15.1987Z" fill="#6970FF"/>
<path fill-rule="evenodd" clip-rule="evenodd" d="M15.1982 4.16091C12.1503 1.11304 7.20875 1.11304 4.16091 4.16091C1.11304 7.20875 1.11304 12.1503 4.16091 15.1982C7.20875 18.2461 12.1503 18.2461 15.1982 15.1982C18.2461 12.1503 18.2461 7.20875 15.1982 4.16091ZM3.277 3.277C6.81303 -0.259001 12.5461 -0.259001 16.0821 3.277C19.6181 6.81303 19.6181 12.5461 16.0821 16.0821C12.5461 19.6181 6.81303 19.6181 3.277 16.0821C-0.259001 12.5461 -0.259001 6.81303 3.277 3.277Z" fill="#989C9F"/>
</g>
<defs>
<clipPath id="clip0_16035_862">
<rect width="20" height="20" fill="white"/>
</clipPath>
</defs>
</svg>
