<svg width="24" height="24" viewBox="0 0 24 24" fill="none" xmlns="http://www.w3.org/2000/svg">
<g clip-path="url(#clip0_16044_595)">
<path fill-rule="evenodd" clip-rule="evenodd" d="M4.875 1.5C4.875 1.08579 4.53923 0.75 4.125 0.75C3.71079 0.75 3.375 1.08579 3.375 1.5V3.08363C1.87201 3.42468 0.75 4.7688 0.75 6.375C0.75 8.23898 2.26104 9.75 4.125 9.75C5.98898 9.75 7.5 8.23898 7.5 6.375C7.5 4.7688 6.378 3.42468 4.875 3.08363V1.5ZM4.125 4.5C3.08947 4.5 2.25 5.33948 2.25 6.375C2.25 7.41052 3.08947 8.25 4.125 8.25C5.16052 8.25 6 7.41052 6 6.375C6 5.33948 5.16052 4.5 4.125 4.5Z" fill="#000"/>
<path fill-rule="evenodd" clip-rule="evenodd" d="M16.5 6.375C16.5 4.7688 17.622 3.42468 19.125 3.08363V1.5C19.125 1.08579 19.4608 0.75 19.875 0.75C20.2892 0.75 20.625 1.08579 20.625 1.5V3.08363C22.128 3.42468 23.25 4.7688 23.25 6.375C23.25 8.23898 21.739 9.75 19.875 9.75C18.011 9.75 16.5 8.23898 16.5 6.375ZM19.875 4.5C18.8395 4.5 18 5.33948 18 6.375C18 7.41052 18.8395 8.25 19.875 8.25C20.9105 8.25 21.75 7.41052 21.75 6.375C21.75 5.33948 20.9105 4.5 19.875 4.5Z" fill="#000"/>
<path d="M4.875 11.25C4.875 10.8358 4.53922 10.5 4.125 10.5C3.71079 10.5 3.375 10.8358 3.375 11.25V22.5C3.375 22.9142 3.71079 23.25 4.125 23.25C4.53922 23.25 4.875 22.9142 4.875 22.5V11.25Z" fill="#000"/>
<path d="M19.875 10.5C20.2892 10.5 20.625 10.8358 20.625 11.25V22.5C20.625 22.9142 20.2892 23.25 19.875 23.25C19.4608 23.25 19.125 22.9142 19.125 22.5V11.25C19.125 10.8358 19.4608 10.5 19.875 10.5Z" fill="#000"/>
<path d="M12 13.5C11.5858 13.5 11.25 13.1642 11.25 12.75V1.5C11.25 1.08579 11.5858 0.75 12 0.75C12.4142 0.75 12.75 1.08579 12.75 1.5V12.75C12.75 13.1642 12.4142 13.5 12 13.5Z" fill="#000"/>
<path fill-rule="evenodd" clip-rule="evenodd" d="M12.75 20.9164C14.253 20.5753 15.375 19.2312 15.375 17.625C15.375 15.761 13.864 14.25 12 14.25C10.136 14.25 8.625 15.761 8.625 17.625C8.625 19.2312 9.747 20.5753 11.25 20.9164V22.5C11.25 22.9142 11.5858 23.25 12 23.25C12.4142 23.25 12.75 22.9142 12.75 22.5V20.9164ZM13.875 17.625C13.875 18.6605 13.0355 19.5 12 19.5C10.9645 19.5 10.125 18.6605 10.125 17.625C10.125 16.5895 10.9645 15.75 12 15.75C13.0355 15.75 13.875 16.5895 13.875 17.625Z" fill="#000"/>
</g>
<defs>
<clipPath id="clip0_16044_595">
<rect width="24" height="24" fill="white"/>
</clipPath>
</defs>
</svg>
