<svg width="147" height="32" viewBox="0 0 147 32" fill="none" xmlns="http://www.w3.org/2000/svg"><g id="logo"><g id="Group 8" style="transform-origin: center; transform-box: fill-box; animation: translateX 2s linear infinite alternate;"><path id="Vector" d="M33.984 15.8913C33.984 20.0747 32.335 23.8733 29.6536 26.6735C27.9876 28.4131 25.92 29.7679 23.6006 30.5882C22.803 30.871 21.9771 31.0916 21.1285 31.2416C20.3761 31.3745 19.604 31.4537 18.8205 31.4763H18.812L17.0583 31.4226H17.0555L9.13291 31.185C3.93697 31.0294 -0.14736 26.6933 0.00820671 21.4974L0.503192 5.0045L0.571073 2.72757C0.610672 1.35858 1.61478 0.241324 2.91306 0.0122169C3.24682 -0.0471813 3.58058 0.114041 3.74464 0.408204L5.00049 2.63423C5.43324 3.40358 5.65104 4.27758 5.62275 5.16006L5.56618 7.03535L5.2098 18.9631C5.09383 22.8155 8.12314 26.0315 11.9755 26.1474L15.4631 26.2521L17.8475 26.3228C18.894 26.3539 19.9377 26.1955 20.9277 25.8561C25.0912 24.4136 28.0809 20.4622 28.0809 15.8065C28.0809 15.7047 28.0809 15.6057 28.0781 15.5067C27.9254 10.0449 23.4422 5.69465 17.9832 5.53059L15.0671 5.44291H15.0642L10.9714 5.32129C9.94751 5.29018 9.01694 4.72731 8.51347 3.83633L6.38362 0.0603007L16.9169 0.374263L20.8061 0.490232C24.6245 1.08421 27.9876 3.06416 30.3579 5.90113C32.6207 8.60516 33.984 12.0927 33.984 15.8942V15.8913Z" fill="url(#paint0_linear_16038_819)"/><path id="pulse" style="transform-origin: center; transform-box: fill-box; animation: spinner 2s linear infinite alternate;" d="M23.3098 18.3319L13.3874 22.8462C12.1203 23.4232 10.6777 22.4955 10.6777 21.101V9.68808C10.6777 8.14089 12.4173 7.23295 13.6872 8.11544L23.6096 15.0141C24.8287 15.8627 24.6618 17.7153 23.3098 18.3319Z" fill="#FDFFFF"/></g><g id="Group"><path id="Vector_2" d="M46.8575 0.528789H48.5032L55.8775 23.735L63.2518 0.528789H64.809C68.6993 0.513165 70.0429 2.15885 68.8295 5.46063L59.4866 31.9947H52.1331L42.7902 5.46063C41.608 2.11719 42.962 0.471503 46.8575 0.528789Z" fill="#FDFFFF"/><path id="Vector_3" d="M76.5677 8.75131H79.1143V29.2078C79.1143 29.7234 79.0049 30.1556 78.7914 30.515C78.5779 30.8743 78.2863 31.1607 77.9113 31.3847C77.5415 31.6086 77.1145 31.7648 76.6354 31.8534C76.1562 31.9471 75.6459 31.994 75.1043 31.994H72.5785V31.4992C72.5785 26.8174 72.5785 23.4843 72.568 21.5054C72.5628 19.5264 72.5576 16.2038 72.5576 11.5323C72.5576 11.0167 72.667 10.5845 72.8805 10.2251C73.094 9.86578 73.3857 9.57936 73.7606 9.35542C74.1304 9.13669 74.5626 8.97525 75.047 8.88672C75.5313 8.79297 76.0417 8.74609 76.5677 8.74609V8.75131Z" fill="#FDFFFF"/><path id="Vector_4" d="M83.3639 15.3865V8.63195C83.3639 8.21011 83.4525 7.85077 83.6347 7.55913C83.817 7.26749 84.0618 7.02793 84.3743 6.84565C84.6867 6.66338 85.0461 6.53319 85.4575 6.46028C85.8689 6.38216 86.3012 6.3457 86.7647 6.3457H93.0558C95.066 6.3457 96.8471 6.63734 98.399 7.22583C99.951 7.81432 101.253 8.65799 102.315 9.75685C103.373 10.8557 104.18 12.1941 104.732 13.7669C105.284 15.3397 105.56 17.1208 105.56 19.1102C105.56 21.0996 105.289 22.8807 104.742 24.4691C104.195 26.0575 103.393 27.4063 102.336 28.526C101.279 29.6405 99.9718 30.4998 98.4146 31.0987C96.8575 31.6976 95.0764 31.9996 93.0662 31.9996H83.3535V15.4282L83.3691 15.3918L83.3639 15.3865ZM88.9155 27.4271H92.6027C94.0713 27.4271 95.2743 27.1823 96.2169 26.698C97.1596 26.2085 97.8991 25.5731 98.4459 24.7867C98.9927 24.0004 99.3729 23.1098 99.5812 22.1151C99.7895 21.1204 99.8989 20.1257 99.8989 19.1258C99.8989 18.4696 99.852 17.8082 99.7583 17.1416C99.6645 16.475 99.5083 15.8448 99.2896 15.2355C99.0708 14.6314 98.7792 14.0637 98.4146 13.5325C98.0501 13.0013 97.597 12.5431 97.0554 12.1577C96.5138 11.7723 95.8784 11.465 95.1441 11.2411C94.4098 11.0172 93.5609 10.9078 92.5975 10.9078H88.9103V27.4271H88.9155Z" fill="#FDFFFF"/><path id="Vector_5" d="M115.565 27.4271C115.987 27.4271 116.346 27.5052 116.638 27.6563C116.93 27.8073 117.169 28.0156 117.351 28.2708C117.534 28.5312 117.664 28.828 117.737 29.1613C117.815 29.4946 117.851 29.854 117.851 30.2289V31.9892H110.821C109.685 31.9892 108.764 31.0674 108.764 29.9321V12.6316H108.779V8.63195C108.779 8.21011 108.868 7.85077 109.05 7.55913C109.232 7.26749 109.477 7.02793 109.79 6.84565C110.102 6.66338 110.461 6.53319 110.873 6.46028C111.284 6.38216 111.717 6.3457 112.18 6.3457H114.331V27.4323H115.56L115.565 27.4271Z" fill="#FDFFFF"/><g id="Group_2" style="transform-origin: center; transform-box: fill-box; animation: sideClip 2s linear infinite alternate;"><path id="Vector_6" d="M142.906 0.527344H141.047L134.767 10.4691L138.391 15.7812L146.104 4.50094C147.979 1.92305 146.911 0.595046 142.906 0.527344Z" fill="url(#paint1_linear_16038_819)"/><path id="Vector_7" d="M140.698 31.9685L133.761 21.2716L126.735 31.9685C121.996 31.9945 120.658 30.3853 122.715 27.1512L129.699 16.0845C129.699 16.0845 129.522 15.8398 129.209 15.3919C128.902 14.944 128.506 14.3555 128.022 13.616C127.537 12.8765 126.985 12.0484 126.366 11.111C125.751 10.1736 125.116 9.22578 124.465 8.25711C123.715 7.11659 122.918 5.86671 122.064 4.49704C120.324 1.87748 121.34 0.549477 125.111 0.523438H126.829L132.792 9.26744L134.203 11.3402L146.437 29.2708C146.827 31.2602 144.911 32.1612 140.687 31.9685H140.698Z" fill="url(#paint2_linear_16038_819)"/></g><path id="Vector_8" d="M72.2822 3.88773C72.2822 3.54401 72.3499 3.17946 72.4853 2.78366C72.6207 2.39307 72.8343 2.02852 73.1259 1.69001C73.4175 1.35671 73.7925 1.07548 74.2404 0.856748C74.6883 0.638018 75.2299 0.523438 75.86 0.523438C76.4902 0.523438 77.0318 0.63281 77.4901 0.856748C77.9484 1.08069 78.3233 1.35149 78.615 1.67958C78.9066 2.00768 79.1201 2.37223 79.2556 2.77324C79.391 3.17424 79.4587 3.54401 79.4587 3.88773C79.4587 4.23145 79.3858 4.596 79.2451 4.98138C79.1045 5.36676 78.8858 5.7261 78.5942 6.06461C78.3025 6.39791 77.9276 6.67392 77.4797 6.88744C77.0318 7.10097 76.4902 7.21035 75.86 7.21035C75.2299 7.21035 74.7091 7.10097 74.256 6.87703C73.7977 6.6583 73.428 6.38229 73.1415 6.0542C72.8551 5.7261 72.6416 5.36676 72.501 4.98138C72.3603 4.596 72.2874 4.23145 72.2874 3.88773H72.2822Z" fill="url(#paint3_linear_16038_819)"/></g></g><defs><linearGradient id="paint0_linear_16038_819" x1="18.976" y1="34.548" x2="14.7701" y2="0.82965" gradientUnits="userSpaceOnUse"><stop stop-color="#6970FF"/><stop offset="1" stop-color="#63F5FF"/></linearGradient><linearGradient id="paint1_linear_16038_819" x1="141.597" y1="17.2698" x2="138.887" y2="1.13016" gradientUnits="userSpaceOnUse"><stop stop-color="#6970FF"/><stop offset="1" stop-color="#63F5FF"/></linearGradient><linearGradient id="paint2_linear_16038_819" x1="135.336" y1="35.0651" x2="129.746" y2="1.76665" gradientUnits="userSpaceOnUse"><stop stop-color="#6970FF"/><stop offset="1" stop-color="#63F5FF"/></linearGradient><linearGradient id="paint3_linear_16038_819" x1="76.2891" y1="7.86291" x2="75.3904" y2="0.70099" gradientUnits="userSpaceOnUse"><stop stop-color="#6970FF"/><stop offset="1" stop-color="#63F5FF"/></linearGradient></defs><style> @keyframes spinner { 0% { transform: scale(1); } 100% { transform: scale(.9); }}@keyframes translateX { 0%, 100% { transform: translateX(0px); } 50% { transform: translateX(2px); }}@keyframes sideClip { 0% { clip-path: polygon(0 0, 100% 0, 0 0, 0 100%); } 50% { clip-path: polygon(0 0, 100% 0, 0 100%, 0 100%); } 100% { clip-path: polygon(0 0, 100% 0, 100% 100%, 0 100%); }}</style></svg>