<svg width="20" height="20" viewBox="0 0 20 20" fill="none" xmlns="http://www.w3.org/2000/svg">
<path fill-rule="evenodd" clip-rule="evenodd" d="M9.84353 11.6661C10.1372 11.2937 10.3125 10.8236 10.3125 10.3125C10.3125 9.10438 9.33312 8.125 8.125 8.125C6.91688 8.125 5.9375 9.10438 5.9375 10.3125C5.9375 10.8236 6.11275 11.2937 6.40647 11.6661C5.19988 12.2893 4.375 13.5483 4.375 15C4.375 15.3452 4.65481 15.625 5 15.625C5.34519 15.625 5.625 15.3452 5.625 15C5.625 13.6193 6.74428 12.5 8.125 12.5C9.50572 12.5 10.625 13.6193 10.625 15C10.625 15.3452 10.9048 15.625 11.25 15.625C11.5952 15.625 11.875 15.3452 11.875 15C11.875 13.5483 11.0501 12.2893 9.84353 11.6661ZM8.125 9.375C7.60722 9.375 7.1875 9.79472 7.1875 10.3125C7.1875 10.8303 7.60722 11.25 8.125 11.25C8.64278 11.25 9.0625 10.8303 9.0625 10.3125C9.0625 9.79472 8.64278 9.375 8.125 9.375Z" fill="black"/>
<path d="M3.75 4.375H9.19281C9.10869 4.56756 9.0625 4.77934 9.0625 5C9.0625 5.22066 9.10869 5.43244 9.19281 5.625H3.75C3.05964 5.625 2.5 6.18466 2.5 6.875V16.875C2.5 17.5653 3.05964 18.125 3.75 18.125H12.5C13.1903 18.125 13.75 17.5653 13.75 16.875V10.1822C13.9426 10.2663 14.1543 10.3125 14.375 10.3125C14.5957 10.3125 14.8074 10.2663 15 10.1822V16.875C15 18.2557 13.8807 19.375 12.5 19.375H3.75C2.36929 19.375 1.25 18.2557 1.25 16.875V6.875C1.25 5.49428 2.36929 4.375 3.75 4.375Z" fill="black"/>
<path fill-rule="evenodd" clip-rule="evenodd" d="M14.375 0.625C14.6668 0.625 14.9197 0.826897 14.9844 1.11142L15.3303 2.63217C15.4902 3.33556 16.0394 3.88481 16.7428 4.04475L18.2636 4.39056C18.5481 4.45525 18.75 4.70822 18.75 5C18.75 5.29178 18.5481 5.54475 18.2636 5.60944L16.7428 5.95525C16.0394 6.11519 15.4902 6.66444 15.3303 7.36784L14.9844 8.88859C14.9197 9.17309 14.6668 9.375 14.375 9.375C14.0832 9.375 13.8303 9.17309 13.7656 8.88859L13.4197 7.36784C13.2598 6.66444 12.7106 6.11519 12.0072 5.95525L10.4864 5.60944C10.2019 5.54475 10 5.29178 10 5C10 4.70822 10.2019 4.45525 10.4864 4.39056L12.0072 4.04475C12.7106 3.88481 13.2598 3.33556 13.4197 2.63217L13.7656 1.11142C13.8303 0.826897 14.0832 0.625 14.375 0.625ZM14.375 3.637C14.0758 4.22319 13.5982 4.70084 13.012 5C13.5982 5.29916 14.0758 5.77681 14.375 6.363C14.6742 5.77681 15.1518 5.29916 15.738 5C15.1518 4.70084 14.6742 4.22319 14.375 3.637Z" fill="black"/>
</svg>
