<svg width="611" height="292" viewBox="0 0 611 292" fill="none" xmlns="http://www.w3.org/2000/svg">
<path d="M-1 6C-1 2.68629 1.68629 0 5 0C8.31371 0 11 2.68629 11 6C11 9.31371 8.31371 12 5 12C1.68629 12 -1 9.31371 -1 6Z" fill="#EBF1FF"/>
<path d="M19 6C19 2.68629 21.6863 0 25 0C28.3137 0 31 2.68629 31 6C31 9.31371 28.3137 12 25 12C21.6863 12 19 9.31371 19 6Z" fill="#EBF1FF"/>
<path d="M39 6C39 2.68629 41.6863 0 45 0C48.3137 0 51 2.68629 51 6C51 9.31371 48.3137 12 45 12C41.6863 12 39 9.31371 39 6Z" fill="#EBF1FF"/>
<path d="M59 6C59 2.68629 61.6863 0 65 0C68.3137 0 71 2.68629 71 6C71 9.31371 68.3137 12 65 12C61.6863 12 59 9.31371 59 6Z" fill="#EBF1FF"/>
<path d="M79 6C79 2.68629 81.6863 0 85 0C88.3137 0 91 2.68629 91 6C91 9.31371 88.3137 12 85 12C81.6863 12 79 9.31371 79 6Z" fill="#EBF1FF"/>
<path d="M99 6C99 2.68629 101.686 0 105 0C108.314 0 111 2.68629 111 6C111 9.31371 108.314 12 105 12C101.686 12 99 9.31371 99 6Z" fill="#EBF1FF"/>
<path d="M119 6C119 2.68629 121.686 0 125 0C128.314 0 131 2.68629 131 6C131 9.31371 128.314 12 125 12C121.686 12 119 9.31371 119 6Z" fill="#EBF1FF"/>
<path d="M139 6C139 2.68629 141.686 0 145 0C148.314 0 151 2.68629 151 6C151 9.31371 148.314 12 145 12C141.686 12 139 9.31371 139 6Z" fill="#EBF1FF"/>
<path d="M159 6C159 2.68629 161.686 0 165 0C168.314 0 171 2.68629 171 6C171 9.31371 168.314 12 165 12C161.686 12 159 9.31371 159 6Z" fill="#EBF1FF"/>
<path d="M179 6C179 2.68629 181.686 0 185 0C188.314 0 191 2.68629 191 6C191 9.31371 188.314 12 185 12C181.686 12 179 9.31371 179 6Z" fill="#EBF1FF"/>
<path d="M199 6C199 2.68629 201.686 0 205 0C208.314 0 211 2.68629 211 6C211 9.31371 208.314 12 205 12C201.686 12 199 9.31371 199 6Z" fill="#EBF1FF"/>
<path d="M219 6C219 2.68629 221.686 0 225 0C228.314 0 231 2.68629 231 6C231 9.31371 228.314 12 225 12C221.686 12 219 9.31371 219 6Z" fill="#EBF1FF"/>
<path d="M239 6C239 2.68629 241.686 0 245 0C248.314 0 251 2.68629 251 6C251 9.31371 248.314 12 245 12C241.686 12 239 9.31371 239 6Z" fill="#EBF1FF"/>
<path d="M259 6C259 2.68629 261.686 0 265 0C268.314 0 271 2.68629 271 6C271 9.31371 268.314 12 265 12C261.686 12 259 9.31371 259 6Z" fill="#EBF1FF"/>
<path d="M279 6C279 2.68629 281.686 0 285 0C288.314 0 291 2.68629 291 6C291 9.31371 288.314 12 285 12C281.686 12 279 9.31371 279 6Z" fill="#EBF1FF"/>
<path d="M299 6C299 2.68629 301.686 0 305 0C308.314 0 311 2.68629 311 6C311 9.31371 308.314 12 305 12C301.686 12 299 9.31371 299 6Z" fill="#EBF1FF"/>
<path d="M-1 26C-1 22.6863 1.68629 20 5 20C8.31371 20 11 22.6863 11 26C11 29.3137 8.31371 32 5 32C1.68629 32 -1 29.3137 -1 26Z" fill="#EBF1FF"/>
<path d="M19 26C19 22.6863 21.6863 20 25 20C28.3137 20 31 22.6863 31 26C31 29.3137 28.3137 32 25 32C21.6863 32 19 29.3137 19 26Z" fill="#EBF1FF"/>
<path d="M39 26C39 22.6863 41.6863 20 45 20C48.3137 20 51 22.6863 51 26C51 29.3137 48.3137 32 45 32C41.6863 32 39 29.3137 39 26Z" fill="#EBF1FF"/>
<path d="M59 26C59 22.6863 61.6863 20 65 20C68.3137 20 71 22.6863 71 26C71 29.3137 68.3137 32 65 32C61.6863 32 59 29.3137 59 26Z" fill="#EBF1FF"/>
<path d="M79 26C79 22.6863 81.6863 20 85 20C88.3137 20 91 22.6863 91 26C91 29.3137 88.3137 32 85 32C81.6863 32 79 29.3137 79 26Z" fill="#EBF1FF"/>
<path d="M99 26C99 22.6863 101.686 20 105 20C108.314 20 111 22.6863 111 26C111 29.3137 108.314 32 105 32C101.686 32 99 29.3137 99 26Z" fill="#EBF1FF"/>
<path d="M119 26C119 22.6863 121.686 20 125 20C128.314 20 131 22.6863 131 26C131 29.3137 128.314 32 125 32C121.686 32 119 29.3137 119 26Z" fill="#EBF1FF"/>
<path d="M139 26C139 22.6863 141.686 20 145 20C148.314 20 151 22.6863 151 26C151 29.3137 148.314 32 145 32C141.686 32 139 29.3137 139 26Z" fill="#EBF1FF"/>
<path d="M159 26C159 22.6863 161.686 20 165 20C168.314 20 171 22.6863 171 26C171 29.3137 168.314 32 165 32C161.686 32 159 29.3137 159 26Z" fill="#EBF1FF"/>
<path d="M179 26C179 22.6863 181.686 20 185 20C188.314 20 191 22.6863 191 26C191 29.3137 188.314 32 185 32C181.686 32 179 29.3137 179 26Z" fill="#EBF1FF"/>
<path d="M199 26C199 22.6863 201.686 20 205 20C208.314 20 211 22.6863 211 26C211 29.3137 208.314 32 205 32C201.686 32 199 29.3137 199 26Z" fill="#EBF1FF"/>
<path d="M219 26C219 22.6863 221.686 20 225 20C228.314 20 231 22.6863 231 26C231 29.3137 228.314 32 225 32C221.686 32 219 29.3137 219 26Z" fill="#EBF1FF"/>
<path d="M239 26C239 22.6863 241.686 20 245 20C248.314 20 251 22.6863 251 26C251 29.3137 248.314 32 245 32C241.686 32 239 29.3137 239 26Z" fill="#EBF1FF"/>
<path d="M259 26C259 22.6863 261.686 20 265 20C268.314 20 271 22.6863 271 26C271 29.3137 268.314 32 265 32C261.686 32 259 29.3137 259 26Z" fill="#EBF1FF"/>
<path d="M279 26C279 22.6863 281.686 20 285 20C288.314 20 291 22.6863 291 26C291 29.3137 288.314 32 285 32C281.686 32 279 29.3137 279 26Z" fill="#EBF1FF"/>
<path d="M299 26C299 22.6863 301.686 20 305 20C308.314 20 311 22.6863 311 26C311 29.3137 308.314 32 305 32C301.686 32 299 29.3137 299 26Z" fill="#EBF1FF"/>
<path d="M-1 46C-1 42.6863 1.68629 40 5 40C8.31371 40 11 42.6863 11 46C11 49.3137 8.31371 52 5 52C1.68629 52 -1 49.3137 -1 46Z" fill="#EBF1FF"/>
<path d="M19 46C19 42.6863 21.6863 40 25 40C28.3137 40 31 42.6863 31 46C31 49.3137 28.3137 52 25 52C21.6863 52 19 49.3137 19 46Z" fill="#EBF1FF"/>
<path d="M39 46C39 42.6863 41.6863 40 45 40C48.3137 40 51 42.6863 51 46C51 49.3137 48.3137 52 45 52C41.6863 52 39 49.3137 39 46Z" fill="#EBF1FF"/>
<path d="M59 46C59 42.6863 61.6863 40 65 40C68.3137 40 71 42.6863 71 46C71 49.3137 68.3137 52 65 52C61.6863 52 59 49.3137 59 46Z" fill="#EBF1FF"/>
<path d="M79 46C79 42.6863 81.6863 40 85 40C88.3137 40 91 42.6863 91 46C91 49.3137 88.3137 52 85 52C81.6863 52 79 49.3137 79 46Z" fill="#EBF1FF"/>
<path d="M99 46C99 42.6863 101.686 40 105 40C108.314 40 111 42.6863 111 46C111 49.3137 108.314 52 105 52C101.686 52 99 49.3137 99 46Z" fill="#EBF1FF"/>
<path d="M119 46C119 42.6863 121.686 40 125 40C128.314 40 131 42.6863 131 46C131 49.3137 128.314 52 125 52C121.686 52 119 49.3137 119 46Z" fill="#EBF1FF"/>
<path d="M139 46C139 42.6863 141.686 40 145 40C148.314 40 151 42.6863 151 46C151 49.3137 148.314 52 145 52C141.686 52 139 49.3137 139 46Z" fill="#EBF1FF"/>
<path d="M159 46C159 42.6863 161.686 40 165 40C168.314 40 171 42.6863 171 46C171 49.3137 168.314 52 165 52C161.686 52 159 49.3137 159 46Z" fill="#EBF1FF"/>
<path d="M179 46C179 42.6863 181.686 40 185 40C188.314 40 191 42.6863 191 46C191 49.3137 188.314 52 185 52C181.686 52 179 49.3137 179 46Z" fill="#EBF1FF"/>
<path d="M199 46C199 42.6863 201.686 40 205 40C208.314 40 211 42.6863 211 46C211 49.3137 208.314 52 205 52C201.686 52 199 49.3137 199 46Z" fill="#EBF1FF"/>
<path d="M219 46C219 42.6863 221.686 40 225 40C228.314 40 231 42.6863 231 46C231 49.3137 228.314 52 225 52C221.686 52 219 49.3137 219 46Z" fill="#EBF1FF"/>
<path d="M239 46C239 42.6863 241.686 40 245 40C248.314 40 251 42.6863 251 46C251 49.3137 248.314 52 245 52C241.686 52 239 49.3137 239 46Z" fill="#EBF1FF"/>
<path d="M259 46C259 42.6863 261.686 40 265 40C268.314 40 271 42.6863 271 46C271 49.3137 268.314 52 265 52C261.686 52 259 49.3137 259 46Z" fill="#EBF1FF"/>
<path d="M279 46C279 42.6863 281.686 40 285 40C288.314 40 291 42.6863 291 46C291 49.3137 288.314 52 285 52C281.686 52 279 49.3137 279 46Z" fill="#EBF1FF"/>
<path d="M299 46C299 42.6863 301.686 40 305 40C308.314 40 311 42.6863 311 46C311 49.3137 308.314 52 305 52C301.686 52 299 49.3137 299 46Z" fill="#EBF1FF"/>
<path d="M-1 66C-1 62.6863 1.68629 60 5 60C8.31371 60 11 62.6863 11 66C11 69.3137 8.31371 72 5 72C1.68629 72 -1 69.3137 -1 66Z" fill="#EBF1FF"/>
<path d="M19 66C19 62.6863 21.6863 60 25 60C28.3137 60 31 62.6863 31 66C31 69.3137 28.3137 72 25 72C21.6863 72 19 69.3137 19 66Z" fill="#EBF1FF"/>
<path d="M39 66C39 62.6863 41.6863 60 45 60C48.3137 60 51 62.6863 51 66C51 69.3137 48.3137 72 45 72C41.6863 72 39 69.3137 39 66Z" fill="#EBF1FF"/>
<path d="M59 66C59 62.6863 61.6863 60 65 60C68.3137 60 71 62.6863 71 66C71 69.3137 68.3137 72 65 72C61.6863 72 59 69.3137 59 66Z" fill="#EBF1FF"/>
<path d="M79 66C79 62.6863 81.6863 60 85 60C88.3137 60 91 62.6863 91 66C91 69.3137 88.3137 72 85 72C81.6863 72 79 69.3137 79 66Z" fill="#EBF1FF"/>
<path d="M99 66C99 62.6863 101.686 60 105 60C108.314 60 111 62.6863 111 66C111 69.3137 108.314 72 105 72C101.686 72 99 69.3137 99 66Z" fill="#EBF1FF"/>
<path d="M119 66C119 62.6863 121.686 60 125 60C128.314 60 131 62.6863 131 66C131 69.3137 128.314 72 125 72C121.686 72 119 69.3137 119 66Z" fill="#EBF1FF"/>
<path d="M139 66C139 62.6863 141.686 60 145 60C148.314 60 151 62.6863 151 66C151 69.3137 148.314 72 145 72C141.686 72 139 69.3137 139 66Z" fill="#EBF1FF"/>
<path d="M159 66C159 62.6863 161.686 60 165 60C168.314 60 171 62.6863 171 66C171 69.3137 168.314 72 165 72C161.686 72 159 69.3137 159 66Z" fill="#EBF1FF"/>
<path d="M179 66C179 62.6863 181.686 60 185 60C188.314 60 191 62.6863 191 66C191 69.3137 188.314 72 185 72C181.686 72 179 69.3137 179 66Z" fill="#EBF1FF"/>
<path d="M199 66C199 62.6863 201.686 60 205 60C208.314 60 211 62.6863 211 66C211 69.3137 208.314 72 205 72C201.686 72 199 69.3137 199 66Z" fill="#EBF1FF"/>
<path d="M219 66C219 62.6863 221.686 60 225 60C228.314 60 231 62.6863 231 66C231 69.3137 228.314 72 225 72C221.686 72 219 69.3137 219 66Z" fill="#EBF1FF"/>
<path d="M239 66C239 62.6863 241.686 60 245 60C248.314 60 251 62.6863 251 66C251 69.3137 248.314 72 245 72C241.686 72 239 69.3137 239 66Z" fill="#EBF1FF"/>
<path d="M259 66C259 62.6863 261.686 60 265 60C268.314 60 271 62.6863 271 66C271 69.3137 268.314 72 265 72C261.686 72 259 69.3137 259 66Z" fill="#EBF1FF"/>
<path d="M279 66C279 62.6863 281.686 60 285 60C288.314 60 291 62.6863 291 66C291 69.3137 288.314 72 285 72C281.686 72 279 69.3137 279 66Z" fill="#EBF1FF"/>
<path d="M299 66C299 62.6863 301.686 60 305 60C308.314 60 311 62.6863 311 66C311 69.3137 308.314 72 305 72C301.686 72 299 69.3137 299 66Z" fill="#EBF1FF"/>
<path d="M-1 86C-1 82.6863 1.68629 80 5 80C8.31371 80 11 82.6863 11 86C11 89.3137 8.31371 92 5 92C1.68629 92 -1 89.3137 -1 86Z" fill="#EBF1FF"/>
<path d="M19 86C19 82.6863 21.6863 80 25 80C28.3137 80 31 82.6863 31 86C31 89.3137 28.3137 92 25 92C21.6863 92 19 89.3137 19 86Z" fill="#EBF1FF"/>
<path d="M39 86C39 82.6863 41.6863 80 45 80C48.3137 80 51 82.6863 51 86C51 89.3137 48.3137 92 45 92C41.6863 92 39 89.3137 39 86Z" fill="#EBF1FF"/>
<path d="M59 86C59 82.6863 61.6863 80 65 80C68.3137 80 71 82.6863 71 86C71 89.3137 68.3137 92 65 92C61.6863 92 59 89.3137 59 86Z" fill="#EBF1FF"/>
<path d="M79 86C79 82.6863 81.6863 80 85 80C88.3137 80 91 82.6863 91 86C91 89.3137 88.3137 92 85 92C81.6863 92 79 89.3137 79 86Z" fill="#EBF1FF"/>
<path d="M99 86C99 82.6863 101.686 80 105 80C108.314 80 111 82.6863 111 86C111 89.3137 108.314 92 105 92C101.686 92 99 89.3137 99 86Z" fill="#EBF1FF"/>
<path d="M119 86C119 82.6863 121.686 80 125 80C128.314 80 131 82.6863 131 86C131 89.3137 128.314 92 125 92C121.686 92 119 89.3137 119 86Z" fill="#EBF1FF"/>
<path d="M139 86C139 82.6863 141.686 80 145 80C148.314 80 151 82.6863 151 86C151 89.3137 148.314 92 145 92C141.686 92 139 89.3137 139 86Z" fill="#EBF1FF"/>
<path d="M159 86C159 82.6863 161.686 80 165 80C168.314 80 171 82.6863 171 86C171 89.3137 168.314 92 165 92C161.686 92 159 89.3137 159 86Z" fill="#EBF1FF"/>
<path d="M179 86C179 82.6863 181.686 80 185 80C188.314 80 191 82.6863 191 86C191 89.3137 188.314 92 185 92C181.686 92 179 89.3137 179 86Z" fill="#EBF1FF"/>
<path d="M199 86C199 82.6863 201.686 80 205 80C208.314 80 211 82.6863 211 86C211 89.3137 208.314 92 205 92C201.686 92 199 89.3137 199 86Z" fill="#EBF1FF"/>
<path d="M219 86C219 82.6863 221.686 80 225 80C228.314 80 231 82.6863 231 86C231 89.3137 228.314 92 225 92C221.686 92 219 89.3137 219 86Z" fill="#EBF1FF"/>
<path d="M239 86C239 82.6863 241.686 80 245 80C248.314 80 251 82.6863 251 86C251 89.3137 248.314 92 245 92C241.686 92 239 89.3137 239 86Z" fill="#EBF1FF"/>
<path d="M259 86C259 82.6863 261.686 80 265 80C268.314 80 271 82.6863 271 86C271 89.3137 268.314 92 265 92C261.686 92 259 89.3137 259 86Z" fill="#EBF1FF"/>
<path d="M279 86C279 82.6863 281.686 80 285 80C288.314 80 291 82.6863 291 86C291 89.3137 288.314 92 285 92C281.686 92 279 89.3137 279 86Z" fill="#EBF1FF"/>
<path d="M299 86C299 82.6863 301.686 80 305 80C308.314 80 311 82.6863 311 86C311 89.3137 308.314 92 305 92C301.686 92 299 89.3137 299 86Z" fill="#EBF1FF"/>
<path d="M-1 106C-1 102.686 1.68629 100 5 100C8.31371 100 11 102.686 11 106C11 109.314 8.31371 112 5 112C1.68629 112 -1 109.314 -1 106Z" fill="#EBF1FF"/>
<path d="M19 106C19 102.686 21.6863 100 25 100C28.3137 100 31 102.686 31 106C31 109.314 28.3137 112 25 112C21.6863 112 19 109.314 19 106Z" fill="#EBF1FF"/>
<path d="M39 106C39 102.686 41.6863 100 45 100C48.3137 100 51 102.686 51 106C51 109.314 48.3137 112 45 112C41.6863 112 39 109.314 39 106Z" fill="#EBF1FF"/>
<path d="M59 106C59 102.686 61.6863 100 65 100C68.3137 100 71 102.686 71 106C71 109.314 68.3137 112 65 112C61.6863 112 59 109.314 59 106Z" fill="#EBF1FF"/>
<path d="M79 106C79 102.686 81.6863 100 85 100C88.3137 100 91 102.686 91 106C91 109.314 88.3137 112 85 112C81.6863 112 79 109.314 79 106Z" fill="#EBF1FF"/>
<path d="M99 106C99 102.686 101.686 100 105 100C108.314 100 111 102.686 111 106C111 109.314 108.314 112 105 112C101.686 112 99 109.314 99 106Z" fill="#EBF1FF"/>
<path d="M119 106C119 102.686 121.686 100 125 100C128.314 100 131 102.686 131 106C131 109.314 128.314 112 125 112C121.686 112 119 109.314 119 106Z" fill="#EBF1FF"/>
<path d="M139 106C139 102.686 141.686 100 145 100C148.314 100 151 102.686 151 106C151 109.314 148.314 112 145 112C141.686 112 139 109.314 139 106Z" fill="#EBF1FF"/>
<path d="M159 106C159 102.686 161.686 100 165 100C168.314 100 171 102.686 171 106C171 109.314 168.314 112 165 112C161.686 112 159 109.314 159 106Z" fill="#EBF1FF"/>
<path d="M179 106C179 102.686 181.686 100 185 100C188.314 100 191 102.686 191 106C191 109.314 188.314 112 185 112C181.686 112 179 109.314 179 106Z" fill="#EBF1FF"/>
<path d="M199 106C199 102.686 201.686 100 205 100C208.314 100 211 102.686 211 106C211 109.314 208.314 112 205 112C201.686 112 199 109.314 199 106Z" fill="#EBF1FF"/>
<path d="M219 106C219 102.686 221.686 100 225 100C228.314 100 231 102.686 231 106C231 109.314 228.314 112 225 112C221.686 112 219 109.314 219 106Z" fill="#EBF1FF"/>
<path d="M239 106C239 102.686 241.686 100 245 100C248.314 100 251 102.686 251 106C251 109.314 248.314 112 245 112C241.686 112 239 109.314 239 106Z" fill="#EBF1FF"/>
<path d="M259 106C259 102.686 261.686 100 265 100C268.314 100 271 102.686 271 106C271 109.314 268.314 112 265 112C261.686 112 259 109.314 259 106Z" fill="#EBF1FF"/>
<path d="M279 106C279 102.686 281.686 100 285 100C288.314 100 291 102.686 291 106C291 109.314 288.314 112 285 112C281.686 112 279 109.314 279 106Z" fill="#EBF1FF"/>
<path d="M299 106C299 102.686 301.686 100 305 100C308.314 100 311 102.686 311 106C311 109.314 308.314 112 305 112C301.686 112 299 109.314 299 106Z" fill="#EBF1FF"/>
<path d="M-1 126C-1 122.686 1.68629 120 5 120C8.31371 120 11 122.686 11 126C11 129.314 8.31371 132 5 132C1.68629 132 -1 129.314 -1 126Z" fill="#EBF1FF"/>
<path d="M19 126C19 122.686 21.6863 120 25 120C28.3137 120 31 122.686 31 126C31 129.314 28.3137 132 25 132C21.6863 132 19 129.314 19 126Z" fill="#EBF1FF"/>
<path d="M39 126C39 122.686 41.6863 120 45 120C48.3137 120 51 122.686 51 126C51 129.314 48.3137 132 45 132C41.6863 132 39 129.314 39 126Z" fill="#EBF1FF"/>
<path d="M59 126C59 122.686 61.6863 120 65 120C68.3137 120 71 122.686 71 126C71 129.314 68.3137 132 65 132C61.6863 132 59 129.314 59 126Z" fill="#EBF1FF"/>
<path d="M79 126C79 122.686 81.6863 120 85 120C88.3137 120 91 122.686 91 126C91 129.314 88.3137 132 85 132C81.6863 132 79 129.314 79 126Z" fill="#EBF1FF"/>
<path d="M99 126C99 122.686 101.686 120 105 120C108.314 120 111 122.686 111 126C111 129.314 108.314 132 105 132C101.686 132 99 129.314 99 126Z" fill="#EBF1FF"/>
<path d="M119 126C119 122.686 121.686 120 125 120C128.314 120 131 122.686 131 126C131 129.314 128.314 132 125 132C121.686 132 119 129.314 119 126Z" fill="#EBF1FF"/>
<path d="M139 126C139 122.686 141.686 120 145 120C148.314 120 151 122.686 151 126C151 129.314 148.314 132 145 132C141.686 132 139 129.314 139 126Z" fill="#EBF1FF"/>
<path d="M159 126C159 122.686 161.686 120 165 120C168.314 120 171 122.686 171 126C171 129.314 168.314 132 165 132C161.686 132 159 129.314 159 126Z" fill="#EBF1FF"/>
<path d="M179 126C179 122.686 181.686 120 185 120C188.314 120 191 122.686 191 126C191 129.314 188.314 132 185 132C181.686 132 179 129.314 179 126Z" fill="#EBF1FF"/>
<path d="M199 126C199 122.686 201.686 120 205 120C208.314 120 211 122.686 211 126C211 129.314 208.314 132 205 132C201.686 132 199 129.314 199 126Z" fill="#EBF1FF"/>
<path d="M219 126C219 122.686 221.686 120 225 120C228.314 120 231 122.686 231 126C231 129.314 228.314 132 225 132C221.686 132 219 129.314 219 126Z" fill="#EBF1FF"/>
<path d="M239 126C239 122.686 241.686 120 245 120C248.314 120 251 122.686 251 126C251 129.314 248.314 132 245 132C241.686 132 239 129.314 239 126Z" fill="#EBF1FF"/>
<path d="M259 126C259 122.686 261.686 120 265 120C268.314 120 271 122.686 271 126C271 129.314 268.314 132 265 132C261.686 132 259 129.314 259 126Z" fill="#EBF1FF"/>
<path d="M279 126C279 122.686 281.686 120 285 120C288.314 120 291 122.686 291 126C291 129.314 288.314 132 285 132C281.686 132 279 129.314 279 126Z" fill="#EBF1FF"/>
<path d="M299 126C299 122.686 301.686 120 305 120C308.314 120 311 122.686 311 126C311 129.314 308.314 132 305 132C301.686 132 299 129.314 299 126Z" fill="#EBF1FF"/>
<path d="M-1 146C-1 142.686 1.68629 140 5 140C8.31371 140 11 142.686 11 146C11 149.314 8.31371 152 5 152C1.68629 152 -1 149.314 -1 146Z" fill="#EBF1FF"/>
<path d="M19 146C19 142.686 21.6863 140 25 140C28.3137 140 31 142.686 31 146C31 149.314 28.3137 152 25 152C21.6863 152 19 149.314 19 146Z" fill="#EBF1FF"/>
<path d="M39 146C39 142.686 41.6863 140 45 140C48.3137 140 51 142.686 51 146C51 149.314 48.3137 152 45 152C41.6863 152 39 149.314 39 146Z" fill="#EBF1FF"/>
<path d="M59 146C59 142.686 61.6863 140 65 140C68.3137 140 71 142.686 71 146C71 149.314 68.3137 152 65 152C61.6863 152 59 149.314 59 146Z" fill="#EBF1FF"/>
<path d="M79 146C79 142.686 81.6863 140 85 140C88.3137 140 91 142.686 91 146C91 149.314 88.3137 152 85 152C81.6863 152 79 149.314 79 146Z" fill="#EBF1FF"/>
<path d="M99 146C99 142.686 101.686 140 105 140C108.314 140 111 142.686 111 146C111 149.314 108.314 152 105 152C101.686 152 99 149.314 99 146Z" fill="#EBF1FF"/>
<path d="M119 146C119 142.686 121.686 140 125 140C128.314 140 131 142.686 131 146C131 149.314 128.314 152 125 152C121.686 152 119 149.314 119 146Z" fill="#EBF1FF"/>
<path d="M139 146C139 142.686 141.686 140 145 140C148.314 140 151 142.686 151 146C151 149.314 148.314 152 145 152C141.686 152 139 149.314 139 146Z" fill="#EBF1FF"/>
<path d="M159 146C159 142.686 161.686 140 165 140C168.314 140 171 142.686 171 146C171 149.314 168.314 152 165 152C161.686 152 159 149.314 159 146Z" fill="#EBF1FF"/>
<path d="M179 146C179 142.686 181.686 140 185 140C188.314 140 191 142.686 191 146C191 149.314 188.314 152 185 152C181.686 152 179 149.314 179 146Z" fill="#EBF1FF"/>
<path d="M199 146C199 142.686 201.686 140 205 140C208.314 140 211 142.686 211 146C211 149.314 208.314 152 205 152C201.686 152 199 149.314 199 146Z" fill="#EBF1FF"/>
<path d="M219 146C219 142.686 221.686 140 225 140C228.314 140 231 142.686 231 146C231 149.314 228.314 152 225 152C221.686 152 219 149.314 219 146Z" fill="#EBF1FF"/>
<path d="M239 146C239 142.686 241.686 140 245 140C248.314 140 251 142.686 251 146C251 149.314 248.314 152 245 152C241.686 152 239 149.314 239 146Z" fill="#EBF1FF"/>
<path d="M259 146C259 142.686 261.686 140 265 140C268.314 140 271 142.686 271 146C271 149.314 268.314 152 265 152C261.686 152 259 149.314 259 146Z" fill="#EBF1FF"/>
<path d="M279 146C279 142.686 281.686 140 285 140C288.314 140 291 142.686 291 146C291 149.314 288.314 152 285 152C281.686 152 279 149.314 279 146Z" fill="#EBF1FF"/>
<path d="M299 146C299 142.686 301.686 140 305 140C308.314 140 311 142.686 311 146C311 149.314 308.314 152 305 152C301.686 152 299 149.314 299 146Z" fill="#EBF1FF"/>
<path d="M-1 166C-1 162.686 1.68629 160 5 160C8.31371 160 11 162.686 11 166C11 169.314 8.31371 172 5 172C1.68629 172 -1 169.314 -1 166Z" fill="#EBF1FF"/>
<path d="M19 166C19 162.686 21.6863 160 25 160C28.3137 160 31 162.686 31 166C31 169.314 28.3137 172 25 172C21.6863 172 19 169.314 19 166Z" fill="#EBF1FF"/>
<path d="M39 166C39 162.686 41.6863 160 45 160C48.3137 160 51 162.686 51 166C51 169.314 48.3137 172 45 172C41.6863 172 39 169.314 39 166Z" fill="#EBF1FF"/>
<path d="M59 166C59 162.686 61.6863 160 65 160C68.3137 160 71 162.686 71 166C71 169.314 68.3137 172 65 172C61.6863 172 59 169.314 59 166Z" fill="#EBF1FF"/>
<path d="M79 166C79 162.686 81.6863 160 85 160C88.3137 160 91 162.686 91 166C91 169.314 88.3137 172 85 172C81.6863 172 79 169.314 79 166Z" fill="#EBF1FF"/>
<path d="M99 166C99 162.686 101.686 160 105 160C108.314 160 111 162.686 111 166C111 169.314 108.314 172 105 172C101.686 172 99 169.314 99 166Z" fill="#EBF1FF"/>
<path d="M119 166C119 162.686 121.686 160 125 160C128.314 160 131 162.686 131 166C131 169.314 128.314 172 125 172C121.686 172 119 169.314 119 166Z" fill="#EBF1FF"/>
<path d="M139 166C139 162.686 141.686 160 145 160C148.314 160 151 162.686 151 166C151 169.314 148.314 172 145 172C141.686 172 139 169.314 139 166Z" fill="#EBF1FF"/>
<path d="M159 166C159 162.686 161.686 160 165 160C168.314 160 171 162.686 171 166C171 169.314 168.314 172 165 172C161.686 172 159 169.314 159 166Z" fill="#EBF1FF"/>
<path d="M179 166C179 162.686 181.686 160 185 160C188.314 160 191 162.686 191 166C191 169.314 188.314 172 185 172C181.686 172 179 169.314 179 166Z" fill="#EBF1FF"/>
<path d="M199 166C199 162.686 201.686 160 205 160C208.314 160 211 162.686 211 166C211 169.314 208.314 172 205 172C201.686 172 199 169.314 199 166Z" fill="#EBF1FF"/>
<path d="M219 166C219 162.686 221.686 160 225 160C228.314 160 231 162.686 231 166C231 169.314 228.314 172 225 172C221.686 172 219 169.314 219 166Z" fill="#EBF1FF"/>
<path d="M239 166C239 162.686 241.686 160 245 160C248.314 160 251 162.686 251 166C251 169.314 248.314 172 245 172C241.686 172 239 169.314 239 166Z" fill="#EBF1FF"/>
<path d="M259 166C259 162.686 261.686 160 265 160C268.314 160 271 162.686 271 166C271 169.314 268.314 172 265 172C261.686 172 259 169.314 259 166Z" fill="#EBF1FF"/>
<path d="M279 166C279 162.686 281.686 160 285 160C288.314 160 291 162.686 291 166C291 169.314 288.314 172 285 172C281.686 172 279 169.314 279 166Z" fill="#EBF1FF"/>
<path d="M299 166C299 162.686 301.686 160 305 160C308.314 160 311 162.686 311 166C311 169.314 308.314 172 305 172C301.686 172 299 169.314 299 166Z" fill="#EBF1FF"/>
<path d="M-1 186C-1 182.686 1.68629 180 5 180C8.31371 180 11 182.686 11 186C11 189.314 8.31371 192 5 192C1.68629 192 -1 189.314 -1 186Z" fill="#EBF1FF"/>
<path d="M19 186C19 182.686 21.6863 180 25 180C28.3137 180 31 182.686 31 186C31 189.314 28.3137 192 25 192C21.6863 192 19 189.314 19 186Z" fill="#EBF1FF"/>
<path d="M39 186C39 182.686 41.6863 180 45 180C48.3137 180 51 182.686 51 186C51 189.314 48.3137 192 45 192C41.6863 192 39 189.314 39 186Z" fill="#EBF1FF"/>
<path d="M59 186C59 182.686 61.6863 180 65 180C68.3137 180 71 182.686 71 186C71 189.314 68.3137 192 65 192C61.6863 192 59 189.314 59 186Z" fill="#EBF1FF"/>
<path d="M79 186C79 182.686 81.6863 180 85 180C88.3137 180 91 182.686 91 186C91 189.314 88.3137 192 85 192C81.6863 192 79 189.314 79 186Z" fill="#EBF1FF"/>
<path d="M99 186C99 182.686 101.686 180 105 180C108.314 180 111 182.686 111 186C111 189.314 108.314 192 105 192C101.686 192 99 189.314 99 186Z" fill="#EBF1FF"/>
<path d="M119 186C119 182.686 121.686 180 125 180C128.314 180 131 182.686 131 186C131 189.314 128.314 192 125 192C121.686 192 119 189.314 119 186Z" fill="#EBF1FF"/>
<path d="M139 186C139 182.686 141.686 180 145 180C148.314 180 151 182.686 151 186C151 189.314 148.314 192 145 192C141.686 192 139 189.314 139 186Z" fill="#EBF1FF"/>
<path d="M159 186C159 182.686 161.686 180 165 180C168.314 180 171 182.686 171 186C171 189.314 168.314 192 165 192C161.686 192 159 189.314 159 186Z" fill="#EBF1FF"/>
<path d="M179 186C179 182.686 181.686 180 185 180C188.314 180 191 182.686 191 186C191 189.314 188.314 192 185 192C181.686 192 179 189.314 179 186Z" fill="#EBF1FF"/>
<path d="M199 186C199 182.686 201.686 180 205 180C208.314 180 211 182.686 211 186C211 189.314 208.314 192 205 192C201.686 192 199 189.314 199 186Z" fill="#EBF1FF"/>
<path d="M219 186C219 182.686 221.686 180 225 180C228.314 180 231 182.686 231 186C231 189.314 228.314 192 225 192C221.686 192 219 189.314 219 186Z" fill="#EBF1FF"/>
<path d="M239 186C239 182.686 241.686 180 245 180C248.314 180 251 182.686 251 186C251 189.314 248.314 192 245 192C241.686 192 239 189.314 239 186Z" fill="#EBF1FF"/>
<path d="M259 186C259 182.686 261.686 180 265 180C268.314 180 271 182.686 271 186C271 189.314 268.314 192 265 192C261.686 192 259 189.314 259 186Z" fill="#EBF1FF"/>
<path d="M279 186C279 182.686 281.686 180 285 180C288.314 180 291 182.686 291 186C291 189.314 288.314 192 285 192C281.686 192 279 189.314 279 186Z" fill="#EBF1FF"/>
<path d="M299 186C299 182.686 301.686 180 305 180C308.314 180 311 182.686 311 186C311 189.314 308.314 192 305 192C301.686 192 299 189.314 299 186Z" fill="#EBF1FF"/>
<path d="M-1 206C-1 202.686 1.68629 200 5 200C8.31371 200 11 202.686 11 206C11 209.314 8.31371 212 5 212C1.68629 212 -1 209.314 -1 206Z" fill="#EBF1FF"/>
<path d="M19 206C19 202.686 21.6863 200 25 200C28.3137 200 31 202.686 31 206C31 209.314 28.3137 212 25 212C21.6863 212 19 209.314 19 206Z" fill="#EBF1FF"/>
<path d="M39 206C39 202.686 41.6863 200 45 200C48.3137 200 51 202.686 51 206C51 209.314 48.3137 212 45 212C41.6863 212 39 209.314 39 206Z" fill="#EBF1FF"/>
<path d="M59 206C59 202.686 61.6863 200 65 200C68.3137 200 71 202.686 71 206C71 209.314 68.3137 212 65 212C61.6863 212 59 209.314 59 206Z" fill="#EBF1FF"/>
<path d="M79 206C79 202.686 81.6863 200 85 200C88.3137 200 91 202.686 91 206C91 209.314 88.3137 212 85 212C81.6863 212 79 209.314 79 206Z" fill="#EBF1FF"/>
<path d="M99 206C99 202.686 101.686 200 105 200C108.314 200 111 202.686 111 206C111 209.314 108.314 212 105 212C101.686 212 99 209.314 99 206Z" fill="#EBF1FF"/>
<path d="M119 206C119 202.686 121.686 200 125 200C128.314 200 131 202.686 131 206C131 209.314 128.314 212 125 212C121.686 212 119 209.314 119 206Z" fill="#EBF1FF"/>
<path d="M139 206C139 202.686 141.686 200 145 200C148.314 200 151 202.686 151 206C151 209.314 148.314 212 145 212C141.686 212 139 209.314 139 206Z" fill="#EBF1FF"/>
<path d="M159 206C159 202.686 161.686 200 165 200C168.314 200 171 202.686 171 206C171 209.314 168.314 212 165 212C161.686 212 159 209.314 159 206Z" fill="#EBF1FF"/>
<path d="M179 206C179 202.686 181.686 200 185 200C188.314 200 191 202.686 191 206C191 209.314 188.314 212 185 212C181.686 212 179 209.314 179 206Z" fill="#EBF1FF"/>
<path d="M199 206C199 202.686 201.686 200 205 200C208.314 200 211 202.686 211 206C211 209.314 208.314 212 205 212C201.686 212 199 209.314 199 206Z" fill="#EBF1FF"/>
<path d="M219 206C219 202.686 221.686 200 225 200C228.314 200 231 202.686 231 206C231 209.314 228.314 212 225 212C221.686 212 219 209.314 219 206Z" fill="#EBF1FF"/>
<path d="M239 206C239 202.686 241.686 200 245 200C248.314 200 251 202.686 251 206C251 209.314 248.314 212 245 212C241.686 212 239 209.314 239 206Z" fill="#EBF1FF"/>
<path d="M259 206C259 202.686 261.686 200 265 200C268.314 200 271 202.686 271 206C271 209.314 268.314 212 265 212C261.686 212 259 209.314 259 206Z" fill="#EBF1FF"/>
<path d="M279 206C279 202.686 281.686 200 285 200C288.314 200 291 202.686 291 206C291 209.314 288.314 212 285 212C281.686 212 279 209.314 279 206Z" fill="#EBF1FF"/>
<path d="M299 206C299 202.686 301.686 200 305 200C308.314 200 311 202.686 311 206C311 209.314 308.314 212 305 212C301.686 212 299 209.314 299 206Z" fill="#EBF1FF"/>
<path d="M-1 226C-1 222.686 1.68629 220 5 220C8.31371 220 11 222.686 11 226C11 229.314 8.31371 232 5 232C1.68629 232 -1 229.314 -1 226Z" fill="#EBF1FF"/>
<path d="M19 226C19 222.686 21.6863 220 25 220C28.3137 220 31 222.686 31 226C31 229.314 28.3137 232 25 232C21.6863 232 19 229.314 19 226Z" fill="#EBF1FF"/>
<path d="M39 226C39 222.686 41.6863 220 45 220C48.3137 220 51 222.686 51 226C51 229.314 48.3137 232 45 232C41.6863 232 39 229.314 39 226Z" fill="#EBF1FF"/>
<path d="M59 226C59 222.686 61.6863 220 65 220C68.3137 220 71 222.686 71 226C71 229.314 68.3137 232 65 232C61.6863 232 59 229.314 59 226Z" fill="#EBF1FF"/>
<path d="M79 226C79 222.686 81.6863 220 85 220C88.3137 220 91 222.686 91 226C91 229.314 88.3137 232 85 232C81.6863 232 79 229.314 79 226Z" fill="#EBF1FF"/>
<path d="M99 226C99 222.686 101.686 220 105 220C108.314 220 111 222.686 111 226C111 229.314 108.314 232 105 232C101.686 232 99 229.314 99 226Z" fill="#EBF1FF"/>
<path d="M119 226C119 222.686 121.686 220 125 220C128.314 220 131 222.686 131 226C131 229.314 128.314 232 125 232C121.686 232 119 229.314 119 226Z" fill="#EBF1FF"/>
<path d="M139 226C139 222.686 141.686 220 145 220C148.314 220 151 222.686 151 226C151 229.314 148.314 232 145 232C141.686 232 139 229.314 139 226Z" fill="#EBF1FF"/>
<path d="M159 226C159 222.686 161.686 220 165 220C168.314 220 171 222.686 171 226C171 229.314 168.314 232 165 232C161.686 232 159 229.314 159 226Z" fill="#EBF1FF"/>
<path d="M179 226C179 222.686 181.686 220 185 220C188.314 220 191 222.686 191 226C191 229.314 188.314 232 185 232C181.686 232 179 229.314 179 226Z" fill="#EBF1FF"/>
<path d="M199 226C199 222.686 201.686 220 205 220C208.314 220 211 222.686 211 226C211 229.314 208.314 232 205 232C201.686 232 199 229.314 199 226Z" fill="#EBF1FF"/>
<path d="M219 226C219 222.686 221.686 220 225 220C228.314 220 231 222.686 231 226C231 229.314 228.314 232 225 232C221.686 232 219 229.314 219 226Z" fill="#EBF1FF"/>
<path d="M239 226C239 222.686 241.686 220 245 220C248.314 220 251 222.686 251 226C251 229.314 248.314 232 245 232C241.686 232 239 229.314 239 226Z" fill="#EBF1FF"/>
<path d="M259 226C259 222.686 261.686 220 265 220C268.314 220 271 222.686 271 226C271 229.314 268.314 232 265 232C261.686 232 259 229.314 259 226Z" fill="#EBF1FF"/>
<path d="M279 226C279 222.686 281.686 220 285 220C288.314 220 291 222.686 291 226C291 229.314 288.314 232 285 232C281.686 232 279 229.314 279 226Z" fill="#EBF1FF"/>
<path d="M299 226C299 222.686 301.686 220 305 220C308.314 220 311 222.686 311 226C311 229.314 308.314 232 305 232C301.686 232 299 229.314 299 226Z" fill="#EBF1FF"/>
<path d="M-1 246C-1 242.686 1.68629 240 5 240C8.31371 240 11 242.686 11 246C11 249.314 8.31371 252 5 252C1.68629 252 -1 249.314 -1 246Z" fill="#EBF1FF"/>
<path d="M19 246C19 242.686 21.6863 240 25 240C28.3137 240 31 242.686 31 246C31 249.314 28.3137 252 25 252C21.6863 252 19 249.314 19 246Z" fill="#EBF1FF"/>
<path d="M39 246C39 242.686 41.6863 240 45 240C48.3137 240 51 242.686 51 246C51 249.314 48.3137 252 45 252C41.6863 252 39 249.314 39 246Z" fill="#EBF1FF"/>
<path d="M59 246C59 242.686 61.6863 240 65 240C68.3137 240 71 242.686 71 246C71 249.314 68.3137 252 65 252C61.6863 252 59 249.314 59 246Z" fill="#EBF1FF"/>
<path d="M79 246C79 242.686 81.6863 240 85 240C88.3137 240 91 242.686 91 246C91 249.314 88.3137 252 85 252C81.6863 252 79 249.314 79 246Z" fill="#EBF1FF"/>
<path d="M99 246C99 242.686 101.686 240 105 240C108.314 240 111 242.686 111 246C111 249.314 108.314 252 105 252C101.686 252 99 249.314 99 246Z" fill="#EBF1FF"/>
<path d="M119 246C119 242.686 121.686 240 125 240C128.314 240 131 242.686 131 246C131 249.314 128.314 252 125 252C121.686 252 119 249.314 119 246Z" fill="#EBF1FF"/>
<path d="M139 246C139 242.686 141.686 240 145 240C148.314 240 151 242.686 151 246C151 249.314 148.314 252 145 252C141.686 252 139 249.314 139 246Z" fill="#EBF1FF"/>
<path d="M159 246C159 242.686 161.686 240 165 240C168.314 240 171 242.686 171 246C171 249.314 168.314 252 165 252C161.686 252 159 249.314 159 246Z" fill="#EBF1FF"/>
<path d="M179 246C179 242.686 181.686 240 185 240C188.314 240 191 242.686 191 246C191 249.314 188.314 252 185 252C181.686 252 179 249.314 179 246Z" fill="#EBF1FF"/>
<path d="M199 246C199 242.686 201.686 240 205 240C208.314 240 211 242.686 211 246C211 249.314 208.314 252 205 252C201.686 252 199 249.314 199 246Z" fill="#EBF1FF"/>
<path d="M219 246C219 242.686 221.686 240 225 240C228.314 240 231 242.686 231 246C231 249.314 228.314 252 225 252C221.686 252 219 249.314 219 246Z" fill="#EBF1FF"/>
<path d="M239 246C239 242.686 241.686 240 245 240C248.314 240 251 242.686 251 246C251 249.314 248.314 252 245 252C241.686 252 239 249.314 239 246Z" fill="#EBF1FF"/>
<path d="M259 246C259 242.686 261.686 240 265 240C268.314 240 271 242.686 271 246C271 249.314 268.314 252 265 252C261.686 252 259 249.314 259 246Z" fill="#EBF1FF"/>
<path d="M279 246C279 242.686 281.686 240 285 240C288.314 240 291 242.686 291 246C291 249.314 288.314 252 285 252C281.686 252 279 249.314 279 246Z" fill="#EBF1FF"/>
<path d="M299 246C299 242.686 301.686 240 305 240C308.314 240 311 242.686 311 246C311 249.314 308.314 252 305 252C301.686 252 299 249.314 299 246Z" fill="#EBF1FF"/>
<path d="M-1 266C-1 262.686 1.68629 260 5 260C8.31371 260 11 262.686 11 266C11 269.314 8.31371 272 5 272C1.68629 272 -1 269.314 -1 266Z" fill="#EBF1FF"/>
<path d="M19 266C19 262.686 21.6863 260 25 260C28.3137 260 31 262.686 31 266C31 269.314 28.3137 272 25 272C21.6863 272 19 269.314 19 266Z" fill="#EBF1FF"/>
<path d="M39 266C39 262.686 41.6863 260 45 260C48.3137 260 51 262.686 51 266C51 269.314 48.3137 272 45 272C41.6863 272 39 269.314 39 266Z" fill="#EBF1FF"/>
<path d="M59 266C59 262.686 61.6863 260 65 260C68.3137 260 71 262.686 71 266C71 269.314 68.3137 272 65 272C61.6863 272 59 269.314 59 266Z" fill="#EBF1FF"/>
<path d="M79 266C79 262.686 81.6863 260 85 260C88.3137 260 91 262.686 91 266C91 269.314 88.3137 272 85 272C81.6863 272 79 269.314 79 266Z" fill="#EBF1FF"/>
<path d="M99 266C99 262.686 101.686 260 105 260C108.314 260 111 262.686 111 266C111 269.314 108.314 272 105 272C101.686 272 99 269.314 99 266Z" fill="#EBF1FF"/>
<path d="M119 266C119 262.686 121.686 260 125 260C128.314 260 131 262.686 131 266C131 269.314 128.314 272 125 272C121.686 272 119 269.314 119 266Z" fill="#EBF1FF"/>
<path d="M139 266C139 262.686 141.686 260 145 260C148.314 260 151 262.686 151 266C151 269.314 148.314 272 145 272C141.686 272 139 269.314 139 266Z" fill="#EBF1FF"/>
<path d="M159 266C159 262.686 161.686 260 165 260C168.314 260 171 262.686 171 266C171 269.314 168.314 272 165 272C161.686 272 159 269.314 159 266Z" fill="#EBF1FF"/>
<path d="M179 266C179 262.686 181.686 260 185 260C188.314 260 191 262.686 191 266C191 269.314 188.314 272 185 272C181.686 272 179 269.314 179 266Z" fill="#EBF1FF"/>
<path d="M199 266C199 262.686 201.686 260 205 260C208.314 260 211 262.686 211 266C211 269.314 208.314 272 205 272C201.686 272 199 269.314 199 266Z" fill="#EBF1FF"/>
<path d="M219 266C219 262.686 221.686 260 225 260C228.314 260 231 262.686 231 266C231 269.314 228.314 272 225 272C221.686 272 219 269.314 219 266Z" fill="#EBF1FF"/>
<path d="M239 266C239 262.686 241.686 260 245 260C248.314 260 251 262.686 251 266C251 269.314 248.314 272 245 272C241.686 272 239 269.314 239 266Z" fill="#EBF1FF"/>
<path d="M259 266C259 262.686 261.686 260 265 260C268.314 260 271 262.686 271 266C271 269.314 268.314 272 265 272C261.686 272 259 269.314 259 266Z" fill="#EBF1FF"/>
<path d="M279 266C279 262.686 281.686 260 285 260C288.314 260 291 262.686 291 266C291 269.314 288.314 272 285 272C281.686 272 279 269.314 279 266Z" fill="#EBF1FF"/>
<path d="M299 266C299 262.686 301.686 260 305 260C308.314 260 311 262.686 311 266C311 269.314 308.314 272 305 272C301.686 272 299 269.314 299 266Z" fill="#EBF1FF"/>
<path d="M-1 286C-1 282.686 1.68629 280 5 280C8.31371 280 11 282.686 11 286C11 289.314 8.31371 292 5 292C1.68629 292 -1 289.314 -1 286Z" fill="#EBF1FF"/>
<path d="M19 286C19 282.686 21.6863 280 25 280C28.3137 280 31 282.686 31 286C31 289.314 28.3137 292 25 292C21.6863 292 19 289.314 19 286Z" fill="#EBF1FF"/>
<path d="M39 286C39 282.686 41.6863 280 45 280C48.3137 280 51 282.686 51 286C51 289.314 48.3137 292 45 292C41.6863 292 39 289.314 39 286Z" fill="#EBF1FF"/>
<path d="M59 286C59 282.686 61.6863 280 65 280C68.3137 280 71 282.686 71 286C71 289.314 68.3137 292 65 292C61.6863 292 59 289.314 59 286Z" fill="#EBF1FF"/>
<path d="M79 286C79 282.686 81.6863 280 85 280C88.3137 280 91 282.686 91 286C91 289.314 88.3137 292 85 292C81.6863 292 79 289.314 79 286Z" fill="#EBF1FF"/>
<path d="M99 286C99 282.686 101.686 280 105 280C108.314 280 111 282.686 111 286C111 289.314 108.314 292 105 292C101.686 292 99 289.314 99 286Z" fill="#EBF1FF"/>
<path d="M119 286C119 282.686 121.686 280 125 280C128.314 280 131 282.686 131 286C131 289.314 128.314 292 125 292C121.686 292 119 289.314 119 286Z" fill="#EBF1FF"/>
<path d="M139 286C139 282.686 141.686 280 145 280C148.314 280 151 282.686 151 286C151 289.314 148.314 292 145 292C141.686 292 139 289.314 139 286Z" fill="#EBF1FF"/>
<path d="M159 286C159 282.686 161.686 280 165 280C168.314 280 171 282.686 171 286C171 289.314 168.314 292 165 292C161.686 292 159 289.314 159 286Z" fill="#EBF1FF"/>
<path d="M179 286C179 282.686 181.686 280 185 280C188.314 280 191 282.686 191 286C191 289.314 188.314 292 185 292C181.686 292 179 289.314 179 286Z" fill="#EBF1FF"/>
<path d="M199 286C199 282.686 201.686 280 205 280C208.314 280 211 282.686 211 286C211 289.314 208.314 292 205 292C201.686 292 199 289.314 199 286Z" fill="#EBF1FF"/>
<path d="M219 286C219 282.686 221.686 280 225 280C228.314 280 231 282.686 231 286C231 289.314 228.314 292 225 292C221.686 292 219 289.314 219 286Z" fill="#EBF1FF"/>
<path d="M239 286C239 282.686 241.686 280 245 280C248.314 280 251 282.686 251 286C251 289.314 248.314 292 245 292C241.686 292 239 289.314 239 286Z" fill="#EBF1FF"/>
<path d="M259 286C259 282.686 261.686 280 265 280C268.314 280 271 282.686 271 286C271 289.314 268.314 292 265 292C261.686 292 259 289.314 259 286Z" fill="#EBF1FF"/>
<path d="M279 286C279 282.686 281.686 280 285 280C288.314 280 291 282.686 291 286C291 289.314 288.314 292 285 292C281.686 292 279 289.314 279 286Z" fill="#EBF1FF"/>
<path d="M299 286C299 282.686 301.686 280 305 280C308.314 280 311 282.686 311 286C311 289.314 308.314 292 305 292C301.686 292 299 289.314 299 286Z" fill="#EBF1FF"/>
<path d="M5 292C1.68629 292 -1 289.314 -1 286C-1 282.686 1.68629 280 5 280C8.31371 280 11 282.686 11 286C11 289.314 8.31371 292 5 292Z" fill="#DCE2FF"/>
<path d="M5 272C1.68629 272 -1 269.314 -1 266C-1 262.686 1.68629 260 5 260C8.31371 260 11 262.686 11 266C11 269.314 8.31371 272 5 272Z" fill="#DCE2FF"/>
<path d="M5 252C1.68629 252 -1 249.314 -1 246C-1 242.686 1.68629 240 5 240C8.31371 240 11 242.686 11 246C11 249.314 8.31371 252 5 252Z" fill="#DCE2FF"/>
<path d="M5 232C1.68629 232 -1 229.314 -1 226C-1 222.686 1.68629 220 5 220C8.31371 220 11 222.686 11 226C11 229.314 8.31371 232 5 232Z" fill="#DCE2FF"/>
<path d="M5 212C1.68629 212 -1 209.314 -1 206C-1 202.686 1.68629 200 5 200C8.31371 200 11 202.686 11 206C11 209.314 8.31371 212 5 212Z" fill="#DCE2FF"/>
<path d="M5 192C1.68629 192 -1 189.314 -1 186C-1 182.686 1.68629 180 5 180C8.31371 180 11 182.686 11 186C11 189.314 8.31371 192 5 192Z" fill="#DCE2FF"/>
<path d="M5 172C1.68629 172 -1 169.314 -1 166C-1 162.686 1.68629 160 5 160C8.31371 160 11 162.686 11 166C11 169.314 8.31371 172 5 172Z" fill="#DCE2FF"/>
<path d="M5 152C1.68629 152 -1 149.314 -1 146C-1 142.686 1.68629 140 5 140C8.31371 140 11 142.686 11 146C11 149.314 8.31371 152 5 152Z" fill="#DCE2FF"/>
<path d="M25 292C21.6863 292 19 289.314 19 286C19 282.686 21.6863 280 25 280C28.3137 280 31 282.686 31 286C31 289.314 28.3137 292 25 292Z" fill="#DCE2FF"/>
<path d="M25 272C21.6863 272 19 269.314 19 266C19 262.686 21.6863 260 25 260C28.3137 260 31 262.686 31 266C31 269.314 28.3137 272 25 272Z" fill="#DCE2FF"/>
<path d="M25 252C21.6863 252 19 249.314 19 246C19 242.686 21.6863 240 25 240C28.3137 240 31 242.686 31 246C31 249.314 28.3137 252 25 252Z" fill="#DCE2FF"/>
<path d="M25 232C21.6863 232 19 229.314 19 226C19 222.686 21.6863 220 25 220C28.3137 220 31 222.686 31 226C31 229.314 28.3137 232 25 232Z" fill="#DCE2FF"/>
<path d="M25 212C21.6863 212 19 209.314 19 206C19 202.686 21.6863 200 25 200C28.3137 200 31 202.686 31 206C31 209.314 28.3137 212 25 212Z" fill="#DCE2FF"/>
<path d="M25 192C21.6863 192 19 189.314 19 186C19 182.686 21.6863 180 25 180C28.3137 180 31 182.686 31 186C31 189.314 28.3137 192 25 192Z" fill="#DCE2FF"/>
<path d="M25 172C21.6863 172 19 169.314 19 166C19 162.686 21.6863 160 25 160C28.3137 160 31 162.686 31 166C31 169.314 28.3137 172 25 172Z" fill="#DCE2FF"/>
<path d="M25 152C21.6863 152 19 149.314 19 146C19 142.686 21.6863 140 25 140C28.3137 140 31 142.686 31 146C31 149.314 28.3137 152 25 152Z" fill="#DCE2FF"/>
<path d="M45 292C41.6863 292 39 289.314 39 286C39 282.686 41.6863 280 45 280C48.3137 280 51 282.686 51 286C51 289.314 48.3137 292 45 292Z" fill="#DCE2FF"/>
<path d="M45 272C41.6863 272 39 269.314 39 266C39 262.686 41.6863 260 45 260C48.3137 260 51 262.686 51 266C51 269.314 48.3137 272 45 272Z" fill="#DCE2FF"/>
<path d="M45 252C41.6863 252 39 249.314 39 246C39 242.686 41.6863 240 45 240C48.3137 240 51 242.686 51 246C51 249.314 48.3137 252 45 252Z" fill="#DCE2FF"/>
<path d="M45 232C41.6863 232 39 229.314 39 226C39 222.686 41.6863 220 45 220C48.3137 220 51 222.686 51 226C51 229.314 48.3137 232 45 232Z" fill="#DCE2FF"/>
<path d="M45 212C41.6863 212 39 209.314 39 206C39 202.686 41.6863 200 45 200C48.3137 200 51 202.686 51 206C51 209.314 48.3137 212 45 212Z" fill="#DCE2FF"/>
<path d="M45 192C41.6863 192 39 189.314 39 186C39 182.686 41.6863 180 45 180C48.3137 180 51 182.686 51 186C51 189.314 48.3137 192 45 192Z" fill="#DCE2FF"/>
<path d="M45 172C41.6863 172 39 169.314 39 166C39 162.686 41.6863 160 45 160C48.3137 160 51 162.686 51 166C51 169.314 48.3137 172 45 172Z" fill="#DCE2FF"/>
<path d="M45 152C41.6863 152 39 149.314 39 146C39 142.686 41.6863 140 45 140C48.3137 140 51 142.686 51 146C51 149.314 48.3137 152 45 152Z" fill="#DCE2FF"/>
<path d="M65 292C61.6863 292 59 289.314 59 286C59 282.686 61.6863 280 65 280C68.3137 280 71 282.686 71 286C71 289.314 68.3137 292 65 292Z" fill="#DCE2FF"/>
<path d="M65 272C61.6863 272 59 269.314 59 266C59 262.686 61.6863 260 65 260C68.3137 260 71 262.686 71 266C71 269.314 68.3137 272 65 272Z" fill="#DCE2FF"/>
<path d="M65 252C61.6863 252 59 249.314 59 246C59 242.686 61.6863 240 65 240C68.3137 240 71 242.686 71 246C71 249.314 68.3137 252 65 252Z" fill="#DCE2FF"/>
<path d="M65 232C61.6863 232 59 229.314 59 226C59 222.686 61.6863 220 65 220C68.3137 220 71 222.686 71 226C71 229.314 68.3137 232 65 232Z" fill="#DCE2FF"/>
<path d="M65 212C61.6863 212 59 209.314 59 206C59 202.686 61.6863 200 65 200C68.3137 200 71 202.686 71 206C71 209.314 68.3137 212 65 212Z" fill="#DCE2FF"/>
<path d="M65 192C61.6863 192 59 189.314 59 186C59 182.686 61.6863 180 65 180C68.3137 180 71 182.686 71 186C71 189.314 68.3137 192 65 192Z" fill="#DCE2FF"/>
<path d="M65 172C61.6863 172 59 169.314 59 166C59 162.686 61.6863 160 65 160C68.3137 160 71 162.686 71 166C71 169.314 68.3137 172 65 172Z" fill="#DCE2FF"/>
<path d="M65 152C61.6863 152 59 149.314 59 146C59 142.686 61.6863 140 65 140C68.3137 140 71 142.686 71 146C71 149.314 68.3137 152 65 152Z" fill="#DCE2FF"/>
<path d="M85 292C81.6863 292 79 289.314 79 286C79 282.686 81.6863 280 85 280C88.3137 280 91 282.686 91 286C91 289.314 88.3137 292 85 292Z" fill="#DCE2FF"/>
<path d="M85 272C81.6863 272 79 269.314 79 266C79 262.686 81.6863 260 85 260C88.3137 260 91 262.686 91 266C91 269.314 88.3137 272 85 272Z" fill="#DCE2FF"/>
<path d="M85 252C81.6863 252 79 249.314 79 246C79 242.686 81.6863 240 85 240C88.3137 240 91 242.686 91 246C91 249.314 88.3137 252 85 252Z" fill="#DCE2FF"/>
<path d="M85 232C81.6863 232 79 229.314 79 226C79 222.686 81.6863 220 85 220C88.3137 220 91 222.686 91 226C91 229.314 88.3137 232 85 232Z" fill="#DCE2FF"/>
<path d="M85 212C81.6863 212 79 209.314 79 206C79 202.686 81.6863 200 85 200C88.3137 200 91 202.686 91 206C91 209.314 88.3137 212 85 212Z" fill="#DCE2FF"/>
<path d="M85 192C81.6863 192 79 189.314 79 186C79 182.686 81.6863 180 85 180C88.3137 180 91 182.686 91 186C91 189.314 88.3137 192 85 192Z" fill="#DCE2FF"/>
<path d="M85 172C81.6863 172 79 169.314 79 166C79 162.686 81.6863 160 85 160C88.3137 160 91 162.686 91 166C91 169.314 88.3137 172 85 172Z" fill="#DCE2FF"/>
<path d="M85 152C81.6863 152 79 149.314 79 146C79 142.686 81.6863 140 85 140C88.3137 140 91 142.686 91 146C91 149.314 88.3137 152 85 152Z" fill="#DCE2FF"/>
<path d="M105 292C101.686 292 99 289.314 99 286C99 282.686 101.686 280 105 280C108.314 280 111 282.686 111 286C111 289.314 108.314 292 105 292Z" fill="#DCE2FF"/>
<path d="M105 272C101.686 272 99 269.314 99 266C99 262.686 101.686 260 105 260C108.314 260 111 262.686 111 266C111 269.314 108.314 272 105 272Z" fill="#DCE2FF"/>
<path d="M105 252C101.686 252 99 249.314 99 246C99 242.686 101.686 240 105 240C108.314 240 111 242.686 111 246C111 249.314 108.314 252 105 252Z" fill="#DCE2FF"/>
<path d="M105 232C101.686 232 99 229.314 99 226C99 222.686 101.686 220 105 220C108.314 220 111 222.686 111 226C111 229.314 108.314 232 105 232Z" fill="#DCE2FF"/>
<path d="M105 212C101.686 212 99 209.314 99 206C99 202.686 101.686 200 105 200C108.314 200 111 202.686 111 206C111 209.314 108.314 212 105 212Z" fill="#DCE2FF"/>
<path d="M105 192C101.686 192 99 189.314 99 186C99 182.686 101.686 180 105 180C108.314 180 111 182.686 111 186C111 189.314 108.314 192 105 192Z" fill="#DCE2FF"/>
<path d="M105 172C101.686 172 99 169.314 99 166C99 162.686 101.686 160 105 160C108.314 160 111 162.686 111 166C111 169.314 108.314 172 105 172Z" fill="#DCE2FF"/>
<path d="M105 152C101.686 152 99 149.314 99 146C99 142.686 101.686 140 105 140C108.314 140 111 142.686 111 146C111 149.314 108.314 152 105 152Z" fill="#DCE2FF"/>
<path d="M125 292C121.686 292 119 289.314 119 286C119 282.686 121.686 280 125 280C128.314 280 131 282.686 131 286C131 289.314 128.314 292 125 292Z" fill="#DCE2FF"/>
<path d="M125 272C121.686 272 119 269.314 119 266C119 262.686 121.686 260 125 260C128.314 260 131 262.686 131 266C131 269.314 128.314 272 125 272Z" fill="#DCE2FF"/>
<path d="M125 252C121.686 252 119 249.314 119 246C119 242.686 121.686 240 125 240C128.314 240 131 242.686 131 246C131 249.314 128.314 252 125 252Z" fill="#DCE2FF"/>
<path d="M125 232C121.686 232 119 229.314 119 226C119 222.686 121.686 220 125 220C128.314 220 131 222.686 131 226C131 229.314 128.314 232 125 232Z" fill="#DCE2FF"/>
<path d="M125 212C121.686 212 119 209.314 119 206C119 202.686 121.686 200 125 200C128.314 200 131 202.686 131 206C131 209.314 128.314 212 125 212Z" fill="#DCE2FF"/>
<path d="M125 192C121.686 192 119 189.314 119 186C119 182.686 121.686 180 125 180C128.314 180 131 182.686 131 186C131 189.314 128.314 192 125 192Z" fill="#DCE2FF"/>
<path d="M125 172C121.686 172 119 169.314 119 166C119 162.686 121.686 160 125 160C128.314 160 131 162.686 131 166C131 169.314 128.314 172 125 172Z" fill="#DCE2FF"/>
<path d="M125 152C121.686 152 119 149.314 119 146C119 142.686 121.686 140 125 140C128.314 140 131 142.686 131 146C131 149.314 128.314 152 125 152Z" fill="#DCE2FF"/>
<path d="M145 292C141.686 292 139 289.314 139 286C139 282.686 141.686 280 145 280C148.314 280 151 282.686 151 286C151 289.314 148.314 292 145 292Z" fill="#DCE2FF"/>
<path d="M145 272C141.686 272 139 269.314 139 266C139 262.686 141.686 260 145 260C148.314 260 151 262.686 151 266C151 269.314 148.314 272 145 272Z" fill="#DCE2FF"/>
<path d="M145 252C141.686 252 139 249.314 139 246C139 242.686 141.686 240 145 240C148.314 240 151 242.686 151 246C151 249.314 148.314 252 145 252Z" fill="#DCE2FF"/>
<path d="M145 232C141.686 232 139 229.314 139 226C139 222.686 141.686 220 145 220C148.314 220 151 222.686 151 226C151 229.314 148.314 232 145 232Z" fill="#DCE2FF"/>
<path d="M145 212C141.686 212 139 209.314 139 206C139 202.686 141.686 200 145 200C148.314 200 151 202.686 151 206C151 209.314 148.314 212 145 212Z" fill="#DCE2FF"/>
<path d="M145 192C141.686 192 139 189.314 139 186C139 182.686 141.686 180 145 180C148.314 180 151 182.686 151 186C151 189.314 148.314 192 145 192Z" fill="#DCE2FF"/>
<path d="M145 172C141.686 172 139 169.314 139 166C139 162.686 141.686 160 145 160C148.314 160 151 162.686 151 166C151 169.314 148.314 172 145 172Z" fill="#DCE2FF"/>
<path d="M145 152C141.686 152 139 149.314 139 146C139 142.686 141.686 140 145 140C148.314 140 151 142.686 151 146C151 149.314 148.314 152 145 152Z" fill="#DCE2FF"/>
<path d="M165 292C161.686 292 159 289.314 159 286C159 282.686 161.686 280 165 280C168.314 280 171 282.686 171 286C171 289.314 168.314 292 165 292Z" fill="#DCE2FF"/>
<path d="M165 272C161.686 272 159 269.314 159 266C159 262.686 161.686 260 165 260C168.314 260 171 262.686 171 266C171 269.314 168.314 272 165 272Z" fill="#DCE2FF"/>
<path d="M165 252C161.686 252 159 249.314 159 246C159 242.686 161.686 240 165 240C168.314 240 171 242.686 171 246C171 249.314 168.314 252 165 252Z" fill="#DCE2FF"/>
<path d="M165 232C161.686 232 159 229.314 159 226C159 222.686 161.686 220 165 220C168.314 220 171 222.686 171 226C171 229.314 168.314 232 165 232Z" fill="#DCE2FF"/>
<path d="M165 212C161.686 212 159 209.314 159 206C159 202.686 161.686 200 165 200C168.314 200 171 202.686 171 206C171 209.314 168.314 212 165 212Z" fill="#DCE2FF"/>
<path d="M165 192C161.686 192 159 189.314 159 186C159 182.686 161.686 180 165 180C168.314 180 171 182.686 171 186C171 189.314 168.314 192 165 192Z" fill="#DCE2FF"/>
<path d="M165 172C161.686 172 159 169.314 159 166C159 162.686 161.686 160 165 160C168.314 160 171 162.686 171 166C171 169.314 168.314 172 165 172Z" fill="#DCE2FF"/>
<path d="M165 152C161.686 152 159 149.314 159 146C159 142.686 161.686 140 165 140C168.314 140 171 142.686 171 146C171 149.314 168.314 152 165 152Z" fill="#DCE2FF"/>
<path d="M185 292C181.686 292 179 289.314 179 286C179 282.686 181.686 280 185 280C188.314 280 191 282.686 191 286C191 289.314 188.314 292 185 292Z" fill="#DCE2FF"/>
<path d="M185 272C181.686 272 179 269.314 179 266C179 262.686 181.686 260 185 260C188.314 260 191 262.686 191 266C191 269.314 188.314 272 185 272Z" fill="#DCE2FF"/>
<path d="M185 252C181.686 252 179 249.314 179 246C179 242.686 181.686 240 185 240C188.314 240 191 242.686 191 246C191 249.314 188.314 252 185 252Z" fill="#DCE2FF"/>
<path d="M185 232C181.686 232 179 229.314 179 226C179 222.686 181.686 220 185 220C188.314 220 191 222.686 191 226C191 229.314 188.314 232 185 232Z" fill="#DCE2FF"/>
<path d="M185 212C181.686 212 179 209.314 179 206C179 202.686 181.686 200 185 200C188.314 200 191 202.686 191 206C191 209.314 188.314 212 185 212Z" fill="#DCE2FF"/>
<path d="M185 192C181.686 192 179 189.314 179 186C179 182.686 181.686 180 185 180C188.314 180 191 182.686 191 186C191 189.314 188.314 192 185 192Z" fill="#DCE2FF"/>
<path d="M185 172C181.686 172 179 169.314 179 166C179 162.686 181.686 160 185 160C188.314 160 191 162.686 191 166C191 169.314 188.314 172 185 172Z" fill="#DCE2FF"/>
<path d="M185 152C181.686 152 179 149.314 179 146C179 142.686 181.686 140 185 140C188.314 140 191 142.686 191 146C191 149.314 188.314 152 185 152Z" fill="#DCE2FF"/>
<path d="M205 292C201.686 292 199 289.314 199 286C199 282.686 201.686 280 205 280C208.314 280 211 282.686 211 286C211 289.314 208.314 292 205 292Z" fill="#DCE2FF"/>
<path d="M205 272C201.686 272 199 269.314 199 266C199 262.686 201.686 260 205 260C208.314 260 211 262.686 211 266C211 269.314 208.314 272 205 272Z" fill="#DCE2FF"/>
<path d="M205 252C201.686 252 199 249.314 199 246C199 242.686 201.686 240 205 240C208.314 240 211 242.686 211 246C211 249.314 208.314 252 205 252Z" fill="#DCE2FF"/>
<path d="M205 232C201.686 232 199 229.314 199 226C199 222.686 201.686 220 205 220C208.314 220 211 222.686 211 226C211 229.314 208.314 232 205 232Z" fill="#DCE2FF"/>
<path d="M205 212C201.686 212 199 209.314 199 206C199 202.686 201.686 200 205 200C208.314 200 211 202.686 211 206C211 209.314 208.314 212 205 212Z" fill="#DCE2FF"/>
<path d="M205 192C201.686 192 199 189.314 199 186C199 182.686 201.686 180 205 180C208.314 180 211 182.686 211 186C211 189.314 208.314 192 205 192Z" fill="#DCE2FF"/>
<path d="M205 172C201.686 172 199 169.314 199 166C199 162.686 201.686 160 205 160C208.314 160 211 162.686 211 166C211 169.314 208.314 172 205 172Z" fill="#DCE2FF"/>
<path d="M205 152C201.686 152 199 149.314 199 146C199 142.686 201.686 140 205 140C208.314 140 211 142.686 211 146C211 149.314 208.314 152 205 152Z" fill="#DCE2FF"/>
<path d="M225 292C221.686 292 219 289.314 219 286C219 282.686 221.686 280 225 280C228.314 280 231 282.686 231 286C231 289.314 228.314 292 225 292Z" fill="#DCE2FF"/>
<path d="M225 272C221.686 272 219 269.314 219 266C219 262.686 221.686 260 225 260C228.314 260 231 262.686 231 266C231 269.314 228.314 272 225 272Z" fill="#DCE2FF"/>
<path d="M225 252C221.686 252 219 249.314 219 246C219 242.686 221.686 240 225 240C228.314 240 231 242.686 231 246C231 249.314 228.314 252 225 252Z" fill="#DCE2FF"/>
<path d="M225 232C221.686 232 219 229.314 219 226C219 222.686 221.686 220 225 220C228.314 220 231 222.686 231 226C231 229.314 228.314 232 225 232Z" fill="#DCE2FF"/>
<path d="M225 212C221.686 212 219 209.314 219 206C219 202.686 221.686 200 225 200C228.314 200 231 202.686 231 206C231 209.314 228.314 212 225 212Z" fill="#DCE2FF"/>
<path d="M225 192C221.686 192 219 189.314 219 186C219 182.686 221.686 180 225 180C228.314 180 231 182.686 231 186C231 189.314 228.314 192 225 192Z" fill="#DCE2FF"/>
<path d="M225 172C221.686 172 219 169.314 219 166C219 162.686 221.686 160 225 160C228.314 160 231 162.686 231 166C231 169.314 228.314 172 225 172Z" fill="#DCE2FF"/>
<path d="M225 152C221.686 152 219 149.314 219 146C219 142.686 221.686 140 225 140C228.314 140 231 142.686 231 146C231 149.314 228.314 152 225 152Z" fill="#DCE2FF"/>
<path d="M245 292C241.686 292 239 289.314 239 286C239 282.686 241.686 280 245 280C248.314 280 251 282.686 251 286C251 289.314 248.314 292 245 292Z" fill="#DCE2FF"/>
<path d="M245 272C241.686 272 239 269.314 239 266C239 262.686 241.686 260 245 260C248.314 260 251 262.686 251 266C251 269.314 248.314 272 245 272Z" fill="#DCE2FF"/>
<path d="M245 252C241.686 252 239 249.314 239 246C239 242.686 241.686 240 245 240C248.314 240 251 242.686 251 246C251 249.314 248.314 252 245 252Z" fill="#DCE2FF"/>
<path d="M245 232C241.686 232 239 229.314 239 226C239 222.686 241.686 220 245 220C248.314 220 251 222.686 251 226C251 229.314 248.314 232 245 232Z" fill="#DCE2FF"/>
<path d="M245 212C241.686 212 239 209.314 239 206C239 202.686 241.686 200 245 200C248.314 200 251 202.686 251 206C251 209.314 248.314 212 245 212Z" fill="#DCE2FF"/>
<path d="M245 192C241.686 192 239 189.314 239 186C239 182.686 241.686 180 245 180C248.314 180 251 182.686 251 186C251 189.314 248.314 192 245 192Z" fill="#DCE2FF"/>
<path d="M245 172C241.686 172 239 169.314 239 166C239 162.686 241.686 160 245 160C248.314 160 251 162.686 251 166C251 169.314 248.314 172 245 172Z" fill="#DCE2FF"/>
<path d="M245 152C241.686 152 239 149.314 239 146C239 142.686 241.686 140 245 140C248.314 140 251 142.686 251 146C251 149.314 248.314 152 245 152Z" fill="#DCE2FF"/>
<path d="M265 292C261.686 292 259 289.314 259 286C259 282.686 261.686 280 265 280C268.314 280 271 282.686 271 286C271 289.314 268.314 292 265 292Z" fill="#DCE2FF"/>
<path d="M265 272C261.686 272 259 269.314 259 266C259 262.686 261.686 260 265 260C268.314 260 271 262.686 271 266C271 269.314 268.314 272 265 272Z" fill="#DCE2FF"/>
<path d="M265 252C261.686 252 259 249.314 259 246C259 242.686 261.686 240 265 240C268.314 240 271 242.686 271 246C271 249.314 268.314 252 265 252Z" fill="#DCE2FF"/>
<path d="M265 232C261.686 232 259 229.314 259 226C259 222.686 261.686 220 265 220C268.314 220 271 222.686 271 226C271 229.314 268.314 232 265 232Z" fill="#DCE2FF"/>
<path d="M265 212C261.686 212 259 209.314 259 206C259 202.686 261.686 200 265 200C268.314 200 271 202.686 271 206C271 209.314 268.314 212 265 212Z" fill="#DCE2FF"/>
<path d="M265 192C261.686 192 259 189.314 259 186C259 182.686 261.686 180 265 180C268.314 180 271 182.686 271 186C271 189.314 268.314 192 265 192Z" fill="#DCE2FF"/>
<path d="M265 172C261.686 172 259 169.314 259 166C259 162.686 261.686 160 265 160C268.314 160 271 162.686 271 166C271 169.314 268.314 172 265 172Z" fill="#DCE2FF"/>
<path d="M265 152C261.686 152 259 149.314 259 146C259 142.686 261.686 140 265 140C268.314 140 271 142.686 271 146C271 149.314 268.314 152 265 152Z" fill="#DCE2FF"/>
<path d="M285 292C281.686 292 279 289.314 279 286C279 282.686 281.686 280 285 280C288.314 280 291 282.686 291 286C291 289.314 288.314 292 285 292Z" fill="#DCE2FF"/>
<path d="M285 272C281.686 272 279 269.314 279 266C279 262.686 281.686 260 285 260C288.314 260 291 262.686 291 266C291 269.314 288.314 272 285 272Z" fill="#DCE2FF"/>
<path d="M285 252C281.686 252 279 249.314 279 246C279 242.686 281.686 240 285 240C288.314 240 291 242.686 291 246C291 249.314 288.314 252 285 252Z" fill="#DCE2FF"/>
<path d="M285 232C281.686 232 279 229.314 279 226C279 222.686 281.686 220 285 220C288.314 220 291 222.686 291 226C291 229.314 288.314 232 285 232Z" fill="#DCE2FF"/>
<path d="M285 212C281.686 212 279 209.314 279 206C279 202.686 281.686 200 285 200C288.314 200 291 202.686 291 206C291 209.314 288.314 212 285 212Z" fill="#DCE2FF"/>
<path d="M285 192C281.686 192 279 189.314 279 186C279 182.686 281.686 180 285 180C288.314 180 291 182.686 291 186C291 189.314 288.314 192 285 192Z" fill="#DCE2FF"/>
<path d="M285 172C281.686 172 279 169.314 279 166C279 162.686 281.686 160 285 160C288.314 160 291 162.686 291 166C291 169.314 288.314 172 285 172Z" fill="#DCE2FF"/>
<path d="M285 152C281.686 152 279 149.314 279 146C279 142.686 281.686 140 285 140C288.314 140 291 142.686 291 146C291 149.314 288.314 152 285 152Z" fill="#DCE2FF"/>
<path d="M305 292C301.686 292 299 289.314 299 286C299 282.686 301.686 280 305 280C308.314 280 311 282.686 311 286C311 289.314 308.314 292 305 292Z" fill="#DCE2FF"/>
<path d="M305 272C301.686 272 299 269.314 299 266C299 262.686 301.686 260 305 260C308.314 260 311 262.686 311 266C311 269.314 308.314 272 305 272Z" fill="#DCE2FF"/>
<path d="M305 252C301.686 252 299 249.314 299 246C299 242.686 301.686 240 305 240C308.314 240 311 242.686 311 246C311 249.314 308.314 252 305 252Z" fill="#DCE2FF"/>
<path d="M305 232C301.686 232 299 229.314 299 226C299 222.686 301.686 220 305 220C308.314 220 311 222.686 311 226C311 229.314 308.314 232 305 232Z" fill="#DCE2FF"/>
<path d="M305 212C301.686 212 299 209.314 299 206C299 202.686 301.686 200 305 200C308.314 200 311 202.686 311 206C311 209.314 308.314 212 305 212Z" fill="#DCE2FF"/>
<path d="M305 192C301.686 192 299 189.314 299 186C299 182.686 301.686 180 305 180C308.314 180 311 182.686 311 186C311 189.314 308.314 192 305 192Z" fill="#DCE2FF"/>
<path d="M305 172C301.686 172 299 169.314 299 166C299 162.686 301.686 160 305 160C308.314 160 311 162.686 311 166C311 169.314 308.314 172 305 172Z" fill="#DCE2FF"/>
<path d="M305 152C301.686 152 299 149.314 299 146C299 142.686 301.686 140 305 140C308.314 140 311 142.686 311 146C311 149.314 308.314 152 305 152Z" fill="#DCE2FF"/>
<path d="M325 292C321.686 292 319 289.314 319 286C319 282.686 321.686 280 325 280C328.314 280 331 282.686 331 286C331 289.314 328.314 292 325 292Z" fill="#DCE2FF"/>
<path d="M325 272C321.686 272 319 269.314 319 266C319 262.686 321.686 260 325 260C328.314 260 331 262.686 331 266C331 269.314 328.314 272 325 272Z" fill="#DCE2FF"/>
<path d="M325 252C321.686 252 319 249.314 319 246C319 242.686 321.686 240 325 240C328.314 240 331 242.686 331 246C331 249.314 328.314 252 325 252Z" fill="#DCE2FF"/>
<path d="M325 232C321.686 232 319 229.314 319 226C319 222.686 321.686 220 325 220C328.314 220 331 222.686 331 226C331 229.314 328.314 232 325 232Z" fill="#DCE2FF"/>
<path d="M325 212C321.686 212 319 209.314 319 206C319 202.686 321.686 200 325 200C328.314 200 331 202.686 331 206C331 209.314 328.314 212 325 212Z" fill="#DCE2FF"/>
<path d="M325 192C321.686 192 319 189.314 319 186C319 182.686 321.686 180 325 180C328.314 180 331 182.686 331 186C331 189.314 328.314 192 325 192Z" fill="#DCE2FF"/>
<path d="M325 172C321.686 172 319 169.314 319 166C319 162.686 321.686 160 325 160C328.314 160 331 162.686 331 166C331 169.314 328.314 172 325 172Z" fill="#DCE2FF"/>
<path d="M325 152C321.686 152 319 149.314 319 146C319 142.686 321.686 140 325 140C328.314 140 331 142.686 331 146C331 149.314 328.314 152 325 152Z" fill="#DCE2FF"/>
<path d="M345 292C341.686 292 339 289.314 339 286C339 282.686 341.686 280 345 280C348.314 280 351 282.686 351 286C351 289.314 348.314 292 345 292Z" fill="#DCE2FF"/>
<path d="M345 272C341.686 272 339 269.314 339 266C339 262.686 341.686 260 345 260C348.314 260 351 262.686 351 266C351 269.314 348.314 272 345 272Z" fill="#DCE2FF"/>
<path d="M345 252C341.686 252 339 249.314 339 246C339 242.686 341.686 240 345 240C348.314 240 351 242.686 351 246C351 249.314 348.314 252 345 252Z" fill="#DCE2FF"/>
<path d="M345 232C341.686 232 339 229.314 339 226C339 222.686 341.686 220 345 220C348.314 220 351 222.686 351 226C351 229.314 348.314 232 345 232Z" fill="#DCE2FF"/>
<path d="M345 212C341.686 212 339 209.314 339 206C339 202.686 341.686 200 345 200C348.314 200 351 202.686 351 206C351 209.314 348.314 212 345 212Z" fill="#DCE2FF"/>
<path d="M345 192C341.686 192 339 189.314 339 186C339 182.686 341.686 180 345 180C348.314 180 351 182.686 351 186C351 189.314 348.314 192 345 192Z" fill="#DCE2FF"/>
<path d="M345 172C341.686 172 339 169.314 339 166C339 162.686 341.686 160 345 160C348.314 160 351 162.686 351 166C351 169.314 348.314 172 345 172Z" fill="#DCE2FF"/>
<path d="M345 152C341.686 152 339 149.314 339 146C339 142.686 341.686 140 345 140C348.314 140 351 142.686 351 146C351 149.314 348.314 152 345 152Z" fill="#DCE2FF"/>
<path d="M365 292C361.686 292 359 289.314 359 286C359 282.686 361.686 280 365 280C368.314 280 371 282.686 371 286C371 289.314 368.314 292 365 292Z" fill="#DCE2FF"/>
<path d="M365 272C361.686 272 359 269.314 359 266C359 262.686 361.686 260 365 260C368.314 260 371 262.686 371 266C371 269.314 368.314 272 365 272Z" fill="#DCE2FF"/>
<path d="M365 252C361.686 252 359 249.314 359 246C359 242.686 361.686 240 365 240C368.314 240 371 242.686 371 246C371 249.314 368.314 252 365 252Z" fill="#DCE2FF"/>
<path d="M365 232C361.686 232 359 229.314 359 226C359 222.686 361.686 220 365 220C368.314 220 371 222.686 371 226C371 229.314 368.314 232 365 232Z" fill="#DCE2FF"/>
<path d="M365 212C361.686 212 359 209.314 359 206C359 202.686 361.686 200 365 200C368.314 200 371 202.686 371 206C371 209.314 368.314 212 365 212Z" fill="#DCE2FF"/>
<path d="M365 192C361.686 192 359 189.314 359 186C359 182.686 361.686 180 365 180C368.314 180 371 182.686 371 186C371 189.314 368.314 192 365 192Z" fill="#DCE2FF"/>
<path d="M365 172C361.686 172 359 169.314 359 166C359 162.686 361.686 160 365 160C368.314 160 371 162.686 371 166C371 169.314 368.314 172 365 172Z" fill="#DCE2FF"/>
<path d="M365 152C361.686 152 359 149.314 359 146C359 142.686 361.686 140 365 140C368.314 140 371 142.686 371 146C371 149.314 368.314 152 365 152Z" fill="#DCE2FF"/>
<path d="M385 292C381.686 292 379 289.314 379 286C379 282.686 381.686 280 385 280C388.314 280 391 282.686 391 286C391 289.314 388.314 292 385 292Z" fill="#DCE2FF"/>
<path d="M385 272C381.686 272 379 269.314 379 266C379 262.686 381.686 260 385 260C388.314 260 391 262.686 391 266C391 269.314 388.314 272 385 272Z" fill="#DCE2FF"/>
<path d="M385 252C381.686 252 379 249.314 379 246C379 242.686 381.686 240 385 240C388.314 240 391 242.686 391 246C391 249.314 388.314 252 385 252Z" fill="#DCE2FF"/>
<path d="M385 232C381.686 232 379 229.314 379 226C379 222.686 381.686 220 385 220C388.314 220 391 222.686 391 226C391 229.314 388.314 232 385 232Z" fill="#DCE2FF"/>
<path d="M385 212C381.686 212 379 209.314 379 206C379 202.686 381.686 200 385 200C388.314 200 391 202.686 391 206C391 209.314 388.314 212 385 212Z" fill="#DCE2FF"/>
<path d="M385 192C381.686 192 379 189.314 379 186C379 182.686 381.686 180 385 180C388.314 180 391 182.686 391 186C391 189.314 388.314 192 385 192Z" fill="#DCE2FF"/>
<path d="M385 172C381.686 172 379 169.314 379 166C379 162.686 381.686 160 385 160C388.314 160 391 162.686 391 166C391 169.314 388.314 172 385 172Z" fill="#DCE2FF"/>
<path d="M385 152C381.686 152 379 149.314 379 146C379 142.686 381.686 140 385 140C388.314 140 391 142.686 391 146C391 149.314 388.314 152 385 152Z" fill="#DCE2FF"/>
<path d="M405 292C401.686 292 399 289.314 399 286C399 282.686 401.686 280 405 280C408.314 280 411 282.686 411 286C411 289.314 408.314 292 405 292Z" fill="#DCE2FF"/>
<path d="M405 272C401.686 272 399 269.314 399 266C399 262.686 401.686 260 405 260C408.314 260 411 262.686 411 266C411 269.314 408.314 272 405 272Z" fill="#DCE2FF"/>
<path d="M405 252C401.686 252 399 249.314 399 246C399 242.686 401.686 240 405 240C408.314 240 411 242.686 411 246C411 249.314 408.314 252 405 252Z" fill="#DCE2FF"/>
<path d="M405 232C401.686 232 399 229.314 399 226C399 222.686 401.686 220 405 220C408.314 220 411 222.686 411 226C411 229.314 408.314 232 405 232Z" fill="#DCE2FF"/>
<path d="M405 212C401.686 212 399 209.314 399 206C399 202.686 401.686 200 405 200C408.314 200 411 202.686 411 206C411 209.314 408.314 212 405 212Z" fill="#DCE2FF"/>
<path d="M405 192C401.686 192 399 189.314 399 186C399 182.686 401.686 180 405 180C408.314 180 411 182.686 411 186C411 189.314 408.314 192 405 192Z" fill="#DCE2FF"/>
<path d="M405 172C401.686 172 399 169.314 399 166C399 162.686 401.686 160 405 160C408.314 160 411 162.686 411 166C411 169.314 408.314 172 405 172Z" fill="#DCE2FF"/>
<path d="M405 152C401.686 152 399 149.314 399 146C399 142.686 401.686 140 405 140C408.314 140 411 142.686 411 146C411 149.314 408.314 152 405 152Z" fill="#DCE2FF"/>
<path d="M425 292C421.686 292 419 289.314 419 286C419 282.686 421.686 280 425 280C428.314 280 431 282.686 431 286C431 289.314 428.314 292 425 292Z" fill="#DCE2FF"/>
<path d="M425 272C421.686 272 419 269.314 419 266C419 262.686 421.686 260 425 260C428.314 260 431 262.686 431 266C431 269.314 428.314 272 425 272Z" fill="#DCE2FF"/>
<path d="M425 252C421.686 252 419 249.314 419 246C419 242.686 421.686 240 425 240C428.314 240 431 242.686 431 246C431 249.314 428.314 252 425 252Z" fill="#DCE2FF"/>
<path d="M425 232C421.686 232 419 229.314 419 226C419 222.686 421.686 220 425 220C428.314 220 431 222.686 431 226C431 229.314 428.314 232 425 232Z" fill="#DCE2FF"/>
<path d="M425 212C421.686 212 419 209.314 419 206C419 202.686 421.686 200 425 200C428.314 200 431 202.686 431 206C431 209.314 428.314 212 425 212Z" fill="#DCE2FF"/>
<path d="M425 192C421.686 192 419 189.314 419 186C419 182.686 421.686 180 425 180C428.314 180 431 182.686 431 186C431 189.314 428.314 192 425 192Z" fill="#DCE2FF"/>
<path d="M425 172C421.686 172 419 169.314 419 166C419 162.686 421.686 160 425 160C428.314 160 431 162.686 431 166C431 169.314 428.314 172 425 172Z" fill="#DCE2FF"/>
<path d="M425 152C421.686 152 419 149.314 419 146C419 142.686 421.686 140 425 140C428.314 140 431 142.686 431 146C431 149.314 428.314 152 425 152Z" fill="#DCE2FF"/>
<path d="M445 292C441.686 292 439 289.314 439 286C439 282.686 441.686 280 445 280C448.314 280 451 282.686 451 286C451 289.314 448.314 292 445 292Z" fill="#DCE2FF"/>
<path d="M445 272C441.686 272 439 269.314 439 266C439 262.686 441.686 260 445 260C448.314 260 451 262.686 451 266C451 269.314 448.314 272 445 272Z" fill="#DCE2FF"/>
<path d="M445 252C441.686 252 439 249.314 439 246C439 242.686 441.686 240 445 240C448.314 240 451 242.686 451 246C451 249.314 448.314 252 445 252Z" fill="#DCE2FF"/>
<path d="M445 232C441.686 232 439 229.314 439 226C439 222.686 441.686 220 445 220C448.314 220 451 222.686 451 226C451 229.314 448.314 232 445 232Z" fill="#DCE2FF"/>
<path d="M445 212C441.686 212 439 209.314 439 206C439 202.686 441.686 200 445 200C448.314 200 451 202.686 451 206C451 209.314 448.314 212 445 212Z" fill="#DCE2FF"/>
<path d="M445 192C441.686 192 439 189.314 439 186C439 182.686 441.686 180 445 180C448.314 180 451 182.686 451 186C451 189.314 448.314 192 445 192Z" fill="#DCE2FF"/>
<path d="M445 172C441.686 172 439 169.314 439 166C439 162.686 441.686 160 445 160C448.314 160 451 162.686 451 166C451 169.314 448.314 172 445 172Z" fill="#DCE2FF"/>
<path d="M445 152C441.686 152 439 149.314 439 146C439 142.686 441.686 140 445 140C448.314 140 451 142.686 451 146C451 149.314 448.314 152 445 152Z" fill="#DCE2FF"/>
<path d="M465 292C461.686 292 459 289.314 459 286C459 282.686 461.686 280 465 280C468.314 280 471 282.686 471 286C471 289.314 468.314 292 465 292Z" fill="#DCE2FF"/>
<path d="M465 272C461.686 272 459 269.314 459 266C459 262.686 461.686 260 465 260C468.314 260 471 262.686 471 266C471 269.314 468.314 272 465 272Z" fill="#DCE2FF"/>
<path d="M465 252C461.686 252 459 249.314 459 246C459 242.686 461.686 240 465 240C468.314 240 471 242.686 471 246C471 249.314 468.314 252 465 252Z" fill="#DCE2FF"/>
<path d="M465 232C461.686 232 459 229.314 459 226C459 222.686 461.686 220 465 220C468.314 220 471 222.686 471 226C471 229.314 468.314 232 465 232Z" fill="#DCE2FF"/>
<path d="M465 212C461.686 212 459 209.314 459 206C459 202.686 461.686 200 465 200C468.314 200 471 202.686 471 206C471 209.314 468.314 212 465 212Z" fill="#DCE2FF"/>
<path d="M465 192C461.686 192 459 189.314 459 186C459 182.686 461.686 180 465 180C468.314 180 471 182.686 471 186C471 189.314 468.314 192 465 192Z" fill="#DCE2FF"/>
<path d="M465 172C461.686 172 459 169.314 459 166C459 162.686 461.686 160 465 160C468.314 160 471 162.686 471 166C471 169.314 468.314 172 465 172Z" fill="#DCE2FF"/>
<path d="M465 152C461.686 152 459 149.314 459 146C459 142.686 461.686 140 465 140C468.314 140 471 142.686 471 146C471 149.314 468.314 152 465 152Z" fill="#DCE2FF"/>
<path d="M485 292C481.686 292 479 289.314 479 286C479 282.686 481.686 280 485 280C488.314 280 491 282.686 491 286C491 289.314 488.314 292 485 292Z" fill="#DCE2FF"/>
<path d="M485 272C481.686 272 479 269.314 479 266C479 262.686 481.686 260 485 260C488.314 260 491 262.686 491 266C491 269.314 488.314 272 485 272Z" fill="#DCE2FF"/>
<path d="M485 252C481.686 252 479 249.314 479 246C479 242.686 481.686 240 485 240C488.314 240 491 242.686 491 246C491 249.314 488.314 252 485 252Z" fill="#DCE2FF"/>
<path d="M485 232C481.686 232 479 229.314 479 226C479 222.686 481.686 220 485 220C488.314 220 491 222.686 491 226C491 229.314 488.314 232 485 232Z" fill="#DCE2FF"/>
<path d="M485 212C481.686 212 479 209.314 479 206C479 202.686 481.686 200 485 200C488.314 200 491 202.686 491 206C491 209.314 488.314 212 485 212Z" fill="#DCE2FF"/>
<path d="M485 192C481.686 192 479 189.314 479 186C479 182.686 481.686 180 485 180C488.314 180 491 182.686 491 186C491 189.314 488.314 192 485 192Z" fill="#DCE2FF"/>
<path d="M485 172C481.686 172 479 169.314 479 166C479 162.686 481.686 160 485 160C488.314 160 491 162.686 491 166C491 169.314 488.314 172 485 172Z" fill="#DCE2FF"/>
<path d="M485 152C481.686 152 479 149.314 479 146C479 142.686 481.686 140 485 140C488.314 140 491 142.686 491 146C491 149.314 488.314 152 485 152Z" fill="#DCE2FF"/>
<path d="M505 292C501.686 292 499 289.314 499 286C499 282.686 501.686 280 505 280C508.314 280 511 282.686 511 286C511 289.314 508.314 292 505 292Z" fill="#DCE2FF"/>
<path d="M505 272C501.686 272 499 269.314 499 266C499 262.686 501.686 260 505 260C508.314 260 511 262.686 511 266C511 269.314 508.314 272 505 272Z" fill="#DCE2FF"/>
<path d="M505 252C501.686 252 499 249.314 499 246C499 242.686 501.686 240 505 240C508.314 240 511 242.686 511 246C511 249.314 508.314 252 505 252Z" fill="#DCE2FF"/>
<path d="M505 232C501.686 232 499 229.314 499 226C499 222.686 501.686 220 505 220C508.314 220 511 222.686 511 226C511 229.314 508.314 232 505 232Z" fill="#DCE2FF"/>
<path d="M505 212C501.686 212 499 209.314 499 206C499 202.686 501.686 200 505 200C508.314 200 511 202.686 511 206C511 209.314 508.314 212 505 212Z" fill="#DCE2FF"/>
<path d="M505 192C501.686 192 499 189.314 499 186C499 182.686 501.686 180 505 180C508.314 180 511 182.686 511 186C511 189.314 508.314 192 505 192Z" fill="#DCE2FF"/>
<path d="M505 172C501.686 172 499 169.314 499 166C499 162.686 501.686 160 505 160C508.314 160 511 162.686 511 166C511 169.314 508.314 172 505 172Z" fill="#DCE2FF"/>
<path d="M505 152C501.686 152 499 149.314 499 146C499 142.686 501.686 140 505 140C508.314 140 511 142.686 511 146C511 149.314 508.314 152 505 152Z" fill="#DCE2FF"/>
<path d="M525 292C521.686 292 519 289.314 519 286C519 282.686 521.686 280 525 280C528.314 280 531 282.686 531 286C531 289.314 528.314 292 525 292Z" fill="#DCE2FF"/>
<path d="M525 272C521.686 272 519 269.314 519 266C519 262.686 521.686 260 525 260C528.314 260 531 262.686 531 266C531 269.314 528.314 272 525 272Z" fill="#DCE2FF"/>
<path d="M525 252C521.686 252 519 249.314 519 246C519 242.686 521.686 240 525 240C528.314 240 531 242.686 531 246C531 249.314 528.314 252 525 252Z" fill="#DCE2FF"/>
<path d="M525 232C521.686 232 519 229.314 519 226C519 222.686 521.686 220 525 220C528.314 220 531 222.686 531 226C531 229.314 528.314 232 525 232Z" fill="#DCE2FF"/>
<path d="M525 212C521.686 212 519 209.314 519 206C519 202.686 521.686 200 525 200C528.314 200 531 202.686 531 206C531 209.314 528.314 212 525 212Z" fill="#DCE2FF"/>
<path d="M525 192C521.686 192 519 189.314 519 186C519 182.686 521.686 180 525 180C528.314 180 531 182.686 531 186C531 189.314 528.314 192 525 192Z" fill="#DCE2FF"/>
<path d="M525 172C521.686 172 519 169.314 519 166C519 162.686 521.686 160 525 160C528.314 160 531 162.686 531 166C531 169.314 528.314 172 525 172Z" fill="#DCE2FF"/>
<path d="M525 152C521.686 152 519 149.314 519 146C519 142.686 521.686 140 525 140C528.314 140 531 142.686 531 146C531 149.314 528.314 152 525 152Z" fill="#DCE2FF"/>
<path d="M545 292C541.686 292 539 289.314 539 286C539 282.686 541.686 280 545 280C548.314 280 551 282.686 551 286C551 289.314 548.314 292 545 292Z" fill="#DCE2FF"/>
<path d="M545 272C541.686 272 539 269.314 539 266C539 262.686 541.686 260 545 260C548.314 260 551 262.686 551 266C551 269.314 548.314 272 545 272Z" fill="#DCE2FF"/>
<path d="M545 252C541.686 252 539 249.314 539 246C539 242.686 541.686 240 545 240C548.314 240 551 242.686 551 246C551 249.314 548.314 252 545 252Z" fill="#DCE2FF"/>
<path d="M545 232C541.686 232 539 229.314 539 226C539 222.686 541.686 220 545 220C548.314 220 551 222.686 551 226C551 229.314 548.314 232 545 232Z" fill="#DCE2FF"/>
<path d="M545 212C541.686 212 539 209.314 539 206C539 202.686 541.686 200 545 200C548.314 200 551 202.686 551 206C551 209.314 548.314 212 545 212Z" fill="#DCE2FF"/>
<path d="M545 192C541.686 192 539 189.314 539 186C539 182.686 541.686 180 545 180C548.314 180 551 182.686 551 186C551 189.314 548.314 192 545 192Z" fill="#DCE2FF"/>
<path d="M545 172C541.686 172 539 169.314 539 166C539 162.686 541.686 160 545 160C548.314 160 551 162.686 551 166C551 169.314 548.314 172 545 172Z" fill="#DCE2FF"/>
<path d="M545 152C541.686 152 539 149.314 539 146C539 142.686 541.686 140 545 140C548.314 140 551 142.686 551 146C551 149.314 548.314 152 545 152Z" fill="#DCE2FF"/>
<path d="M565 292C561.686 292 559 289.314 559 286C559 282.686 561.686 280 565 280C568.314 280 571 282.686 571 286C571 289.314 568.314 292 565 292Z" fill="#DCE2FF"/>
<path d="M565 272C561.686 272 559 269.314 559 266C559 262.686 561.686 260 565 260C568.314 260 571 262.686 571 266C571 269.314 568.314 272 565 272Z" fill="#DCE2FF"/>
<path d="M565 252C561.686 252 559 249.314 559 246C559 242.686 561.686 240 565 240C568.314 240 571 242.686 571 246C571 249.314 568.314 252 565 252Z" fill="#DCE2FF"/>
<path d="M565 232C561.686 232 559 229.314 559 226C559 222.686 561.686 220 565 220C568.314 220 571 222.686 571 226C571 229.314 568.314 232 565 232Z" fill="#DCE2FF"/>
<path d="M565 212C561.686 212 559 209.314 559 206C559 202.686 561.686 200 565 200C568.314 200 571 202.686 571 206C571 209.314 568.314 212 565 212Z" fill="#DCE2FF"/>
<path d="M565 192C561.686 192 559 189.314 559 186C559 182.686 561.686 180 565 180C568.314 180 571 182.686 571 186C571 189.314 568.314 192 565 192Z" fill="#DCE2FF"/>
<path d="M565 172C561.686 172 559 169.314 559 166C559 162.686 561.686 160 565 160C568.314 160 571 162.686 571 166C571 169.314 568.314 172 565 172Z" fill="#DCE2FF"/>
<path d="M565 152C561.686 152 559 149.314 559 146C559 142.686 561.686 140 565 140C568.314 140 571 142.686 571 146C571 149.314 568.314 152 565 152Z" fill="#DCE2FF"/>
<path d="M585 292C581.686 292 579 289.314 579 286C579 282.686 581.686 280 585 280C588.314 280 591 282.686 591 286C591 289.314 588.314 292 585 292Z" fill="#DCE2FF"/>
<path d="M585 272C581.686 272 579 269.314 579 266C579 262.686 581.686 260 585 260C588.314 260 591 262.686 591 266C591 269.314 588.314 272 585 272Z" fill="#DCE2FF"/>
<path d="M585 252C581.686 252 579 249.314 579 246C579 242.686 581.686 240 585 240C588.314 240 591 242.686 591 246C591 249.314 588.314 252 585 252Z" fill="#DCE2FF"/>
<path d="M585 232C581.686 232 579 229.314 579 226C579 222.686 581.686 220 585 220C588.314 220 591 222.686 591 226C591 229.314 588.314 232 585 232Z" fill="#DCE2FF"/>
<path d="M585 212C581.686 212 579 209.314 579 206C579 202.686 581.686 200 585 200C588.314 200 591 202.686 591 206C591 209.314 588.314 212 585 212Z" fill="#DCE2FF"/>
<path d="M585 192C581.686 192 579 189.314 579 186C579 182.686 581.686 180 585 180C588.314 180 591 182.686 591 186C591 189.314 588.314 192 585 192Z" fill="#DCE2FF"/>
<path d="M585 172C581.686 172 579 169.314 579 166C579 162.686 581.686 160 585 160C588.314 160 591 162.686 591 166C591 169.314 588.314 172 585 172Z" fill="#DCE2FF"/>
<path d="M585 152C581.686 152 579 149.314 579 146C579 142.686 581.686 140 585 140C588.314 140 591 142.686 591 146C591 149.314 588.314 152 585 152Z" fill="#DCE2FF"/>
<path d="M605 292C601.686 292 599 289.314 599 286C599 282.686 601.686 280 605 280C608.314 280 611 282.686 611 286C611 289.314 608.314 292 605 292Z" fill="#DCE2FF"/>
<path d="M605 272C601.686 272 599 269.314 599 266C599 262.686 601.686 260 605 260C608.314 260 611 262.686 611 266C611 269.314 608.314 272 605 272Z" fill="#DCE2FF"/>
<path d="M605 252C601.686 252 599 249.314 599 246C599 242.686 601.686 240 605 240C608.314 240 611 242.686 611 246C611 249.314 608.314 252 605 252Z" fill="#DCE2FF"/>
<path d="M605 232C601.686 232 599 229.314 599 226C599 222.686 601.686 220 605 220C608.314 220 611 222.686 611 226C611 229.314 608.314 232 605 232Z" fill="#DCE2FF"/>
<path d="M605 212C601.686 212 599 209.314 599 206C599 202.686 601.686 200 605 200C608.314 200 611 202.686 611 206C611 209.314 608.314 212 605 212Z" fill="#DCE2FF"/>
<path d="M605 192C601.686 192 599 189.314 599 186C599 182.686 601.686 180 605 180C608.314 180 611 182.686 611 186C611 189.314 608.314 192 605 192Z" fill="#DCE2FF"/>
<path d="M605 172C601.686 172 599 169.314 599 166C599 162.686 601.686 160 605 160C608.314 160 611 162.686 611 166C611 169.314 608.314 172 605 172Z" fill="#DCE2FF"/>
<path d="M605 152C601.686 152 599 149.314 599 146C599 142.686 601.686 140 605 140C608.314 140 611 142.686 611 146C611 149.314 608.314 152 605 152Z" fill="#DCE2FF"/>
</svg>
