<svg width="20" height="20" viewBox="0 0 20 20" fill="none" xmlns="http://www.w3.org/2000/svg">
<g clip-path="url(#clip0_18001_207)">
<path fill-rule="evenodd" clip-rule="evenodd" d="M1.58452 1.08555C1.65868 0.813637 1.90566 0.625 2.1875 0.625H17.8125C18.0943 0.625 18.3413 0.813637 18.4155 1.08555L19.353 4.52306C19.3676 4.57666 19.375 4.63194 19.375 4.6875C19.375 6.24081 18.1158 7.5 16.5625 7.5C15.679 7.5 14.8906 7.09259 14.375 6.45541C13.8594 7.09259 13.071 7.5 12.1875 7.5C11.304 7.5 10.5156 7.09259 10 6.45541C9.48438 7.09259 8.69603 7.5 7.8125 7.5C6.92897 7.5 6.14062 7.09259 5.625 6.45541C5.10938 7.09259 4.32103 7.5 3.4375 7.5C1.8842 7.5 0.625 6.24081 0.625 4.6875C0.625 4.63194 0.632406 4.57666 0.647022 4.52306L1.58452 1.08555ZM6.25 4.6875C6.25 5.55044 6.94956 6.25 7.8125 6.25C8.67544 6.25 9.375 5.55044 9.375 4.6875C9.375 4.34231 9.65481 4.0625 10 4.0625C10.3452 4.0625 10.625 4.34231 10.625 4.6875C10.625 5.55044 11.3246 6.25 12.1875 6.25C13.0504 6.25 13.75 5.55044 13.75 4.6875C13.75 4.34231 14.0298 4.0625 14.375 4.0625C14.7202 4.0625 15 4.34231 15 4.6875C15 5.55044 15.6996 6.25 16.5625 6.25C17.3997 6.25 18.0831 5.59163 18.1232 4.76438L17.3351 1.875H2.66487L1.87686 4.76438C1.91694 5.59163 2.60033 6.25 3.4375 6.25C4.30044 6.25 5 5.55044 5 4.6875C5 4.34231 5.27981 4.0625 5.625 4.0625C5.97019 4.0625 6.25 4.34231 6.25 4.6875Z" fill="black"/>
<path d="M2.1875 8.75C2.53268 8.75 2.8125 9.02981 2.8125 9.375V16.25C2.8125 17.2855 3.65197 18.125 4.6875 18.125H15.3125C16.348 18.125 17.1875 17.2855 17.1875 16.25V9.375C17.1875 9.02981 17.4673 8.75 17.8125 8.75C18.1577 8.75 18.4375 9.02981 18.4375 9.375V16.25C18.4375 17.9759 17.0384 19.375 15.3125 19.375H4.6875C2.96161 19.375 1.5625 17.9759 1.5625 16.25V9.375C1.5625 9.02981 1.84232 8.75 2.1875 8.75Z" fill="black"/>
<path fill-rule="evenodd" clip-rule="evenodd" d="M10.5361 8.74125C10.4232 8.55281 10.2197 8.4375 10 8.4375C9.78035 8.4375 9.57679 8.55281 9.46388 8.74125L8.29957 10.6844L6.10707 11.1994C5.89454 11.2494 5.72347 11.4066 5.65578 11.6141C5.58813 11.8217 5.63366 12.0495 5.77591 12.2151L7.25138 13.9328L7.0596 16.1972C7.0411 16.4156 7.13835 16.6277 7.31588 16.7562C7.49338 16.8848 7.72525 16.9109 7.92694 16.8252L10 15.9438L12.0731 16.8252C12.2748 16.9109 12.5066 16.8848 12.6841 16.7562C12.8617 16.6277 12.9589 16.4156 12.9404 16.1972L12.7486 13.9328L14.2241 12.2151C14.3663 12.0495 14.4119 11.8217 14.3442 11.6141C14.2765 11.4066 14.1055 11.2494 13.8929 11.1994L11.7004 10.6844L10.5361 8.74125ZM9.23594 11.5537L10 10.2785L10.7641 11.5537C10.8509 11.6986 10.9928 11.8022 11.1573 11.8408L12.6055 12.1811L11.6297 13.3172C11.5204 13.4444 11.4668 13.6101 11.481 13.7772L11.6073 15.2688L10.2446 14.6894C10.0883 14.623 9.91172 14.623 9.75544 14.6894L8.39269 15.2688L8.51904 13.7772C8.53316 13.6101 8.4796 13.4444 8.37035 13.3172L7.39447 12.1811L8.84275 11.8408C9.00725 11.8022 9.1491 11.6986 9.23594 11.5537Z" fill="black"/>
</g>
<defs>
<clipPath id="clip0_18001_207">
<rect width="20" height="20" fill="white"/>
</clipPath>
</defs>
</svg>
