<svg width="172" height="492" viewBox="0 0 172 492" fill="none" xmlns="http://www.w3.org/2000/svg">
<path d="M79 6C79 2.68629 81.6863 0 85 0C88.3137 0 91 2.68629 91 6C91 9.31371 88.3137 12 85 12C81.6863 12 79 9.31371 79 6Z" fill="#EBF1FF"/>
<path d="M99 6C99 2.68629 101.686 0 105 0C108.314 0 111 2.68629 111 6C111 9.31371 108.314 12 105 12C101.686 12 99 9.31371 99 6Z" fill="#EBF1FF"/>
<path d="M119 6C119 2.68629 121.686 0 125 0C128.314 0 131 2.68629 131 6C131 9.31371 128.314 12 125 12C121.686 12 119 9.31371 119 6Z" fill="#EBF1FF"/>
<path d="M139 6C139 2.68629 141.686 0 145 0C148.314 0 151 2.68629 151 6C151 9.31371 148.314 12 145 12C141.686 12 139 9.31371 139 6Z" fill="#EBF1FF"/>
<path d="M159 6C159 2.68629 161.686 0 165 0C168.314 0 171 2.68629 171 6C171 9.31371 168.314 12 165 12C161.686 12 159 9.31371 159 6Z" fill="#EBF1FF"/>
<path d="M79 26C79 22.6863 81.6863 20 85 20C88.3137 20 91 22.6863 91 26C91 29.3137 88.3137 32 85 32C81.6863 32 79 29.3137 79 26Z" fill="#EBF1FF"/>
<path d="M99 26C99 22.6863 101.686 20 105 20C108.314 20 111 22.6863 111 26C111 29.3137 108.314 32 105 32C101.686 32 99 29.3137 99 26Z" fill="#EBF1FF"/>
<path d="M119 26C119 22.6863 121.686 20 125 20C128.314 20 131 22.6863 131 26C131 29.3137 128.314 32 125 32C121.686 32 119 29.3137 119 26Z" fill="#EBF1FF"/>
<path d="M139 26C139 22.6863 141.686 20 145 20C148.314 20 151 22.6863 151 26C151 29.3137 148.314 32 145 32C141.686 32 139 29.3137 139 26Z" fill="#EBF1FF"/>
<path d="M159 26C159 22.6863 161.686 20 165 20C168.314 20 171 22.6863 171 26C171 29.3137 168.314 32 165 32C161.686 32 159 29.3137 159 26Z" fill="#EBF1FF"/>
<path d="M79 46C79 42.6863 81.6863 40 85 40C88.3137 40 91 42.6863 91 46C91 49.3137 88.3137 52 85 52C81.6863 52 79 49.3137 79 46Z" fill="#EBF1FF"/>
<path d="M99 46C99 42.6863 101.686 40 105 40C108.314 40 111 42.6863 111 46C111 49.3137 108.314 52 105 52C101.686 52 99 49.3137 99 46Z" fill="#EBF1FF"/>
<path d="M119 46C119 42.6863 121.686 40 125 40C128.314 40 131 42.6863 131 46C131 49.3137 128.314 52 125 52C121.686 52 119 49.3137 119 46Z" fill="#EBF1FF"/>
<path d="M139 46C139 42.6863 141.686 40 145 40C148.314 40 151 42.6863 151 46C151 49.3137 148.314 52 145 52C141.686 52 139 49.3137 139 46Z" fill="#EBF1FF"/>
<path d="M159 46C159 42.6863 161.686 40 165 40C168.314 40 171 42.6863 171 46C171 49.3137 168.314 52 165 52C161.686 52 159 49.3137 159 46Z" fill="#EBF1FF"/>
<path d="M79 66C79 62.6863 81.6863 60 85 60C88.3137 60 91 62.6863 91 66C91 69.3137 88.3137 72 85 72C81.6863 72 79 69.3137 79 66Z" fill="#EBF1FF"/>
<path d="M99 66C99 62.6863 101.686 60 105 60C108.314 60 111 62.6863 111 66C111 69.3137 108.314 72 105 72C101.686 72 99 69.3137 99 66Z" fill="#EBF1FF"/>
<path d="M119 66C119 62.6863 121.686 60 125 60C128.314 60 131 62.6863 131 66C131 69.3137 128.314 72 125 72C121.686 72 119 69.3137 119 66Z" fill="#EBF1FF"/>
<path d="M139 66C139 62.6863 141.686 60 145 60C148.314 60 151 62.6863 151 66C151 69.3137 148.314 72 145 72C141.686 72 139 69.3137 139 66Z" fill="#EBF1FF"/>
<path d="M159 66C159 62.6863 161.686 60 165 60C168.314 60 171 62.6863 171 66C171 69.3137 168.314 72 165 72C161.686 72 159 69.3137 159 66Z" fill="#EBF1FF"/>
<path d="M79 86C79 82.6863 81.6863 80 85 80C88.3137 80 91 82.6863 91 86C91 89.3137 88.3137 92 85 92C81.6863 92 79 89.3137 79 86Z" fill="#EBF1FF"/>
<path d="M99 86C99 82.6863 101.686 80 105 80C108.314 80 111 82.6863 111 86C111 89.3137 108.314 92 105 92C101.686 92 99 89.3137 99 86Z" fill="#EBF1FF"/>
<path d="M119 86C119 82.6863 121.686 80 125 80C128.314 80 131 82.6863 131 86C131 89.3137 128.314 92 125 92C121.686 92 119 89.3137 119 86Z" fill="#EBF1FF"/>
<path d="M139 86C139 82.6863 141.686 80 145 80C148.314 80 151 82.6863 151 86C151 89.3137 148.314 92 145 92C141.686 92 139 89.3137 139 86Z" fill="#EBF1FF"/>
<path d="M159 86C159 82.6863 161.686 80 165 80C168.314 80 171 82.6863 171 86C171 89.3137 168.314 92 165 92C161.686 92 159 89.3137 159 86Z" fill="#EBF1FF"/>
<path d="M79 106C79 102.686 81.6863 100 85 100C88.3137 100 91 102.686 91 106C91 109.314 88.3137 112 85 112C81.6863 112 79 109.314 79 106Z" fill="#EBF1FF"/>
<path d="M99 106C99 102.686 101.686 100 105 100C108.314 100 111 102.686 111 106C111 109.314 108.314 112 105 112C101.686 112 99 109.314 99 106Z" fill="#EBF1FF"/>
<path d="M119 106C119 102.686 121.686 100 125 100C128.314 100 131 102.686 131 106C131 109.314 128.314 112 125 112C121.686 112 119 109.314 119 106Z" fill="#EBF1FF"/>
<path d="M139 106C139 102.686 141.686 100 145 100C148.314 100 151 102.686 151 106C151 109.314 148.314 112 145 112C141.686 112 139 109.314 139 106Z" fill="#EBF1FF"/>
<path d="M159 106C159 102.686 161.686 100 165 100C168.314 100 171 102.686 171 106C171 109.314 168.314 112 165 112C161.686 112 159 109.314 159 106Z" fill="#EBF1FF"/>
<path d="M79 126C79 122.686 81.6863 120 85 120C88.3137 120 91 122.686 91 126C91 129.314 88.3137 132 85 132C81.6863 132 79 129.314 79 126Z" fill="#EBF1FF"/>
<path d="M99 126C99 122.686 101.686 120 105 120C108.314 120 111 122.686 111 126C111 129.314 108.314 132 105 132C101.686 132 99 129.314 99 126Z" fill="#EBF1FF"/>
<path d="M119 126C119 122.686 121.686 120 125 120C128.314 120 131 122.686 131 126C131 129.314 128.314 132 125 132C121.686 132 119 129.314 119 126Z" fill="#EBF1FF"/>
<path d="M139 126C139 122.686 141.686 120 145 120C148.314 120 151 122.686 151 126C151 129.314 148.314 132 145 132C141.686 132 139 129.314 139 126Z" fill="#EBF1FF"/>
<path d="M159 126C159 122.686 161.686 120 165 120C168.314 120 171 122.686 171 126C171 129.314 168.314 132 165 132C161.686 132 159 129.314 159 126Z" fill="#EBF1FF"/>
<path d="M79 146C79 142.686 81.6863 140 85 140C88.3137 140 91 142.686 91 146C91 149.314 88.3137 152 85 152C81.6863 152 79 149.314 79 146Z" fill="#EBF1FF"/>
<path d="M99 146C99 142.686 101.686 140 105 140C108.314 140 111 142.686 111 146C111 149.314 108.314 152 105 152C101.686 152 99 149.314 99 146Z" fill="#EBF1FF"/>
<path d="M119 146C119 142.686 121.686 140 125 140C128.314 140 131 142.686 131 146C131 149.314 128.314 152 125 152C121.686 152 119 149.314 119 146Z" fill="#EBF1FF"/>
<path d="M139 146C139 142.686 141.686 140 145 140C148.314 140 151 142.686 151 146C151 149.314 148.314 152 145 152C141.686 152 139 149.314 139 146Z" fill="#EBF1FF"/>
<path d="M159 146C159 142.686 161.686 140 165 140C168.314 140 171 142.686 171 146C171 149.314 168.314 152 165 152C161.686 152 159 149.314 159 146Z" fill="#EBF1FF"/>
<path d="M79 166C79 162.686 81.6863 160 85 160C88.3137 160 91 162.686 91 166C91 169.314 88.3137 172 85 172C81.6863 172 79 169.314 79 166Z" fill="#EBF1FF"/>
<path d="M99 166C99 162.686 101.686 160 105 160C108.314 160 111 162.686 111 166C111 169.314 108.314 172 105 172C101.686 172 99 169.314 99 166Z" fill="#EBF1FF"/>
<path d="M119 166C119 162.686 121.686 160 125 160C128.314 160 131 162.686 131 166C131 169.314 128.314 172 125 172C121.686 172 119 169.314 119 166Z" fill="#EBF1FF"/>
<path d="M139 166C139 162.686 141.686 160 145 160C148.314 160 151 162.686 151 166C151 169.314 148.314 172 145 172C141.686 172 139 169.314 139 166Z" fill="#EBF1FF"/>
<path d="M159 166C159 162.686 161.686 160 165 160C168.314 160 171 162.686 171 166C171 169.314 168.314 172 165 172C161.686 172 159 169.314 159 166Z" fill="#EBF1FF"/>
<path d="M79 186C79 182.686 81.6863 180 85 180C88.3137 180 91 182.686 91 186C91 189.314 88.3137 192 85 192C81.6863 192 79 189.314 79 186Z" fill="#EBF1FF"/>
<path d="M99 186C99 182.686 101.686 180 105 180C108.314 180 111 182.686 111 186C111 189.314 108.314 192 105 192C101.686 192 99 189.314 99 186Z" fill="#EBF1FF"/>
<path d="M119 186C119 182.686 121.686 180 125 180C128.314 180 131 182.686 131 186C131 189.314 128.314 192 125 192C121.686 192 119 189.314 119 186Z" fill="#EBF1FF"/>
<path d="M139 186C139 182.686 141.686 180 145 180C148.314 180 151 182.686 151 186C151 189.314 148.314 192 145 192C141.686 192 139 189.314 139 186Z" fill="#EBF1FF"/>
<path d="M159 186C159 182.686 161.686 180 165 180C168.314 180 171 182.686 171 186C171 189.314 168.314 192 165 192C161.686 192 159 189.314 159 186Z" fill="#EBF1FF"/>
<path d="M79 206C79 202.686 81.6863 200 85 200C88.3137 200 91 202.686 91 206C91 209.314 88.3137 212 85 212C81.6863 212 79 209.314 79 206Z" fill="#EBF1FF"/>
<path d="M99 206C99 202.686 101.686 200 105 200C108.314 200 111 202.686 111 206C111 209.314 108.314 212 105 212C101.686 212 99 209.314 99 206Z" fill="#EBF1FF"/>
<path d="M119 206C119 202.686 121.686 200 125 200C128.314 200 131 202.686 131 206C131 209.314 128.314 212 125 212C121.686 212 119 209.314 119 206Z" fill="#EBF1FF"/>
<path d="M139 206C139 202.686 141.686 200 145 200C148.314 200 151 202.686 151 206C151 209.314 148.314 212 145 212C141.686 212 139 209.314 139 206Z" fill="#EBF1FF"/>
<path d="M159 206C159 202.686 161.686 200 165 200C168.314 200 171 202.686 171 206C171 209.314 168.314 212 165 212C161.686 212 159 209.314 159 206Z" fill="#EBF1FF"/>
<path d="M79 226C79 222.686 81.6863 220 85 220C88.3137 220 91 222.686 91 226C91 229.314 88.3137 232 85 232C81.6863 232 79 229.314 79 226Z" fill="#EBF1FF"/>
<path d="M99 226C99 222.686 101.686 220 105 220C108.314 220 111 222.686 111 226C111 229.314 108.314 232 105 232C101.686 232 99 229.314 99 226Z" fill="#EBF1FF"/>
<path d="M119 226C119 222.686 121.686 220 125 220C128.314 220 131 222.686 131 226C131 229.314 128.314 232 125 232C121.686 232 119 229.314 119 226Z" fill="#EBF1FF"/>
<path d="M139 226C139 222.686 141.686 220 145 220C148.314 220 151 222.686 151 226C151 229.314 148.314 232 145 232C141.686 232 139 229.314 139 226Z" fill="#EBF1FF"/>
<path d="M159 226C159 222.686 161.686 220 165 220C168.314 220 171 222.686 171 226C171 229.314 168.314 232 165 232C161.686 232 159 229.314 159 226Z" fill="#EBF1FF"/>
<path d="M79 246C79 242.686 81.6863 240 85 240C88.3137 240 91 242.686 91 246C91 249.314 88.3137 252 85 252C81.6863 252 79 249.314 79 246Z" fill="#EBF1FF"/>
<path d="M99 246C99 242.686 101.686 240 105 240C108.314 240 111 242.686 111 246C111 249.314 108.314 252 105 252C101.686 252 99 249.314 99 246Z" fill="#EBF1FF"/>
<path d="M119 246C119 242.686 121.686 240 125 240C128.314 240 131 242.686 131 246C131 249.314 128.314 252 125 252C121.686 252 119 249.314 119 246Z" fill="#EBF1FF"/>
<path d="M139 246C139 242.686 141.686 240 145 240C148.314 240 151 242.686 151 246C151 249.314 148.314 252 145 252C141.686 252 139 249.314 139 246Z" fill="#EBF1FF"/>
<path d="M159 246C159 242.686 161.686 240 165 240C168.314 240 171 242.686 171 246C171 249.314 168.314 252 165 252C161.686 252 159 249.314 159 246Z" fill="#EBF1FF"/>
<path d="M79 266C79 262.686 81.6863 260 85 260C88.3137 260 91 262.686 91 266C91 269.314 88.3137 272 85 272C81.6863 272 79 269.314 79 266Z" fill="#EBF1FF"/>
<path d="M99 266C99 262.686 101.686 260 105 260C108.314 260 111 262.686 111 266C111 269.314 108.314 272 105 272C101.686 272 99 269.314 99 266Z" fill="#EBF1FF"/>
<path d="M119 266C119 262.686 121.686 260 125 260C128.314 260 131 262.686 131 266C131 269.314 128.314 272 125 272C121.686 272 119 269.314 119 266Z" fill="#EBF1FF"/>
<path d="M139 266C139 262.686 141.686 260 145 260C148.314 260 151 262.686 151 266C151 269.314 148.314 272 145 272C141.686 272 139 269.314 139 266Z" fill="#EBF1FF"/>
<path d="M159 266C159 262.686 161.686 260 165 260C168.314 260 171 262.686 171 266C171 269.314 168.314 272 165 272C161.686 272 159 269.314 159 266Z" fill="#EBF1FF"/>
<path d="M79 286C79 282.686 81.6863 280 85 280C88.3137 280 91 282.686 91 286C91 289.314 88.3137 292 85 292C81.6863 292 79 289.314 79 286Z" fill="#EBF1FF"/>
<path d="M99 286C99 282.686 101.686 280 105 280C108.314 280 111 282.686 111 286C111 289.314 108.314 292 105 292C101.686 292 99 289.314 99 286Z" fill="#EBF1FF"/>
<path d="M119 286C119 282.686 121.686 280 125 280C128.314 280 131 282.686 131 286C131 289.314 128.314 292 125 292C121.686 292 119 289.314 119 286Z" fill="#EBF1FF"/>
<path d="M139 286C139 282.686 141.686 280 145 280C148.314 280 151 282.686 151 286C151 289.314 148.314 292 145 292C141.686 292 139 289.314 139 286Z" fill="#EBF1FF"/>
<path d="M159 286C159 282.686 161.686 280 165 280C168.314 280 171 282.686 171 286C171 289.314 168.314 292 165 292C161.686 292 159 289.314 159 286Z" fill="#EBF1FF"/>
<path d="M79 306C79 302.686 81.6863 300 85 300C88.3137 300 91 302.686 91 306C91 309.314 88.3137 312 85 312C81.6863 312 79 309.314 79 306Z" fill="#EBF1FF"/>
<path d="M99 306C99 302.686 101.686 300 105 300C108.314 300 111 302.686 111 306C111 309.314 108.314 312 105 312C101.686 312 99 309.314 99 306Z" fill="#EBF1FF"/>
<path d="M119 306C119 302.686 121.686 300 125 300C128.314 300 131 302.686 131 306C131 309.314 128.314 312 125 312C121.686 312 119 309.314 119 306Z" fill="#EBF1FF"/>
<path d="M139 306C139 302.686 141.686 300 145 300C148.314 300 151 302.686 151 306C151 309.314 148.314 312 145 312C141.686 312 139 309.314 139 306Z" fill="#EBF1FF"/>
<path d="M159 306C159 302.686 161.686 300 165 300C168.314 300 171 302.686 171 306C171 309.314 168.314 312 165 312C161.686 312 159 309.314 159 306Z" fill="#EBF1FF"/>
<path d="M79 326C79 322.686 81.6863 320 85 320C88.3137 320 91 322.686 91 326C91 329.314 88.3137 332 85 332C81.6863 332 79 329.314 79 326Z" fill="#EBF1FF"/>
<path d="M99 326C99 322.686 101.686 320 105 320C108.314 320 111 322.686 111 326C111 329.314 108.314 332 105 332C101.686 332 99 329.314 99 326Z" fill="#EBF1FF"/>
<path d="M119 326C119 322.686 121.686 320 125 320C128.314 320 131 322.686 131 326C131 329.314 128.314 332 125 332C121.686 332 119 329.314 119 326Z" fill="#EBF1FF"/>
<path d="M139 326C139 322.686 141.686 320 145 320C148.314 320 151 322.686 151 326C151 329.314 148.314 332 145 332C141.686 332 139 329.314 139 326Z" fill="#EBF1FF"/>
<path d="M159 326C159 322.686 161.686 320 165 320C168.314 320 171 322.686 171 326C171 329.314 168.314 332 165 332C161.686 332 159 329.314 159 326Z" fill="#EBF1FF"/>
<path d="M79 346C79 342.686 81.6863 340 85 340C88.3137 340 91 342.686 91 346C91 349.314 88.3137 352 85 352C81.6863 352 79 349.314 79 346Z" fill="#EBF1FF"/>
<path d="M99 346C99 342.686 101.686 340 105 340C108.314 340 111 342.686 111 346C111 349.314 108.314 352 105 352C101.686 352 99 349.314 99 346Z" fill="#EBF1FF"/>
<path d="M119 346C119 342.686 121.686 340 125 340C128.314 340 131 342.686 131 346C131 349.314 128.314 352 125 352C121.686 352 119 349.314 119 346Z" fill="#EBF1FF"/>
<path d="M139 346C139 342.686 141.686 340 145 340C148.314 340 151 342.686 151 346C151 349.314 148.314 352 145 352C141.686 352 139 349.314 139 346Z" fill="#EBF1FF"/>
<path d="M159 346C159 342.686 161.686 340 165 340C168.314 340 171 342.686 171 346C171 349.314 168.314 352 165 352C161.686 352 159 349.314 159 346Z" fill="#EBF1FF"/>
<path d="M79 366C79 362.686 81.6863 360 85 360C88.3137 360 91 362.686 91 366C91 369.314 88.3137 372 85 372C81.6863 372 79 369.314 79 366Z" fill="#EBF1FF"/>
<path d="M99 366C99 362.686 101.686 360 105 360C108.314 360 111 362.686 111 366C111 369.314 108.314 372 105 372C101.686 372 99 369.314 99 366Z" fill="#EBF1FF"/>
<path d="M119 366C119 362.686 121.686 360 125 360C128.314 360 131 362.686 131 366C131 369.314 128.314 372 125 372C121.686 372 119 369.314 119 366Z" fill="#EBF1FF"/>
<path d="M139 366C139 362.686 141.686 360 145 360C148.314 360 151 362.686 151 366C151 369.314 148.314 372 145 372C141.686 372 139 369.314 139 366Z" fill="#EBF1FF"/>
<path d="M159 366C159 362.686 161.686 360 165 360C168.314 360 171 362.686 171 366C171 369.314 168.314 372 165 372C161.686 372 159 369.314 159 366Z" fill="#EBF1FF"/>
<path d="M79 386C79 382.686 81.6863 380 85 380C88.3137 380 91 382.686 91 386C91 389.314 88.3137 392 85 392C81.6863 392 79 389.314 79 386Z" fill="#EBF1FF"/>
<path d="M99 386C99 382.686 101.686 380 105 380C108.314 380 111 382.686 111 386C111 389.314 108.314 392 105 392C101.686 392 99 389.314 99 386Z" fill="#EBF1FF"/>
<path d="M119 386C119 382.686 121.686 380 125 380C128.314 380 131 382.686 131 386C131 389.314 128.314 392 125 392C121.686 392 119 389.314 119 386Z" fill="#EBF1FF"/>
<path d="M139 386C139 382.686 141.686 380 145 380C148.314 380 151 382.686 151 386C151 389.314 148.314 392 145 392C141.686 392 139 389.314 139 386Z" fill="#EBF1FF"/>
<path d="M159 386C159 382.686 161.686 380 165 380C168.314 380 171 382.686 171 386C171 389.314 168.314 392 165 392C161.686 392 159 389.314 159 386Z" fill="#EBF1FF"/>
<path d="M79 406C79 402.686 81.6863 400 85 400C88.3137 400 91 402.686 91 406C91 409.314 88.3137 412 85 412C81.6863 412 79 409.314 79 406Z" fill="#EBF1FF"/>
<path d="M99 406C99 402.686 101.686 400 105 400C108.314 400 111 402.686 111 406C111 409.314 108.314 412 105 412C101.686 412 99 409.314 99 406Z" fill="#EBF1FF"/>
<path d="M119 406C119 402.686 121.686 400 125 400C128.314 400 131 402.686 131 406C131 409.314 128.314 412 125 412C121.686 412 119 409.314 119 406Z" fill="#EBF1FF"/>
<path d="M139 406C139 402.686 141.686 400 145 400C148.314 400 151 402.686 151 406C151 409.314 148.314 412 145 412C141.686 412 139 409.314 139 406Z" fill="#EBF1FF"/>
<path d="M159 406C159 402.686 161.686 400 165 400C168.314 400 171 402.686 171 406C171 409.314 168.314 412 165 412C161.686 412 159 409.314 159 406Z" fill="#EBF1FF"/>
<path d="M79 426C79 422.686 81.6863 420 85 420C88.3137 420 91 422.686 91 426C91 429.314 88.3137 432 85 432C81.6863 432 79 429.314 79 426Z" fill="#EBF1FF"/>
<path d="M99 426C99 422.686 101.686 420 105 420C108.314 420 111 422.686 111 426C111 429.314 108.314 432 105 432C101.686 432 99 429.314 99 426Z" fill="#EBF1FF"/>
<path d="M119 426C119 422.686 121.686 420 125 420C128.314 420 131 422.686 131 426C131 429.314 128.314 432 125 432C121.686 432 119 429.314 119 426Z" fill="#EBF1FF"/>
<path d="M139 426C139 422.686 141.686 420 145 420C148.314 420 151 422.686 151 426C151 429.314 148.314 432 145 432C141.686 432 139 429.314 139 426Z" fill="#EBF1FF"/>
<path d="M159 426C159 422.686 161.686 420 165 420C168.314 420 171 422.686 171 426C171 429.314 168.314 432 165 432C161.686 432 159 429.314 159 426Z" fill="#EBF1FF"/>
<path d="M79 446C79 442.686 81.6863 440 85 440C88.3137 440 91 442.686 91 446C91 449.314 88.3137 452 85 452C81.6863 452 79 449.314 79 446Z" fill="#EBF1FF"/>
<path d="M99 446C99 442.686 101.686 440 105 440C108.314 440 111 442.686 111 446C111 449.314 108.314 452 105 452C101.686 452 99 449.314 99 446Z" fill="#EBF1FF"/>
<path d="M119 446C119 442.686 121.686 440 125 440C128.314 440 131 442.686 131 446C131 449.314 128.314 452 125 452C121.686 452 119 449.314 119 446Z" fill="#EBF1FF"/>
<path d="M139 446C139 442.686 141.686 440 145 440C148.314 440 151 442.686 151 446C151 449.314 148.314 452 145 452C141.686 452 139 449.314 139 446Z" fill="#EBF1FF"/>
<path d="M159 446C159 442.686 161.686 440 165 440C168.314 440 171 442.686 171 446C171 449.314 168.314 452 165 452C161.686 452 159 449.314 159 446Z" fill="#EBF1FF"/>
<path d="M79 466C79 462.686 81.6863 460 85 460C88.3137 460 91 462.686 91 466C91 469.314 88.3137 472 85 472C81.6863 472 79 469.314 79 466Z" fill="#EBF1FF"/>
<path d="M99 466C99 462.686 101.686 460 105 460C108.314 460 111 462.686 111 466C111 469.314 108.314 472 105 472C101.686 472 99 469.314 99 466Z" fill="#EBF1FF"/>
<path d="M119 466C119 462.686 121.686 460 125 460C128.314 460 131 462.686 131 466C131 469.314 128.314 472 125 472C121.686 472 119 469.314 119 466Z" fill="#EBF1FF"/>
<path d="M139 466C139 462.686 141.686 460 145 460C148.314 460 151 462.686 151 466C151 469.314 148.314 472 145 472C141.686 472 139 469.314 139 466Z" fill="#EBF1FF"/>
<path d="M159 466C159 462.686 161.686 460 165 460C168.314 460 171 462.686 171 466C171 469.314 168.314 472 165 472C161.686 472 159 469.314 159 466Z" fill="#EBF1FF"/>
<path d="M79 486C79 482.686 81.6863 480 85 480C88.3137 480 91 482.686 91 486C91 489.314 88.3137 492 85 492C81.6863 492 79 489.314 79 486Z" fill="#EBF1FF"/>
<path d="M99 486C99 482.686 101.686 480 105 480C108.314 480 111 482.686 111 486C111 489.314 108.314 492 105 492C101.686 492 99 489.314 99 486Z" fill="#EBF1FF"/>
<path d="M119 486C119 482.686 121.686 480 125 480C128.314 480 131 482.686 131 486C131 489.314 128.314 492 125 492C121.686 492 119 489.314 119 486Z" fill="#EBF1FF"/>
<path d="M139 486C139 482.686 141.686 480 145 480C148.314 480 151 482.686 151 486C151 489.314 148.314 492 145 492C141.686 492 139 489.314 139 486Z" fill="#EBF1FF"/>
<path d="M159 486C159 482.686 161.686 480 165 480C168.314 480 171 482.686 171 486C171 489.314 168.314 492 165 492C161.686 492 159 489.314 159 486Z" fill="#EBF1FF"/>
<path d="M0 6C0 2.68629 2.68629 0 6 0C9.31371 0 12 2.68629 12 6C12 9.31371 9.31371 12 6 12C2.68629 12 0 9.31371 0 6Z" fill="#EBF1FF"/>
<path d="M20 6C20 2.68629 22.6863 0 26 0C29.3137 0 32 2.68629 32 6C32 9.31371 29.3137 12 26 12C22.6863 12 20 9.31371 20 6Z" fill="#EBF1FF"/>
<path d="M40 6C40 2.68629 42.6863 0 46 0C49.3137 0 52 2.68629 52 6C52 9.31371 49.3137 12 46 12C42.6863 12 40 9.31371 40 6Z" fill="#EBF1FF"/>
<path d="M60 6C60 2.68629 62.6863 0 66 0C69.3137 0 72 2.68629 72 6C72 9.31371 69.3137 12 66 12C62.6863 12 60 9.31371 60 6Z" fill="#EBF1FF"/>
<path d="M80 6C80 2.68629 82.6863 0 86 0C89.3137 0 92 2.68629 92 6C92 9.31371 89.3137 12 86 12C82.6863 12 80 9.31371 80 6Z" fill="#EBF1FF"/>
<path d="M100 6C100 2.68629 102.686 0 106 0C109.314 0 112 2.68629 112 6C112 9.31371 109.314 12 106 12C102.686 12 100 9.31371 100 6Z" fill="#EBF1FF"/>
<path d="M120 6C120 2.68629 122.686 0 126 0C129.314 0 132 2.68629 132 6C132 9.31371 129.314 12 126 12C122.686 12 120 9.31371 120 6Z" fill="#EBF1FF"/>
<path d="M140 6C140 2.68629 142.686 0 146 0C149.314 0 152 2.68629 152 6C152 9.31371 149.314 12 146 12C142.686 12 140 9.31371 140 6Z" fill="#EBF1FF"/>
<path d="M160 6C160 2.68629 162.686 0 166 0C169.314 0 172 2.68629 172 6C172 9.31371 169.314 12 166 12C162.686 12 160 9.31371 160 6Z" fill="#EBF1FF"/>
<path d="M0 26C0 22.6863 2.68629 20 6 20C9.31371 20 12 22.6863 12 26C12 29.3137 9.31371 32 6 32C2.68629 32 0 29.3137 0 26Z" fill="#EBF1FF"/>
<path d="M20 26C20 22.6863 22.6863 20 26 20C29.3137 20 32 22.6863 32 26C32 29.3137 29.3137 32 26 32C22.6863 32 20 29.3137 20 26Z" fill="#EBF1FF"/>
<path d="M40 26C40 22.6863 42.6863 20 46 20C49.3137 20 52 22.6863 52 26C52 29.3137 49.3137 32 46 32C42.6863 32 40 29.3137 40 26Z" fill="#EBF1FF"/>
<path d="M60 26C60 22.6863 62.6863 20 66 20C69.3137 20 72 22.6863 72 26C72 29.3137 69.3137 32 66 32C62.6863 32 60 29.3137 60 26Z" fill="#EBF1FF"/>
<path d="M80 26C80 22.6863 82.6863 20 86 20C89.3137 20 92 22.6863 92 26C92 29.3137 89.3137 32 86 32C82.6863 32 80 29.3137 80 26Z" fill="#EBF1FF"/>
<path d="M100 26C100 22.6863 102.686 20 106 20C109.314 20 112 22.6863 112 26C112 29.3137 109.314 32 106 32C102.686 32 100 29.3137 100 26Z" fill="#EBF1FF"/>
<path d="M120 26C120 22.6863 122.686 20 126 20C129.314 20 132 22.6863 132 26C132 29.3137 129.314 32 126 32C122.686 32 120 29.3137 120 26Z" fill="#EBF1FF"/>
<path d="M140 26C140 22.6863 142.686 20 146 20C149.314 20 152 22.6863 152 26C152 29.3137 149.314 32 146 32C142.686 32 140 29.3137 140 26Z" fill="#EBF1FF"/>
<path d="M160 26C160 22.6863 162.686 20 166 20C169.314 20 172 22.6863 172 26C172 29.3137 169.314 32 166 32C162.686 32 160 29.3137 160 26Z" fill="#EBF1FF"/>
<path d="M0 46C0 42.6863 2.68629 40 6 40C9.31371 40 12 42.6863 12 46C12 49.3137 9.31371 52 6 52C2.68629 52 0 49.3137 0 46Z" fill="#EBF1FF"/>
<path d="M20 46C20 42.6863 22.6863 40 26 40C29.3137 40 32 42.6863 32 46C32 49.3137 29.3137 52 26 52C22.6863 52 20 49.3137 20 46Z" fill="#EBF1FF"/>
<path d="M40 46C40 42.6863 42.6863 40 46 40C49.3137 40 52 42.6863 52 46C52 49.3137 49.3137 52 46 52C42.6863 52 40 49.3137 40 46Z" fill="#EBF1FF"/>
<path d="M60 46C60 42.6863 62.6863 40 66 40C69.3137 40 72 42.6863 72 46C72 49.3137 69.3137 52 66 52C62.6863 52 60 49.3137 60 46Z" fill="#EBF1FF"/>
<path d="M80 46C80 42.6863 82.6863 40 86 40C89.3137 40 92 42.6863 92 46C92 49.3137 89.3137 52 86 52C82.6863 52 80 49.3137 80 46Z" fill="#EBF1FF"/>
<path d="M100 46C100 42.6863 102.686 40 106 40C109.314 40 112 42.6863 112 46C112 49.3137 109.314 52 106 52C102.686 52 100 49.3137 100 46Z" fill="#EBF1FF"/>
<path d="M120 46C120 42.6863 122.686 40 126 40C129.314 40 132 42.6863 132 46C132 49.3137 129.314 52 126 52C122.686 52 120 49.3137 120 46Z" fill="#EBF1FF"/>
<path d="M140 46C140 42.6863 142.686 40 146 40C149.314 40 152 42.6863 152 46C152 49.3137 149.314 52 146 52C142.686 52 140 49.3137 140 46Z" fill="#EBF1FF"/>
<path d="M160 46C160 42.6863 162.686 40 166 40C169.314 40 172 42.6863 172 46C172 49.3137 169.314 52 166 52C162.686 52 160 49.3137 160 46Z" fill="#EBF1FF"/>
<path d="M0 66C0 62.6863 2.68629 60 6 60C9.31371 60 12 62.6863 12 66C12 69.3137 9.31371 72 6 72C2.68629 72 0 69.3137 0 66Z" fill="#EBF1FF"/>
<path d="M20 66C20 62.6863 22.6863 60 26 60C29.3137 60 32 62.6863 32 66C32 69.3137 29.3137 72 26 72C22.6863 72 20 69.3137 20 66Z" fill="#EBF1FF"/>
<path d="M40 66C40 62.6863 42.6863 60 46 60C49.3137 60 52 62.6863 52 66C52 69.3137 49.3137 72 46 72C42.6863 72 40 69.3137 40 66Z" fill="#EBF1FF"/>
<path d="M60 66C60 62.6863 62.6863 60 66 60C69.3137 60 72 62.6863 72 66C72 69.3137 69.3137 72 66 72C62.6863 72 60 69.3137 60 66Z" fill="#EBF1FF"/>
<path d="M80 66C80 62.6863 82.6863 60 86 60C89.3137 60 92 62.6863 92 66C92 69.3137 89.3137 72 86 72C82.6863 72 80 69.3137 80 66Z" fill="#EBF1FF"/>
<path d="M100 66C100 62.6863 102.686 60 106 60C109.314 60 112 62.6863 112 66C112 69.3137 109.314 72 106 72C102.686 72 100 69.3137 100 66Z" fill="#EBF1FF"/>
<path d="M120 66C120 62.6863 122.686 60 126 60C129.314 60 132 62.6863 132 66C132 69.3137 129.314 72 126 72C122.686 72 120 69.3137 120 66Z" fill="#EBF1FF"/>
<path d="M140 66C140 62.6863 142.686 60 146 60C149.314 60 152 62.6863 152 66C152 69.3137 149.314 72 146 72C142.686 72 140 69.3137 140 66Z" fill="#EBF1FF"/>
<path d="M160 66C160 62.6863 162.686 60 166 60C169.314 60 172 62.6863 172 66C172 69.3137 169.314 72 166 72C162.686 72 160 69.3137 160 66Z" fill="#EBF1FF"/>
<path d="M0 86C0 82.6863 2.68629 80 6 80C9.31371 80 12 82.6863 12 86C12 89.3137 9.31371 92 6 92C2.68629 92 0 89.3137 0 86Z" fill="#EBF1FF"/>
<path d="M20 86C20 82.6863 22.6863 80 26 80C29.3137 80 32 82.6863 32 86C32 89.3137 29.3137 92 26 92C22.6863 92 20 89.3137 20 86Z" fill="#EBF1FF"/>
<path d="M40 86C40 82.6863 42.6863 80 46 80C49.3137 80 52 82.6863 52 86C52 89.3137 49.3137 92 46 92C42.6863 92 40 89.3137 40 86Z" fill="#EBF1FF"/>
<path d="M60 86C60 82.6863 62.6863 80 66 80C69.3137 80 72 82.6863 72 86C72 89.3137 69.3137 92 66 92C62.6863 92 60 89.3137 60 86Z" fill="#EBF1FF"/>
<path d="M80 86C80 82.6863 82.6863 80 86 80C89.3137 80 92 82.6863 92 86C92 89.3137 89.3137 92 86 92C82.6863 92 80 89.3137 80 86Z" fill="#EBF1FF"/>
<path d="M100 86C100 82.6863 102.686 80 106 80C109.314 80 112 82.6863 112 86C112 89.3137 109.314 92 106 92C102.686 92 100 89.3137 100 86Z" fill="#EBF1FF"/>
<path d="M120 86C120 82.6863 122.686 80 126 80C129.314 80 132 82.6863 132 86C132 89.3137 129.314 92 126 92C122.686 92 120 89.3137 120 86Z" fill="#EBF1FF"/>
<path d="M140 86C140 82.6863 142.686 80 146 80C149.314 80 152 82.6863 152 86C152 89.3137 149.314 92 146 92C142.686 92 140 89.3137 140 86Z" fill="#EBF1FF"/>
<path d="M160 86C160 82.6863 162.686 80 166 80C169.314 80 172 82.6863 172 86C172 89.3137 169.314 92 166 92C162.686 92 160 89.3137 160 86Z" fill="#EBF1FF"/>
<path d="M0 106C0 102.686 2.68629 100 6 100C9.31371 100 12 102.686 12 106C12 109.314 9.31371 112 6 112C2.68629 112 0 109.314 0 106Z" fill="#EBF1FF"/>
<path d="M20 106C20 102.686 22.6863 100 26 100C29.3137 100 32 102.686 32 106C32 109.314 29.3137 112 26 112C22.6863 112 20 109.314 20 106Z" fill="#EBF1FF"/>
<path d="M40 106C40 102.686 42.6863 100 46 100C49.3137 100 52 102.686 52 106C52 109.314 49.3137 112 46 112C42.6863 112 40 109.314 40 106Z" fill="#EBF1FF"/>
<path d="M60 106C60 102.686 62.6863 100 66 100C69.3137 100 72 102.686 72 106C72 109.314 69.3137 112 66 112C62.6863 112 60 109.314 60 106Z" fill="#EBF1FF"/>
<path d="M80 106C80 102.686 82.6863 100 86 100C89.3137 100 92 102.686 92 106C92 109.314 89.3137 112 86 112C82.6863 112 80 109.314 80 106Z" fill="#EBF1FF"/>
<path d="M100 106C100 102.686 102.686 100 106 100C109.314 100 112 102.686 112 106C112 109.314 109.314 112 106 112C102.686 112 100 109.314 100 106Z" fill="#EBF1FF"/>
<path d="M120 106C120 102.686 122.686 100 126 100C129.314 100 132 102.686 132 106C132 109.314 129.314 112 126 112C122.686 112 120 109.314 120 106Z" fill="#EBF1FF"/>
<path d="M140 106C140 102.686 142.686 100 146 100C149.314 100 152 102.686 152 106C152 109.314 149.314 112 146 112C142.686 112 140 109.314 140 106Z" fill="#EBF1FF"/>
<path d="M160 106C160 102.686 162.686 100 166 100C169.314 100 172 102.686 172 106C172 109.314 169.314 112 166 112C162.686 112 160 109.314 160 106Z" fill="#EBF1FF"/>
<path d="M0 126C0 122.686 2.68629 120 6 120C9.31371 120 12 122.686 12 126C12 129.314 9.31371 132 6 132C2.68629 132 0 129.314 0 126Z" fill="#EBF1FF"/>
<path d="M20 126C20 122.686 22.6863 120 26 120C29.3137 120 32 122.686 32 126C32 129.314 29.3137 132 26 132C22.6863 132 20 129.314 20 126Z" fill="#EBF1FF"/>
<path d="M40 126C40 122.686 42.6863 120 46 120C49.3137 120 52 122.686 52 126C52 129.314 49.3137 132 46 132C42.6863 132 40 129.314 40 126Z" fill="#EBF1FF"/>
<path d="M60 126C60 122.686 62.6863 120 66 120C69.3137 120 72 122.686 72 126C72 129.314 69.3137 132 66 132C62.6863 132 60 129.314 60 126Z" fill="#EBF1FF"/>
<path d="M80 126C80 122.686 82.6863 120 86 120C89.3137 120 92 122.686 92 126C92 129.314 89.3137 132 86 132C82.6863 132 80 129.314 80 126Z" fill="#EBF1FF"/>
<path d="M100 126C100 122.686 102.686 120 106 120C109.314 120 112 122.686 112 126C112 129.314 109.314 132 106 132C102.686 132 100 129.314 100 126Z" fill="#EBF1FF"/>
<path d="M120 126C120 122.686 122.686 120 126 120C129.314 120 132 122.686 132 126C132 129.314 129.314 132 126 132C122.686 132 120 129.314 120 126Z" fill="#EBF1FF"/>
<path d="M140 126C140 122.686 142.686 120 146 120C149.314 120 152 122.686 152 126C152 129.314 149.314 132 146 132C142.686 132 140 129.314 140 126Z" fill="#EBF1FF"/>
<path d="M160 126C160 122.686 162.686 120 166 120C169.314 120 172 122.686 172 126C172 129.314 169.314 132 166 132C162.686 132 160 129.314 160 126Z" fill="#EBF1FF"/>
<path d="M0 146C0 142.686 2.68629 140 6 140C9.31371 140 12 142.686 12 146C12 149.314 9.31371 152 6 152C2.68629 152 0 149.314 0 146Z" fill="#EBF1FF"/>
<path d="M20 146C20 142.686 22.6863 140 26 140C29.3137 140 32 142.686 32 146C32 149.314 29.3137 152 26 152C22.6863 152 20 149.314 20 146Z" fill="#EBF1FF"/>
<path d="M40 146C40 142.686 42.6863 140 46 140C49.3137 140 52 142.686 52 146C52 149.314 49.3137 152 46 152C42.6863 152 40 149.314 40 146Z" fill="#EBF1FF"/>
<path d="M60 146C60 142.686 62.6863 140 66 140C69.3137 140 72 142.686 72 146C72 149.314 69.3137 152 66 152C62.6863 152 60 149.314 60 146Z" fill="#EBF1FF"/>
<path d="M80 146C80 142.686 82.6863 140 86 140C89.3137 140 92 142.686 92 146C92 149.314 89.3137 152 86 152C82.6863 152 80 149.314 80 146Z" fill="#EBF1FF"/>
<path d="M100 146C100 142.686 102.686 140 106 140C109.314 140 112 142.686 112 146C112 149.314 109.314 152 106 152C102.686 152 100 149.314 100 146Z" fill="#EBF1FF"/>
<path d="M120 146C120 142.686 122.686 140 126 140C129.314 140 132 142.686 132 146C132 149.314 129.314 152 126 152C122.686 152 120 149.314 120 146Z" fill="#EBF1FF"/>
<path d="M140 146C140 142.686 142.686 140 146 140C149.314 140 152 142.686 152 146C152 149.314 149.314 152 146 152C142.686 152 140 149.314 140 146Z" fill="#EBF1FF"/>
<path d="M160 146C160 142.686 162.686 140 166 140C169.314 140 172 142.686 172 146C172 149.314 169.314 152 166 152C162.686 152 160 149.314 160 146Z" fill="#EBF1FF"/>
<path d="M0 166C0 162.686 2.68629 160 6 160C9.31371 160 12 162.686 12 166C12 169.314 9.31371 172 6 172C2.68629 172 0 169.314 0 166Z" fill="#EBF1FF"/>
<path d="M20 166C20 162.686 22.6863 160 26 160C29.3137 160 32 162.686 32 166C32 169.314 29.3137 172 26 172C22.6863 172 20 169.314 20 166Z" fill="#EBF1FF"/>
<path d="M40 166C40 162.686 42.6863 160 46 160C49.3137 160 52 162.686 52 166C52 169.314 49.3137 172 46 172C42.6863 172 40 169.314 40 166Z" fill="#EBF1FF"/>
<path d="M60 166C60 162.686 62.6863 160 66 160C69.3137 160 72 162.686 72 166C72 169.314 69.3137 172 66 172C62.6863 172 60 169.314 60 166Z" fill="#EBF1FF"/>
<path d="M80 166C80 162.686 82.6863 160 86 160C89.3137 160 92 162.686 92 166C92 169.314 89.3137 172 86 172C82.6863 172 80 169.314 80 166Z" fill="#EBF1FF"/>
<path d="M100 166C100 162.686 102.686 160 106 160C109.314 160 112 162.686 112 166C112 169.314 109.314 172 106 172C102.686 172 100 169.314 100 166Z" fill="#EBF1FF"/>
<path d="M120 166C120 162.686 122.686 160 126 160C129.314 160 132 162.686 132 166C132 169.314 129.314 172 126 172C122.686 172 120 169.314 120 166Z" fill="#EBF1FF"/>
<path d="M140 166C140 162.686 142.686 160 146 160C149.314 160 152 162.686 152 166C152 169.314 149.314 172 146 172C142.686 172 140 169.314 140 166Z" fill="#EBF1FF"/>
<path d="M160 166C160 162.686 162.686 160 166 160C169.314 160 172 162.686 172 166C172 169.314 169.314 172 166 172C162.686 172 160 169.314 160 166Z" fill="#EBF1FF"/>
</svg>
