<svg width="20" height="20" viewBox="0 0 20 20" fill="none" xmlns="http://www.w3.org/2000/svg">
<path fill-rule="evenodd" clip-rule="evenodd" d="M2.1875 5.625C2.1875 2.86357 4.42606 0.625 7.1875 0.625H11.7609C12.3942 0.625 13.0038 0.865297 13.4668 1.29736L17.0183 4.61216C17.5249 5.08497 17.8125 5.74684 17.8125 6.43978V14.375C17.8125 17.1364 15.5739 19.375 12.8125 19.375H7.1875C4.42606 19.375 2.1875 17.1364 2.1875 14.375V5.625ZM7.1875 1.875C5.11644 1.875 3.4375 3.55394 3.4375 5.625V14.375C3.4375 16.4461 5.11644 18.125 7.1875 18.125H12.8125C14.8836 18.125 16.5625 16.4461 16.5625 14.375V6.25H14.0625C12.6818 6.25 11.5625 5.13072 11.5625 3.75V1.875H7.1875ZM12.8125 2.39659L15.6019 5H14.0625C13.3722 5 12.8125 4.44034 12.8125 3.75V2.39659Z" fill="black"/>
<path d="M7.38976 12.2014C7.13551 11.9679 7.1187 11.5726 7.35217 11.3183C7.58567 11.0641 7.98104 11.0473 8.23526 11.2808L9.37501 12.3274V8.125C9.37501 7.77981 9.65482 7.5 10 7.5C10.3452 7.5 10.625 7.77981 10.625 8.125V12.3274L11.7648 11.2808C12.019 11.0473 12.4144 11.0641 12.6479 11.3183C12.8813 11.5726 12.8645 11.9679 12.6103 12.2014L10.4228 14.2103C10.1837 14.4299 9.81632 14.4299 9.57726 14.2103L7.38976 12.2014Z" fill="black"/>
</svg>
