<svg width="200" height="200" viewBox="0 0 200 200" fill="none" xmlns="http://www.w3.org/2000/svg">
<path d="M54.1748 9.0338C56.0895 6.16173 59.9698 5.38564 62.842 7.30036C65.7142 9.21505 66.4901 13.0955 64.5754 15.9675L46.0532 43.7506H135.197L116.675 15.9675C114.76 13.0955 115.536 9.21508 118.408 7.30036C121.28 5.38567 125.161 6.16173 127.075 9.0338L150.221 43.7524C165.571 43.9331 177.233 57.7496 174.64 72.9434L170.72 95.9149C166.934 94.1403 162.918 92.7753 158.729 91.8768L162.318 70.8406C163.615 63.2415 157.735 56.2506 149.917 56.2506H31.3332C23.5151 56.2506 17.6352 63.2415 18.932 70.8406L30.6638 139.591C31.6864 145.583 36.911 150.001 43.0651 150.001H90.7104C90.9467 154.315 91.6692 158.499 92.8235 162.501H43.0651C30.8563 162.501 20.3957 153.728 18.342 141.693L6.61011 72.9434C4.01742 57.7496 15.679 43.9331 31.029 43.7524L54.1748 9.0338Z" fill="#CBCECF"/>
<path d="M138.794 129.956C136.354 127.515 132.396 127.515 129.956 129.956C127.515 132.396 127.515 136.354 129.956 138.794L138.036 146.875L129.956 154.956C127.515 157.396 127.515 161.354 129.956 163.794C132.396 166.235 136.354 166.235 138.794 163.794L146.875 155.714L154.956 163.794C157.396 166.235 161.354 166.235 163.794 163.794C166.235 161.354 166.235 157.396 163.794 154.956L155.714 146.875L163.794 138.794C166.235 136.354 166.235 132.396 163.794 129.956C161.354 127.515 157.396 127.515 154.956 129.956L146.875 138.036L138.794 129.956Z" fill="#E22900"/>
<path fill-rule="evenodd" clip-rule="evenodd" d="M100 146.875C100 120.987 120.987 100 146.875 100C172.763 100 193.75 120.987 193.75 146.875C193.75 172.763 172.763 193.75 146.875 193.75C120.987 193.75 100 172.763 100 146.875ZM146.875 112.5C127.89 112.5 112.5 127.89 112.5 146.875C112.5 165.86 127.89 181.25 146.875 181.25C165.86 181.25 181.25 165.86 181.25 146.875C181.25 127.89 165.86 112.5 146.875 112.5Z" fill="#E22900"/>
</svg>
