<svg width="20" height="20" viewBox="0 0 20 20" fill="none" xmlns="http://www.w3.org/2000/svg">
<path d="M9.99023 3.75C9.64508 3.75 9.36523 4.02981 9.36523 4.375V10.3125C9.36523 10.6577 9.64508 10.9375 9.99023 10.9375C10.3354 10.9375 10.6152 10.6577 10.6152 10.3125V4.375C10.6152 4.02981 10.3354 3.75 9.99023 3.75Z" fill="black"/>
<path fill-rule="evenodd" clip-rule="evenodd" d="M5.32425 3.80728C4.56437 2.68802 5.13197 1.05463 6.59722 0.69051C7.49475 0.46746 8.45834 0.824172 8.9585 1.60545L9.98931 3.21563L11.0202 1.60545C11.5203 0.824172 12.4839 0.46746 13.3814 0.69051C14.8471 1.05473 15.4146 2.68889 14.6538 3.80816C16.4914 4.11097 17.9958 5.56403 18.2003 7.49681C18.495 10.2813 18.4926 12.8246 18.1975 15.6215C17.9676 17.8015 16.0862 19.3748 13.9343 19.3748H6.03631C3.8735 19.3748 1.98747 17.7861 1.76764 15.595C1.49447 12.8722 1.49432 10.229 1.76599 7.52563C1.96159 5.57922 3.47325 4.10988 5.32425 3.80728ZM13.08 1.90361C12.6767 1.8034 12.2698 1.97185 12.0729 2.27941L11.1315 3.74984H12.7519L13.3669 3.34675C13.9501 2.96449 13.8374 2.09184 13.08 1.90361ZM8.84709 3.74984L7.90575 2.27941C7.70884 1.97185 7.30194 1.8034 6.89869 1.90361C6.14125 2.09184 6.0285 2.96449 6.61175 3.34675L7.22678 3.74984H8.84709ZM6.03266 4.99984C4.47341 4.99984 3.16162 6.139 3.00973 7.65063C2.93886 8.35591 2.88611 9.02931 2.85148 9.68734H17.1253C17.0887 9.02191 17.0327 8.34128 16.9572 7.62834C16.7984 6.12706 15.4912 4.99984 13.9399 4.99984H6.03266ZM13.9343 18.1248H10.6143V10.9373H17.1713C17.1983 12.4114 17.126 13.8634 16.9544 15.4903C16.7957 16.9947 15.4872 18.1248 13.9343 18.1248ZM9.36431 18.1248V10.9373H2.80723C2.78117 12.4086 2.84929 13.8545 3.0114 15.4702C3.16325 16.9838 4.47591 18.1248 6.03631 18.1248H9.36431Z" fill="black"/>
</svg>
