<svg width="32" height="32" viewBox="0 0 32 32" fill="none" xmlns="http://www.w3.org/2000/svg">
<path fill-rule="evenodd" clip-rule="evenodd" d="M4 1C2.34315 1 1 2.34315 1 4V15C1 16.6568 2.34315 18 4 18H12C13.6568 18 15 16.6568 15 15V4C15 2.34315 13.6568 1 12 1H4ZM3 4C3 3.44772 3.44772 3 4 3H12C12.5523 3 13 3.44772 13 4V15C13 15.5523 12.5523 16 12 16H4C3.44772 16 3 15.5523 3 15V4Z" fill="#FDFFFF"/>
<path fill-rule="evenodd" clip-rule="evenodd" d="M20 31C18.3432 31 17 29.6568 17 28V17C17 15.3432 18.3432 14 20 14H28C29.6568 14 31 15.3432 31 17V28C31 29.6568 29.6568 31 28 31H20ZM19 28C19 28.5523 19.4477 29 20 29H28C28.5523 29 29 28.5523 29 28V17C29 16.4477 28.5523 16 28 16H20C19.4477 16 19 16.4477 19 17V28Z" fill="#FDFFFF"/>
<path fill-rule="evenodd" clip-rule="evenodd" d="M1 23C1 21.3432 2.34315 20 4 20H12C13.6568 20 15 21.3432 15 23V28C15 29.6568 13.6568 31 12 31H4C2.34315 31 1 29.6568 1 28V23ZM4 22C3.44772 22 3 22.4477 3 23V28C3 28.5523 3.44772 29 4 29H12C12.5523 29 13 28.5523 13 28V23C13 22.4477 12.5523 22 12 22H4Z" fill="#FDFFFF"/>
<path fill-rule="evenodd" clip-rule="evenodd" d="M20 12C18.3432 12 17 10.6568 17 9V4C17 2.34315 18.3432 1 20 1H28C29.6568 1 31 2.34315 31 4V9C31 10.6568 29.6568 12 28 12H20ZM19 9C19 9.5523 19.4477 10 20 10H28C28.5523 10 29 9.5523 29 9V4C29 3.44772 28.5523 3 28 3H20C19.4477 3 19 3.44772 19 4V9Z" fill="#FDFFFF"/>
</svg>
