<svg width="32" height="32" viewBox="0 0 32 32" fill="none" xmlns="http://www.w3.org/2000/svg">
<path fill-rule="evenodd" clip-rule="evenodd" d="M4 13C4 6.3726 9.3726 1 16 1C22.6274 1 28 6.3726 28 13V22.8377L28.7208 25H29C29.5523 25 30 25.4477 30 26C30 26.5523 29.5523 27 29 27H3C2.44771 27 2 26.5523 2 26C2 25.4477 2.44771 25 3 25H3.27924L4 22.8377V13ZM26.0513 23.3162L26.6126 25H5.38745L5.9487 23.3162C5.98265 23.2143 6 23.1075 6 23V13C6 7.47715 10.4771 3 16 3C21.5229 3 26 7.47715 26 13V23C26 23.1075 26.0173 23.2143 26.0513 23.3162Z" fill="#FDFFFF"/>
<path d="M17.5 27.5C17.5 28.3285 16.8285 29 16 29C15.1716 29 14.5 28.3285 14.5 27.5H12.5C12.5 29.433 14.067 31 16 31C17.933 31 19.5 29.433 19.5 27.5H17.5Z" fill="#FDFFFF"/>
</svg>
