<svg width="24" height="25" viewBox="0 0 24 25" fill="none" xmlns="http://www.w3.org/2000/svg">
<path fill-rule="evenodd" clip-rule="evenodd" d="M22 21.5C22 20.9477 21.5523 20.5 21 20.5H3C2.44772 20.5 2 20.9477 2 21.5C2 22.0523 2.44772 22.5 3 22.5H21C21.5523 22.5 22 22.0523 22 21.5Z" fill="#666B6E"/>
<path fill-rule="evenodd" clip-rule="evenodd" d="M5.29289 10.2071C4.90237 9.81658 4.90237 9.18342 5.29289 8.79289L11.2929 2.79289C11.4804 2.60536 11.7348 2.5 12 2.5C12.2652 2.5 12.5196 2.60536 12.7071 2.79289L18.7071 8.79289C19.0976 9.18342 19.0976 9.81658 18.7071 10.2071C18.3166 10.5976 17.6834 10.5976 17.2929 10.2071L13 5.91421V17.5C13 18.0523 12.5523 18.5 12 18.5C11.4477 18.5 11 18.0523 11 17.5V5.91421L6.70711 10.2071C6.31658 10.5976 5.68342 10.5976 5.29289 10.2071Z" fill="#949BFF"/>
</svg>
