<svg width="28" height="28" viewBox="0 0 28 28" fill="none" xmlns="http://www.w3.org/2000/svg">
<path d="M13.9987 0C6.26715 0 -0.00195312 6.26787 -0.00195312 14C-0.00195312 21.7321 6.26653 28 13.9987 28C21.7314 28 27.9993 21.7321 27.9993 14C27.9993 6.26787 21.7314 0 13.9987 0ZM13.9987 4.18616C16.557 4.18616 18.6301 6.25987 18.6301 8.81696C18.6301 11.3747 16.557 13.4477 13.9987 13.4477C11.4416 13.4477 9.36848 11.3747 9.36848 8.81696C9.36848 6.25987 11.4416 4.18616 13.9987 4.18616ZM13.9956 24.3396C11.444 24.3396 9.10712 23.4104 7.30461 21.8723C6.86552 21.4978 6.61215 20.9486 6.61215 20.3724C6.61215 17.779 8.71107 15.7035 11.3051 15.7035H16.6935C19.2881 15.7035 21.379 17.779 21.379 20.3724C21.379 20.9493 21.1269 21.4972 20.6872 21.8717C18.8853 23.4104 16.5478 24.3396 13.9956 24.3396Z" fill="#000"/>
</svg>
