<svg width="24" height="24" viewBox="0 0 24 24" fill="none" xmlns="http://www.w3.org/2000/svg">
<path fill-rule="evenodd" clip-rule="evenodd" d="M18.8465 4.20882C18.938 4.63388 19.0639 5.20291 19.16 5.63896C20.4061 6.41753 21.3022 7.71514 21.4794 9.28744C21.5066 9.52879 21.5318 9.76718 21.5549 10.0031C22.4484 10.4134 23.123 11.2548 23.2051 12.3294C23.2653 13.1168 23.265 13.8441 23.204 14.6367C23.1235 15.684 22.4811 16.5113 21.6209 16.9335C21.5816 17.4197 21.5333 17.9154 21.476 18.425C21.1857 21.0085 18.9572 22.8552 16.4194 22.8748L16.4017 22.8749L16.3784 22.875H6.11231C3.54353 22.875 1.2854 21.0043 0.993062 18.3968C0.819819 16.8515 0.739314 15.5033 0.751205 14.1447C0.73871 12.5799 0.823355 11.0268 1.00539 9.32472C1.19608 7.54174 2.30949 6.10474 3.81398 5.37301C4.01036 5.26714 4.21448 5.17324 4.42534 5.09232L13.7132 1.37697C15.9301 0.525969 18.354 1.92049 18.8465 4.20882ZM19.9889 9.45597C19.9992 9.54732 20.0091 9.63822 20.0189 9.72867H17.9499C16.4891 9.72867 15.1535 10.8021 15.0419 12.3482C14.9858 13.1243 14.9861 13.8412 15.0425 14.6192C15.1545 16.1654 16.4897 17.2409 17.9521 17.2409H20.0889C20.0587 17.5737 20.0242 17.9119 19.9854 18.2569C19.785 20.0404 18.2252 21.3726 16.3785 21.3726H6.11231C4.25588 21.3726 2.69065 20.0265 2.49889 18.231C2.16792 15.132 2.16684 12.5705 2.49686 9.48473C2.68861 7.69178 4.25261 6.34819 6.10763 6.34819H16.3857C18.2303 6.34819 19.7883 7.67648 19.9889 9.45597ZM14.25 2.77991C15.5735 2.27187 17.0737 3.10136 17.3802 4.52539C17.4014 4.62406 17.4543 4.86083 17.4757 4.95983C17.1222 4.88491 16.7571 4.84576 16.3857 4.84576H9.2592L14.25 2.77991ZM17.9499 11.2311C17.1872 11.2311 16.5867 11.7814 16.538 12.4565C16.4871 13.16 16.4874 13.8044 16.5386 14.5104C16.5876 15.1873 17.1892 15.7384 17.9521 15.7384H20.2983C21.058 15.7384 21.6569 15.1925 21.7085 14.5214C21.7635 13.8048 21.7638 13.1543 21.7095 12.4441C21.6584 11.7757 21.0611 11.2311 20.3018 11.2311H17.9499Z" fill="#6970FF"/>
<path d="M18.75 12.7344C18.3358 12.7344 18 13.0707 18 13.4856C18 13.9005 18.3358 14.2368 18.75 14.2368H19.5C19.9142 14.2368 20.25 13.9005 20.25 13.4856C20.25 13.0707 19.9142 12.7344 19.5 12.7344H18.75Z" fill="#6970FF"/>
</svg>
