<svg width="32" height="33" viewBox="0 0 32 33" fill="none" xmlns="http://www.w3.org/2000/svg">
<path d="M16 1C7.4 1 0.5 7.9 0.5 16.5C0.5 25.1 7.4 32 16 32C24.6 32 31.5 25.1 31.5 16.5C31.5 7.9 24.6 1 16 1ZM20.1 10.45H18.55C17.85 10.45 17.4 10.8 17.4 11.45C17.35 12 17.4 12.6 17.4 13.05C17.4 13.25 17.45 13.25 17.6 13.25H19.9C20.1 13.25 20.2 13.3 20.2 13.55C20.15 14.45 20 15.4 20 16.3C20 16.5 19.95 16.5 19.7 16.5H17.85C17.45 16.5 17.5 16.45 17.5 16.85V25.4C17.5 25.7 17.45 25.75 17.15 25.75H14C13.7 25.75 13.65 25.7 13.65 25.4V16.75C13.65 16.55 13.6 16.4 13.35 16.45H12C11.7 16.6 11.7 16.5 11.7 16.3V13.55C11.7 13.35 11.75 13.35 11.9 13.35H13.3C13.6 13.35 13.65 13.3 13.65 13V10.9C13.65 10.05 13.85 9.3 14.35 8.6C15 7.75 15.9 7.35 16.9 7.25C17.95 7.2 19 7.25 20.05 7.2C20.2 7.2 20.25 7.25 20.25 7.4V10.15C20.3 10.35 20.25 10.45 20.1 10.45Z" fill="#DCE2FF"/>
</svg>
