<svg width="32" height="33" viewBox="0 0 32 33" fill="none" xmlns="http://www.w3.org/2000/svg">
<g clip-path="url(#clip0_16025_4719)">
<path d="M18.9966 17.3788C18.9872 17.8698 18.8323 18.347 18.5514 18.7498C18.2706 19.1527 17.8764 19.4631 17.419 19.6417C16.9615 19.8203 16.4613 19.859 15.9818 19.753C15.5022 19.647 15.065 19.401 14.7254 19.0462C14.3859 18.6914 14.1593 18.2438 14.0744 17.7601C13.9896 17.2764 14.0502 16.7784 14.2487 16.3292C14.4472 15.88 14.7746 15.4998 15.1894 15.2369C15.6042 14.974 16.0877 14.8401 16.5786 14.8523C17.231 14.8765 17.8483 15.1538 18.2997 15.6254C18.7511 16.0971 19.0011 16.726 18.9966 17.3788Z" fill="#DCE2FF"/>
<path d="M20.7831 9.61328H12.3745C11.5424 9.61328 10.7445 9.9438 10.1562 10.5321C9.56783 11.1205 9.2373 11.9184 9.2373 12.7504V21.3482C9.2373 21.7602 9.31845 22.1681 9.47611 22.5487C9.63376 22.9293 9.86485 23.2752 10.1562 23.5665C10.4475 23.8578 10.7933 24.0889 11.1739 24.2465C11.5545 24.4042 11.9625 24.4853 12.3745 24.4853H20.7831C21.1951 24.4853 21.603 24.4042 21.9836 24.2465C22.3643 24.0889 22.7101 23.8578 23.0014 23.5665C23.2927 23.2752 23.5238 22.9293 23.6815 22.5487C23.8391 22.1681 23.9203 21.7602 23.9203 21.3482V12.7659C23.9219 12.3528 23.842 11.9433 23.6851 11.5611C23.5282 11.1789 23.2974 10.8314 23.006 10.5385C22.7146 10.2456 22.3682 10.0132 21.9868 9.85439C21.6053 9.69562 21.1963 9.61369 20.7831 9.61328ZM16.578 21.5838C15.7456 21.6026 14.9265 21.3729 14.2252 20.9241C13.5239 20.4753 12.9722 19.8278 12.6406 19.0641C12.3089 18.3004 12.2124 17.4552 12.3632 16.6363C12.514 15.8175 12.9054 15.0622 13.4874 14.4668C14.0693 13.8713 14.8155 13.4628 15.6307 13.2934C16.4459 13.1239 17.2931 13.2011 18.0641 13.5153C18.8352 13.8294 19.4952 14.3662 19.9599 15.057C20.4246 15.7479 20.6728 16.5616 20.6731 17.3942C20.6798 17.9383 20.5792 18.4784 20.377 18.9836C20.1747 19.4888 19.8748 19.9491 19.4945 20.3383C19.1141 20.7274 18.6607 21.0378 18.1603 21.2515C17.6598 21.4652 17.1221 21.5781 16.578 21.5838ZM21.1288 13.2061C21.0265 13.2062 20.9252 13.1858 20.8309 13.1462C20.7366 13.1066 20.6512 13.0485 20.5796 12.9755C20.508 12.9025 20.4517 12.8159 20.414 12.7208C20.3763 12.6257 20.3579 12.5241 20.36 12.4218C20.36 12.2138 20.4426 12.0144 20.5897 11.8673C20.7368 11.7202 20.9362 11.6376 21.1443 11.6376C21.3523 11.6376 21.5517 11.7202 21.6988 11.8673C21.8459 12.0144 21.9285 12.2138 21.9285 12.4218C21.9316 12.5326 21.9107 12.6427 21.8673 12.7446C21.8239 12.8465 21.759 12.9378 21.677 13.0123C21.595 13.0867 21.4979 13.1426 21.3923 13.1761C21.2867 13.2096 21.1751 13.2198 21.0652 13.2061H21.1288Z" fill="#DCE2FF"/>
<path d="M16.5775 1.50019C12.4667 1.47964 8.51609 3.09294 5.59478 5.98518C2.67347 8.87743 1.02075 12.8117 1.00019 16.9225C0.97964 21.0333 2.59294 24.9839 5.48518 27.9052C8.37743 30.8265 12.3117 32.4793 16.4225 32.4998C18.458 32.51 20.4755 32.1191 22.3599 31.3496C24.2443 30.5801 25.9587 29.4469 27.4052 28.0148C28.8517 26.5827 30.002 24.8797 30.7903 23.0031C31.5786 21.1265 31.9896 19.113 31.9998 17.0775C32.01 15.042 31.6191 13.0245 30.8496 11.1401C30.0801 9.25566 28.9469 7.54127 27.5148 6.09478C26.0827 4.6483 24.3797 3.49804 22.5031 2.7097C20.6265 1.92136 18.613 1.51037 16.5775 1.50019ZM25.9905 21.188C25.9949 21.8834 25.8611 22.5727 25.597 23.216C25.333 23.8593 24.9438 24.4438 24.4522 24.9356C23.9605 25.4274 23.3762 25.8167 22.733 26.0809C22.0897 26.3452 21.4005 26.4792 20.7051 26.475H12.453C11.7576 26.4794 11.0683 26.3456 10.425 26.0815C9.78172 25.8175 9.19724 25.4283 8.70546 24.9367C8.21367 24.445 7.82437 23.8607 7.56011 23.2175C7.29585 22.5742 7.1619 21.885 7.16602 21.1896V12.936C7.1617 12.2406 7.29545 11.5513 7.55952 10.908C7.82359 10.2647 8.21272 9.68019 8.70436 9.18841C9.196 8.69662 9.78037 8.30732 10.4236 8.04306C11.0668 7.7788 11.7561 7.64485 12.4515 7.64897H20.7051C21.4003 7.64485 22.0895 7.77876 22.7326 8.04292C23.3757 8.30708 23.96 8.69624 24.4516 9.18786C24.9433 9.67948 25.3324 10.2638 25.5966 10.9069C25.8607 11.55 25.9946 12.2392 25.9905 12.9344V21.188Z" fill="#DCE2FF"/>
</g>
<defs>
<clipPath id="clip0_16025_4719">
<rect width="32" height="32" fill="white" transform="translate(0 0.5)"/>
</clipPath>
</defs>
</svg>
