<svg width="32" height="33" viewBox="0 0 32 33" fill="none" xmlns="http://www.w3.org/2000/svg">
<path d="M15.9996 1.14062C7.51645 1.14062 0.639648 8.01743 0.639648 16.5006C0.639648 24.9838 7.51645 31.8606 15.9996 31.8606C24.4828 31.8606 31.3596 24.9838 31.3596 16.5006C31.3596 8.01743 24.4828 1.14062 15.9996 1.14062ZM12.2396 22.867H9.12925V12.8574H12.2396V22.867ZM10.6652 11.6286C9.68285 11.6286 9.04765 10.9326 9.04765 10.0718C9.04765 9.19343 9.70205 8.51823 10.7052 8.51823C11.7084 8.51823 12.3228 9.19343 12.342 10.0718C12.342 10.9326 11.7084 11.6286 10.6652 11.6286ZM23.5996 22.867H20.4892V17.3198C20.4892 16.0286 20.038 15.1518 18.9132 15.1518C18.054 15.1518 17.5436 15.7454 17.3181 16.3166C17.2348 16.5198 17.214 16.8078 17.214 17.0942V22.8654H14.102V16.0494C14.102 14.7998 14.062 13.755 14.0204 12.8558H16.7228L16.8652 14.2462H16.9276C17.3372 13.5934 18.3405 12.6302 20.0189 12.6302C22.0653 12.6302 23.5996 14.0014 23.5996 16.9486V22.867Z" fill="#DCE2FF"/>
</svg>
