<svg width="120" height="121" viewBox="0 0 120 121" fill="none" xmlns="http://www.w3.org/2000/svg">
<g clip-path="url(#clip0_16025_4686)">
<path d="M37.5 8H7.5V38H37.5V8ZM45 0.5V45.5H0V0.5H45ZM15 15.5H30V30.5H15V15.5ZM112.5 8H82.5V38H112.5V8ZM120 0.5V45.5H75V0.5H120ZM90 15.5H105V30.5H90V15.5ZM37.5 83H7.5V113H37.5V83ZM45 75.5V120.5H0V75.5H45ZM15 90.5H30V105.5H15V90.5ZM52.5 0.5H60V8H52.5V0.5ZM60 8H67.5V15.5H60V8ZM52.5 15.5H60V23H52.5V15.5ZM60 23H67.5V30.5H60V23ZM52.5 30.5H60V38H52.5V30.5ZM60 38H67.5V45.5H60V38ZM52.5 45.5H60V53H52.5V45.5ZM52.5 60.5H60V68H52.5V60.5ZM60 68H67.5V75.5H60V68ZM52.5 75.5H60V83H52.5V75.5ZM60 83H67.5V90.5H60V83ZM52.5 90.5H60V98H52.5V90.5ZM60 98H67.5V105.5H60V98ZM52.5 105.5H60V113H52.5V105.5ZM60 113H67.5V120.5H60V113ZM112.5 60.5H120V68H112.5V60.5ZM7.5 60.5H15V68H7.5V60.5ZM15 53H22.5V60.5H15V53ZM0 53H7.5V60.5H0V53ZM30 53H37.5V60.5H30V53ZM37.5 60.5H45V68H37.5V60.5ZM45 53H52.5V60.5H45V53ZM67.5 60.5H75V68H67.5V60.5ZM75 53H82.5V60.5H75V53ZM82.5 60.5H90V68H82.5V60.5ZM90 53H97.5V60.5H90V53ZM97.5 60.5H105V68H97.5V60.5ZM105 53H112.5V60.5H105V53ZM112.5 75.5H120V83H112.5V75.5ZM67.5 75.5H75V83H67.5V75.5ZM75 68H82.5V75.5H75V68ZM82.5 75.5H90V83H82.5V75.5ZM97.5 75.5H105V83H97.5V75.5ZM105 68H112.5V75.5H105V68ZM112.5 90.5H120V98H112.5V90.5ZM67.5 90.5H75V98H67.5V90.5ZM75 83H82.5V90.5H75V83ZM90 83H97.5V90.5H90V83ZM97.5 90.5H105V98H97.5V90.5ZM105 83H112.5V90.5H105V83ZM112.5 105.5H120V113H112.5V105.5ZM75 98H82.5V105.5H75V98ZM82.5 105.5H90V113H82.5V105.5ZM90 98H97.5V105.5H90V98ZM97.5 105.5H105V113H97.5V105.5ZM75 113H82.5V120.5H75V113ZM90 113H97.5V120.5H90V113ZM105 113H112.5V120.5H105V113Z" fill="#FDFFFF"/>
</g>
<defs>
<clipPath id="clip0_16025_4686">
<rect width="120" height="120" fill="white" transform="translate(0 0.5)"/>
</clipPath>
</defs>
</svg>
