<svg width="31" height="33" viewBox="0 0 31 33" fill="none" xmlns="http://www.w3.org/2000/svg">
<path d="M15.5 1C6.9375 1 0 7.9375 0 16.5C0 25.0625 6.9375 32 15.5 32C24.0625 32 31 25.0625 31 16.5C31 7.9375 24.0625 1 15.5 1ZM26.0938 22.1812C25.875 22.6875 24.9625 23.0562 23.2938 23.3188C23.2063 23.4375 23.1375 23.9312 23.025 24.3125C22.9562 24.5438 22.7937 24.6812 22.5187 24.6812H22.5063C22.1187 24.6812 21.7062 24.5 20.8937 24.5C19.7937 24.5 19.4125 24.75 18.5562 25.3563C17.65 26 16.7812 26.55 15.4812 26.4937C14.1687 26.5938 13.0687 25.7938 12.45 25.3563C11.5875 24.75 11.2125 24.5 10.1125 24.5C9.33125 24.5 8.8375 24.6938 8.5 24.6938C8.1625 24.6938 8.03125 24.4875 7.98125 24.3188C7.86875 23.9375 7.8 23.4375 7.7125 23.3188C6.85 23.1875 4.9125 22.85 4.86875 21.9813C4.85625 21.7563 5.0125 21.5562 5.2375 21.5187C8.13125 21.0437 9.43125 18.075 9.4875 17.95C9.4875 17.9438 9.49375 17.9375 9.5 17.9312C9.65625 17.6187 9.6875 17.3562 9.6 17.15C9.3875 16.6562 8.48125 16.4812 8.1 16.325C7.1125 15.9375 6.975 15.4875 7.0375 15.1812C7.1375 14.65 7.9375 14.3188 8.40625 14.5375C8.775 14.7125 9.10625 14.8 9.3875 14.8C9.59375 14.8 9.73125 14.75 9.8 14.7125C9.7125 13.2188 9.50625 11.0875 10.0375 9.89375C11.4438 6.75 14.4187 6.5 15.2937 6.5C15.3313 6.5 15.675 6.49375 15.7125 6.49375C17.8813 6.49375 19.9625 7.60625 20.9813 9.8875C21.5125 11.0813 21.3062 13.2063 21.2188 14.7063C21.2875 14.7438 21.4 14.7875 21.575 14.7937C21.8438 14.7812 22.15 14.6938 22.4937 14.5312C22.7437 14.4125 23.0938 14.4312 23.3438 14.5312C23.7375 14.675 23.9875 14.9562 23.9937 15.275C24 15.6812 23.6375 16.0312 22.9188 16.3125C22.8313 16.35 22.725 16.3812 22.6125 16.4187C22.2062 16.55 21.5875 16.7438 21.425 17.1375C21.3375 17.3438 21.375 17.6063 21.525 17.9188C21.5312 17.925 21.5312 17.9312 21.5375 17.9375C21.5938 18.0625 22.8938 21.0312 25.7875 21.5063C26.0375 21.5688 26.2313 21.85 26.0938 22.1812Z" fill="#DCE2FF"/>
</svg>
