<svg width="32" height="33" viewBox="0 0 32 33" fill="none" xmlns="http://www.w3.org/2000/svg">
<g clip-path="url(#clip0_16025_4712)">
<path d="M16.5 1.5C13.4344 1.5 10.4376 2.40906 7.88867 4.11222C5.3397 5.81538 3.35303 8.23615 2.17987 11.0684C1.00672 13.9007 0.699764 17.0172 1.29784 20.0239C1.89591 23.0306 3.37214 25.7924 5.53985 27.9601C7.70756 30.1279 10.4694 31.6041 13.4761 32.2022C16.4828 32.8002 19.5993 32.4933 22.4316 31.3201C25.2638 30.147 27.6846 28.1603 29.3878 25.6113C31.0909 23.0624 32 20.0656 32 17C31.9959 12.8904 30.3615 8.9503 27.4556 6.04438C24.5497 3.13845 20.6096 1.5041 16.5 1.5ZM25.7055 13.4551V14.4564C25.7055 14.5331 25.6901 14.6089 25.6604 14.6796C25.6306 14.7502 25.5869 14.8141 25.532 14.8676C25.4771 14.921 25.4121 14.9629 25.3407 14.9908C25.2693 15.0187 25.1931 15.032 25.1165 15.0299C23.4799 14.9143 21.9142 14.3167 20.6168 13.3125V20.6409C20.6164 21.452 20.4545 22.2549 20.1405 23.0027C19.8265 23.7505 19.3666 24.4283 18.7878 24.9964C18.2042 25.5795 17.5102 26.0402 16.7463 26.3516C15.9825 26.663 15.1642 26.8188 14.3393 26.8099C12.6806 26.8075 11.0886 26.1567 9.9032 24.9964C9.14896 24.236 8.60569 23.2923 8.32685 22.2582C8.04801 21.2241 8.0432 20.1352 8.3129 19.0987C8.55935 18.1036 9.0569 17.1891 9.75905 16.4435C10.2827 15.8035 10.9427 15.2886 11.691 14.9365C12.4392 14.5844 13.2566 14.404 14.0836 14.4084H15.3546V17.048C15.3551 17.1247 15.3393 17.2006 15.3082 17.2707C15.2772 17.3408 15.2315 17.4034 15.1743 17.4545C15.1171 17.5055 15.0497 17.5438 14.9765 17.5667C14.9034 17.5896 14.8262 17.5967 14.7501 17.5874C14.0121 17.3658 13.2169 17.4393 12.5321 17.7925C11.8472 18.1457 11.3263 18.751 11.0791 19.4808C10.8319 20.2107 10.8777 21.0079 11.2068 21.7046C11.536 22.4013 12.1228 22.943 12.8436 23.2155C13.2621 23.4557 13.7302 23.5968 14.2107 23.6293C14.5827 23.6448 14.9547 23.5983 15.3081 23.4867C15.898 23.2877 16.4112 22.9095 16.776 22.405C17.1408 21.9004 17.3391 21.2946 17.3432 20.6719V7.3187C17.3432 7.17098 17.4018 7.02928 17.5061 6.92468C17.6104 6.82008 17.7519 6.76111 17.8997 6.7607H20.0929C20.2354 6.76087 20.3724 6.81557 20.4759 6.91356C20.5794 7.01155 20.6414 7.14541 20.6494 7.2877C20.7293 7.9716 20.9465 8.63232 21.288 9.23026C21.6294 9.8282 22.0881 10.351 22.6365 10.7674C23.3775 11.3237 24.2576 11.6648 25.18 11.7532C25.3182 11.7651 25.4473 11.8265 25.5437 11.9263C25.64 12.026 25.6969 12.1573 25.7039 12.2957L25.7055 13.4551Z" fill="#DCE2FF"/>
</g>
<defs>
<clipPath id="clip0_16025_4712">
<rect width="32" height="32" fill="white" transform="translate(0 0.5)"/>
</clipPath>
</defs>
</svg>
