<svg width="32" height="32" viewBox="0 0 32 32" fill="none" xmlns="http://www.w3.org/2000/svg">
<path d="M0 16C0 7.16344 7.16344 0 16 0C24.8366 0 32 7.16344 32 16C32 24.8366 24.8366 32 16 32C7.16344 32 0 24.8366 0 16Z" fill="#EBF1FF"/>
<path d="M16 11.625C15.8342 11.625 15.6753 11.5592 15.5581 11.4419C15.4408 11.3247 15.375 11.1658 15.375 11C15.375 10.8342 15.4408 10.6753 15.5581 10.5581C15.6753 10.4408 15.8342 10.375 16 10.375C16.1658 10.375 16.3247 10.4408 16.4419 10.5581C16.5592 10.6753 16.625 10.8342 16.625 11C16.625 11.1658 16.5592 11.3247 16.4419 11.4419C16.3247 11.5592 16.1658 11.625 16 11.625ZM16 16.625C15.8342 16.625 15.6753 16.5592 15.5581 16.4419C15.4408 16.3247 15.375 16.1658 15.375 16C15.375 15.8342 15.4408 15.6753 15.5581 15.5581C15.6753 15.4408 15.8342 15.375 16 15.375C16.1658 15.375 16.3247 15.4408 16.4419 15.5581C16.5592 15.6753 16.625 15.8342 16.625 16C16.625 16.1658 16.5592 16.3247 16.4419 16.4419C16.3247 16.5592 16.1658 16.625 16 16.625ZM16 21.625C15.8342 21.625 15.6753 21.5592 15.5581 21.4419C15.4408 21.3247 15.375 21.1658 15.375 21C15.375 20.8342 15.4408 20.6753 15.5581 20.5581C15.6753 20.4408 15.8342 20.375 16 20.375C16.1658 20.375 16.3247 20.4408 16.4419 20.5581C16.5592 20.6753 16.625 20.8342 16.625 21C16.625 21.1658 16.5592 21.3247 16.4419 21.4419C16.3247 21.5592 16.1658 21.625 16 21.625Z" stroke="#6970FF" stroke-width="1.5" stroke-linecap="round" stroke-linejoin="round"/>
</svg>
