<svg width="16" height="16" viewBox="0 0 16 16" fill="none" xmlns="http://www.w3.org/2000/svg">
<path d="M1.5 12.5C5.05707 12.4971 8.59867 12.9681 12.0313 13.9007C12.516 14.0327 13 13.6727 13 13.17V12.5M2.5 3V3.5C2.5 3.63261 2.44732 3.75979 2.35355 3.85355C2.25979 3.94732 2.13261 4 2 4H1.5M1.5 4V3.75C1.5 3.336 1.836 3 2.25 3H13.5M1.5 4V10M13.5 3V3.5C13.5 3.776 13.724 4 14 4H14.5M13.5 3H13.75C14.164 3 14.5 3.336 14.5 3.75V10.25C14.5 10.664 14.164 11 13.75 11H13.5M1.5 10V10.25C1.5 10.4489 1.57902 10.6397 1.71967 10.7803C1.86032 10.921 2.05109 11 2.25 11H2.5M1.5 10H2C2.13261 10 2.25979 10.0527 2.35355 10.1464C2.44732 10.2402 2.5 10.3674 2.5 10.5V11M13.5 11V10.5C13.5 10.3674 13.5527 10.2402 13.6464 10.1464C13.7402 10.0527 13.8674 10 14 10H14.5M13.5 11H2.5M10 7C10 7.53043 9.78929 8.03914 9.41421 8.41421C9.03914 8.78929 8.53043 9 8 9C7.46957 9 6.96086 8.78929 6.58579 8.41421C6.21071 8.03914 6 7.53043 6 7C6 6.46957 6.21071 5.96086 6.58579 5.58579C6.96086 5.21071 7.46957 5 8 5C8.53043 5 9.03914 5.21071 9.41421 5.58579C9.78929 5.96086 10 6.46957 10 7ZM12 7H12.0053V7.00533H12V7ZM4 7H4.00533V7.00533H4V7Z" stroke="#6970FF" stroke-width="1.2" stroke-linecap="round" stroke-linejoin="round"/>
</svg>