<svg width="24" height="12" viewBox="0 0 24 12" fill="none" xmlns="http://www.w3.org/2000/svg">
<path d="M0.5 6C0.5 5.06128 0.500271 4.38227 0.5369 3.84541C0.573224 3.31304 0.643622 2.95707 0.766422 2.66061C1.12165 1.80301 1.80301 1.12165 2.66061 0.766422C2.95707 0.643622 3.31304 0.573224 3.84541 0.5369C4.38227 0.500271 5.06128 0.5 6 0.5H18C18.9387 0.5 19.6177 0.500271 20.1546 0.5369C20.687 0.573224 21.0429 0.643622 21.3394 0.766422C22.197 1.12165 22.8784 1.80301 23.2336 2.66061C23.3564 2.95707 23.4268 3.31304 23.4631 3.84541C23.4997 4.38227 23.5 5.06128 23.5 6C23.5 6.93872 23.4997 7.61773 23.4631 8.15459C23.4268 8.68696 23.3564 9.04293 23.2336 9.33939C22.8784 10.197 22.197 10.8783 21.3394 11.2336C21.0429 11.3564 20.687 11.4268 20.1546 11.4631C19.6177 11.4997 18.9387 11.5 18 11.5H6C5.06128 11.5 4.38227 11.4997 3.84541 11.4631C3.31304 11.4268 2.95707 11.3564 2.66061 11.2336C1.80301 10.8783 1.12165 10.197 0.766422 9.33939C0.643622 9.04293 0.573224 8.68696 0.5369 8.15459C0.500271 7.61773 0.5 6.93872 0.5 6Z" stroke="#000"/>
</svg>
