<svg width="21" height="28" viewBox="0 0 21 28" fill="none" xmlns="http://www.w3.org/2000/svg">
<path d="M0.5 8C0.5 6.10025 0.501062 4.72573 0.641988 3.67754C0.78098 2.64373 1.04772 2.00253 1.52513 1.52513C2.00253 1.04772 2.64373 0.78098 3.67754 0.641988C4.72573 0.501062 6.10025 0.5 8 0.5H13C14.8998 0.5 16.2743 0.501062 17.3225 0.641988C18.3563 0.78098 18.9975 1.04772 19.4749 1.52513C19.9523 2.00253 20.219 2.64373 20.358 3.67754C20.4989 4.72573 20.5 6.10025 20.5 8V20C20.5 21.8998 20.4989 23.2743 20.358 24.3225C20.219 25.3563 19.9523 25.9975 19.4749 26.4749C18.9975 26.9523 18.3563 27.219 17.3225 27.358C16.2743 27.4989 14.8998 27.5 13 27.5H8C6.10025 27.5 4.72573 27.4989 3.67754 27.358C2.64373 27.219 2.00253 26.9523 1.52513 26.4749C1.04772 25.9975 0.78098 25.3563 0.641988 24.3225C0.501062 23.2743 0.5 21.8998 0.5 20V8Z" stroke="#000"/>
</svg>
