<svg width="16" height="16" viewBox="0 0 16 16" fill="none" xmlns="http://www.w3.org/2000/svg">
<path d="M11.334 5.66797C11.8863 5.66797 12.334 5.22025 12.334 4.66797C12.334 4.11568 11.8863 3.66797 11.334 3.66797C10.7817 3.66797 10.334 4.11568 10.334 4.66797C10.334 5.22025 10.7817 5.66797 11.334 5.66797Z" fill="#000"/>
<path d="M10.6667 2C12.5067 2 14 3.49333 14 5.33333V10.6667C14 12.5067 12.5067 14 10.6667 14H5.33333C3.49333 14 2 12.5067 2 10.6667V5.33333C2 3.49333 3.49333 2 5.33333 2H8H10.6667Z" stroke="#000" stroke-width="1.2" stroke-linecap="round" stroke-linejoin="round"/>
<path d="M8.00065 5.33203C9.47398 5.33203 10.6673 6.52536 10.6673 7.9987C10.6673 9.47203 9.47398 10.6654 8.00065 10.6654C6.52732 10.6654 5.33398 9.47203 5.33398 7.9987C5.33398 6.52536 6.52732 5.33203 8.00065 5.33203Z" stroke="#000" stroke-width="1.2" stroke-linecap="round" stroke-linejoin="round"/>
</svg>
