<svg width="16" height="16" viewBox="0 0 16 16" fill="none" xmlns="http://www.w3.org/2000/svg">
<path d="M6.66732 9.9987L10.1273 7.9987L6.66732 5.9987V9.9987ZM14.374 4.7787C14.4606 5.09203 14.5206 5.51203 14.5607 6.04536C14.6073 6.5787 14.6273 7.0387 14.6273 7.4387L14.6673 7.9987C14.6673 9.4587 14.5606 10.532 14.374 11.2187C14.2073 11.8187 13.8207 12.2054 13.2207 12.372C12.9073 12.4587 12.334 12.5187 11.454 12.5587C10.5873 12.6054 9.79398 12.6254 9.06065 12.6254L8.00065 12.6654C5.20732 12.6654 3.46732 12.5587 2.78065 12.372C2.18065 12.2054 1.79398 11.8187 1.62732 11.2187C1.54065 10.9054 1.48065 10.4854 1.44065 9.95203C1.39398 9.4187 1.37398 8.9587 1.37398 8.5587L1.33398 7.9987C1.33398 6.5387 1.44065 5.46536 1.62732 4.7787C1.79398 4.1787 2.18065 3.79203 2.78065 3.62536C3.09398 3.5387 3.66732 3.4787 4.54732 3.4387C5.41398 3.39203 6.20732 3.37203 6.94065 3.37203L8.00065 3.33203C10.794 3.33203 12.534 3.4387 13.2207 3.62536C13.8207 3.79203 14.2073 4.1787 14.374 4.7787Z" fill="#000"/>
</svg>
