<svg width="60" height="60" viewBox="0 0 60 60" fill="none" xmlns="http://www.w3.org/2000/svg">
<path fill-rule="evenodd" clip-rule="evenodd" d="M47.1163 10.522C47.345 11.5847 47.6597 13.0073 47.8999 14.0974C51.0152 16.0438 53.2554 19.2879 53.6985 23.2186C53.7665 23.822 53.8294 24.418 53.8871 25.0077C56.121 26.0335 57.8074 28.137 58.0128 30.8235C58.1633 32.7919 58.1624 34.6104 58.0101 36.5918C57.8088 39.21 56.2029 41.2783 54.0521 42.3337C53.9539 43.5491 53.8332 44.7886 53.6901 46.0624C52.9643 52.5213 47.393 57.1379 41.0485 57.187L41.0042 57.1873L40.9461 57.1875H15.2808C8.85882 57.1875 3.2135 52.5108 2.48265 45.9919C2.04955 42.1287 1.84829 38.7583 1.87801 35.3619C1.84678 31.4499 2.05839 27.567 2.51347 23.3118C2.99019 18.8544 5.77372 15.2619 9.53494 13.4325C10.0259 13.1679 10.5362 12.9331 11.0633 12.7308L34.283 3.44242C39.8253 1.31492 45.8851 4.80123 47.1163 10.522ZM49.9721 23.6399C49.9979 23.8683 50.0228 24.0955 50.0471 24.3217H44.8747C41.2226 24.3217 37.8836 27.0053 37.6046 30.8705C37.4646 32.8107 37.4652 34.603 37.6061 36.5479C37.8863 40.4136 41.2241 43.1021 44.8803 43.1021H50.2223C50.1468 43.9343 50.0605 44.7798 49.9636 45.6422C49.4625 50.101 45.5631 53.4314 40.9462 53.4314H15.2808C10.6397 53.4314 6.72663 50.0663 6.24723 45.5775C5.41979 37.83 5.41709 31.4263 6.24214 23.7118C6.72152 19.2295 10.6315 15.8705 15.2691 15.8705H40.9643C45.5756 15.8705 49.4708 19.1912 49.9721 23.6399ZM35.625 6.94977C38.9336 5.67968 42.6843 7.75339 43.4505 11.3135C43.5036 11.5601 43.6357 12.1521 43.6893 12.3996C42.8054 12.2123 41.8928 12.1144 40.9643 12.1144H23.148L35.625 6.94977ZM44.8747 28.0778C42.9681 28.0778 41.4667 29.4535 41.3449 31.1413C41.2178 32.9001 41.2184 34.511 41.3464 36.276C41.469 37.9683 42.9729 39.346 44.8803 39.346H50.7458C52.645 39.346 54.1421 37.9813 54.2711 36.3034C54.4088 34.512 54.4095 32.8858 54.2738 31.1103C54.146 29.4393 52.6527 28.0778 50.7546 28.0778H44.8747Z" fill="#CBCECF"/>
<path d="M46.875 31.832C45.8394 31.832 45 32.6729 45 33.7101C45 34.7473 45.8394 35.5881 46.875 35.5881H48.75C49.7856 35.5881 50.625 34.7473 50.625 33.7101C50.625 32.6729 49.7856 31.832 48.75 31.832H46.875Z" fill="#949BFF"/>
</svg>
